<svg width="13" height="12" viewBox="0 0 13 12" fill="none" xmlns="http://www.w3.org/2000/svg">
<path d="M7.09086 3.01889C7.09086 1.40879 5.76529 0.0986328 4.13625 0.0986328C2.50721 0.0986328 1.18164 1.40879 1.18164 3.01889C1.18164 4.62898 2.50721 5.93914 4.13625 5.93914C5.76529 5.93914 7.09086 4.62898 7.09086 3.01889Z" fill="white"/>
<path d="M0 10.0276V11.8187H8.27291V10.0276C8.27291 7.77349 6.41705 5.93921 4.13646 5.93921C1.85587 5.93921 0 7.77349 0 10.0276Z" fill="white"/>
<path d="M12.9995 11.1956C12.9995 9.58555 11.674 8.27539 10.0449 8.27539C9.73931 8.27539 9.45031 8.33471 9.17285 8.42019C9.34013 8.93001 9.454 9.46342 9.454 10.0275V11.8186H12.9995V11.1956Z" fill="white"/>
<path d="M12.4095 5.93911C12.4095 4.6507 11.3494 3.60291 10.0458 3.60291C8.74225 3.60291 7.68213 4.6507 7.68213 5.93911C7.68213 6.01348 7.69736 6.08375 7.70429 6.1563C8.28705 6.68134 8.75702 7.32212 9.05895 8.05508C9.36026 8.19303 9.6925 8.27531 10.0458 8.27531C11.3494 8.27531 12.4095 7.22752 12.4095 5.93911Z" fill="white"/>
</svg>
