<svg width="21" height="21" viewBox="0 0 21 21" fill="none" xmlns="http://www.w3.org/2000/svg">
<path fill-rule="evenodd" clip-rule="evenodd" d="M10.2777 3.70347C8.94192 3.70347 7.85905 4.78634 7.85905 6.12212C7.85905 7.45791 8.94192 8.54077 10.2777 8.54077C11.6135 8.54077 12.6964 7.45791 12.6964 6.12212C12.6964 4.78634 11.6135 3.70347 10.2777 3.70347ZM6.19238 6.12212C6.19238 3.86586 8.02144 2.0368 10.2777 2.0368C12.534 2.0368 14.363 3.86586 14.363 6.12212C14.363 8.37838 12.534 10.2074 10.2777 10.2074C8.02144 10.2074 6.19238 8.37838 6.19238 6.12212Z" fill="#9098B1"/>
<path fill-rule="evenodd" clip-rule="evenodd" d="M8.20921 13.195C5.66963 13.195 3.611 15.2537 3.611 17.7933V17.8692C3.611 18.3294 3.23791 18.7025 2.77767 18.7025C2.31743 18.7025 1.94434 18.3294 1.94434 17.8692V17.7933C1.94434 14.3332 4.74916 11.5284 8.20921 11.5284H12.3461C15.8062 11.5284 18.611 14.3332 18.611 17.7933V17.8692C18.611 18.3294 18.2379 18.7025 17.7777 18.7025C17.3174 18.7025 16.9443 18.3294 16.9443 17.8692V17.7933C16.9443 15.2537 14.8857 13.195 12.3461 13.195H8.20921Z" fill="#9098B1"/>
</svg>
