<svg width="15" height="15" viewBox="0 0 15 15" fill="none" xmlns="http://www.w3.org/2000/svg">
<path fill-rule="evenodd" clip-rule="evenodd" d="M7.5 0.9375C4.65422 0.9375 2.34375 3.24797 2.34375 6.09375C2.34375 7.39594 3.11906 8.94422 4.07766 10.3214C5.45531 12.3014 7.1775 13.9341 7.1775 13.9341C7.35844 14.1052 7.64156 14.1052 7.8225 13.9341C7.8225 13.9341 9.54469 12.3014 10.9223 10.3214C11.8809 8.94422 12.6562 7.39594 12.6562 6.09375C12.6562 3.24797 10.3458 0.9375 7.5 0.9375ZM7.5 3.51563C6.07687 3.51563 4.92188 4.67063 4.92188 6.09375C4.92188 7.51688 6.07687 8.67188 7.5 8.67188C8.92312 8.67188 10.0781 7.51688 10.0781 6.09375C10.0781 4.67063 8.92312 3.51563 7.5 3.51563ZM7.5 4.45313C8.40562 4.45313 9.14062 5.18813 9.14062 6.09375C9.14062 6.99938 8.40562 7.73438 7.5 7.73438C6.59438 7.73438 5.85938 6.99938 5.85938 6.09375C5.85938 5.18813 6.59438 4.45313 7.5 4.45313Z" fill="white"/>
</svg>
