<svg width="20" height="20" viewBox="0 0 20 20" fill="none" xmlns="http://www.w3.org/2000/svg">
<path d="M16.4652 2.08176L3.17898 3.98452C2.83464 4.03384 2.64463 4.41097 2.80991 4.71705L3.81899 6.5857C3.89424 6.72507 3.89902 6.89185 3.83186 7.03529L2.85883 9.11349C2.69083 9.4723 2.98699 9.87465 3.37951 9.82088L16.604 8.00931C16.8516 7.97539 17.0361 7.76386 17.0361 7.51394V2.57671C17.0361 2.27236 16.7665 2.03861 16.4652 2.08176Z" fill="black" stroke="black" stroke-width="0.5"/>
<path d="M1.26362 11.9811L5.891 9.4985C5.94359 9.47029 6.0008 9.45172 6.05994 9.44367L14.682 8.2699C15.2038 8.19886 15.4667 8.87884 15.0328 9.1773L14.7591 9.36558C14.3262 9.66332 14.5866 10.3417 15.1076 10.2733L17.7999 9.91948C18.1915 9.86801 18.4854 10.2697 18.3178 10.6274L17.3269 12.742C17.2584 12.8883 17.2647 13.0587 17.344 13.1994L18.2392 14.7896C18.4113 15.0954 18.2231 15.4787 17.8759 15.5296L1.57242 17.9163C1.27067 17.9604 1 17.7265 1 17.4215V12.4217C1 12.2375 1.10129 12.0682 1.26362 11.9811Z" fill="black" stroke="black" stroke-width="0.5"/>
<line x1="1.21213" y1="12.1661" x2="6.05049" y2="11.4749" stroke="black" stroke-width="0.5" stroke-linecap="round"/>
<path d="M6.57958 6.39653L5.68742 6.52157L5.63006 6.1475L6.44001 6.03397C6.57379 6.01522 6.68749 5.97627 6.7811 5.91714C6.87471 5.858 6.94304 5.78268 6.98609 5.69118C7.03053 5.59785 7.04451 5.49235 7.02802 5.37468C7.00994 5.24573 6.97027 5.14446 6.90901 5.07088C6.84913 4.99545 6.76582 4.94632 6.65908 4.92348C6.55372 4.8988 6.42368 4.8973 6.26894 4.91899L5.58229 5.01524L6.02216 8.1535L5.55553 8.21891L5.06212 4.69863L6.2154 4.53699C6.39592 4.51168 6.55971 4.50763 6.70675 4.52482C6.85356 4.5404 6.98155 4.57998 7.09072 4.64357C7.20127 4.70532 7.29058 4.79141 7.35865 4.90185C7.42672 5.01228 7.47228 5.1497 7.49532 5.31411C7.51566 5.45918 7.497 5.59574 7.43935 5.7238C7.38147 5.85024 7.29164 5.9598 7.16986 6.05247C7.04969 6.14492 6.90323 6.21393 6.73048 6.25951L6.57958 6.39653ZM6.7886 8.04608L5.73445 8.19383L5.94478 7.7773L6.73539 7.66649C6.88368 7.6457 7.00579 7.60229 7.10172 7.53625C7.19926 7.46999 7.26888 7.38627 7.31058 7.2851C7.35205 7.18232 7.36375 7.06646 7.34568 6.93751C7.32738 6.80695 7.28819 6.6974 7.22812 6.60885C7.16805 6.5203 7.08443 6.45725 6.97726 6.41967C6.8701 6.3821 6.73754 6.37439 6.57958 6.39653L5.91469 6.48972L5.867 6.11429L6.77608 5.98687L6.89419 6.10837C7.06546 6.09915 7.2157 6.1274 7.34488 6.19311C7.47384 6.25721 7.57776 6.34783 7.65663 6.46497C7.73712 6.58188 7.78798 6.7161 7.80921 6.86761C7.83994 7.08682 7.81756 7.27896 7.74209 7.44403C7.668 7.60726 7.54945 7.74057 7.38644 7.84395C7.22321 7.94572 7.02393 8.01309 6.7886 8.04608ZM9.36817 7.73382C9.18603 7.75935 9.01653 7.75188 8.85965 7.71142C8.70416 7.66911 8.56532 7.599 8.44312 7.50109C8.32254 7.40294 8.2232 7.28045 8.14509 7.13362C8.06699 6.98679 8.01506 6.8215 7.98931 6.63775L7.97507 6.53621C7.94525 6.32344 7.95014 6.12964 7.98973 5.95481C8.02909 5.77837 8.09464 5.62455 8.18637 5.49336C8.2781 5.36217 8.38828 5.25716 8.51693 5.17832C8.64558 5.09947 8.78324 5.04977 8.92992 5.02921C9.1169 5.00301 9.2826 5.01265 9.42703 5.05815C9.57307 5.10342 9.69775 5.17798 9.80106 5.28183C9.90414 5.38408 9.98759 5.51043 10.0514 5.66091C10.115 5.80977 10.1597 5.97608 10.1854 6.15983L10.2136 6.36051L8.26 6.63432L8.20883 6.26924L9.71511 6.05812L9.71036 6.02427C9.68765 5.90912 9.64766 5.79968 9.59038 5.69595C9.53473 5.59199 9.4576 5.51076 9.35901 5.45227C9.26042 5.39377 9.13456 5.37525 8.98143 5.39672C8.87988 5.41095 8.78945 5.44581 8.71012 5.50131C8.63057 5.55519 8.56604 5.62833 8.51653 5.72073C8.46703 5.81313 8.43383 5.92215 8.41692 6.04778C8.40002 6.17342 8.40264 6.31521 8.42478 6.47317L8.43901 6.57472C8.45641 6.69883 8.48971 6.81332 8.53892 6.91818C8.58952 7.0212 8.65362 7.10919 8.73123 7.18213C8.81045 7.25484 8.90088 7.30791 9.00254 7.34132C9.1058 7.37451 9.21868 7.38252 9.34118 7.36535C9.49914 7.34321 9.62841 7.29222 9.72898 7.21238C9.82954 7.13255 9.91336 7.03287 9.98043 6.91336L10.2814 7.09058C10.2369 7.18392 10.1766 7.27537 10.1004 7.36494C10.0242 7.45451 9.92585 7.53239 9.8053 7.5986C9.68635 7.66457 9.54064 7.70965 9.36817 7.73382ZM12.0304 6.60384C12.0213 6.53937 11.9985 6.48176 11.9618 6.43103C11.9265 6.37845 11.8621 6.3357 11.7687 6.30277C11.6768 6.268 11.5422 6.24578 11.365 6.2361C11.2156 6.22581 11.0792 6.20796 10.9556 6.18254C10.8337 6.1569 10.7274 6.12002 10.6369 6.0719C10.5479 6.02356 10.476 5.96214 10.4212 5.88765C10.3664 5.81316 10.3314 5.72191 10.3163 5.61392C10.3018 5.51076 10.3107 5.41008 10.343 5.31188C10.3769 5.21345 10.4307 5.12291 10.5046 5.04024C10.5801 4.95734 10.6747 4.88739 10.7883 4.83037C10.9019 4.77336 11.0321 4.73457 11.1787 4.71401C11.3883 4.68464 11.5724 4.69664 11.7311 4.75C11.8898 4.80336 12.0173 4.88656 12.1137 4.9996C12.2098 5.11103 12.2684 5.2417 12.2894 5.3916L11.8421 5.45429C11.8319 5.38176 11.8004 5.3147 11.7474 5.2531C11.6957 5.18966 11.6257 5.14114 11.5371 5.10753C11.4502 5.07369 11.3479 5.06502 11.2302 5.08151C11.1061 5.09891 11.0081 5.13237 10.9362 5.1819C10.8656 5.22959 10.8167 5.28494 10.7893 5.34793C10.7636 5.4107 10.7553 5.47433 10.7643 5.5388C10.7711 5.58716 10.7852 5.62955 10.8068 5.66597C10.8297 5.70056 10.8652 5.73092 10.9132 5.75706C10.961 5.78158 11.0264 5.80201 11.1092 5.81834C11.192 5.83467 11.2966 5.84795 11.4229 5.85819C11.6441 5.87649 11.8287 5.90978 11.9768 5.95805C12.1249 6.00632 12.2397 6.07487 12.3212 6.1637C12.4027 6.25254 12.4532 6.36707 12.4729 6.5073C12.4889 6.62174 12.4794 6.7299 12.4444 6.83178C12.411 6.93343 12.354 7.02524 12.2735 7.1072C12.1943 7.18732 12.0954 7.25542 11.9767 7.3115C11.8594 7.36574 11.7242 7.4036 11.5711 7.42506C11.3406 7.45737 11.1398 7.4436 10.9687 7.38376C10.7976 7.32392 10.6618 7.23449 10.5613 7.11545C10.4608 6.99641 10.4003 6.86436 10.38 6.71929L10.8297 6.65626C10.8533 6.77786 10.9025 6.8704 10.9771 6.9339C11.0515 6.99578 11.1376 7.03549 11.2354 7.05301C11.333 7.06892 11.4277 7.07044 11.5195 7.05756C11.642 7.04039 11.7421 7.00992 11.8198 6.96616C11.8991 6.92218 11.9566 6.86893 11.9922 6.80642C12.0278 6.7439 12.0405 6.67638 12.0304 6.60384ZM13.5939 4.4248L13.642 4.76812L12.2276 4.96637L12.1795 4.62305L13.5939 4.4248ZM12.5691 3.92007L13.0164 3.85738L13.3814 6.46132C13.3938 6.54997 13.4169 6.61494 13.4506 6.65624C13.4843 6.69753 13.524 6.72238 13.5695 6.73078C13.6151 6.73919 13.6628 6.73989 13.7128 6.73289C13.7499 6.72769 13.7881 6.71905 13.8275 6.70695C13.8683 6.69302 13.8988 6.68216 13.9191 6.67439L13.9727 7.03914C13.9388 7.05539 13.8935 7.07242 13.8368 7.09022C13.782 7.10941 13.7143 7.12466 13.6337 7.13595C13.5241 7.15131 13.4203 7.14367 13.3223 7.11303C13.2244 7.08239 13.1409 7.02014 13.0718 6.92627C13.0042 6.83057 12.9581 6.69568 12.9337 6.5216L12.5691 3.92007Z" fill="#FFE7D2"/>
<path d="M5.90489 15.2614C5.89337 15.1791 5.87031 15.1084 5.83571 15.0492C5.80249 14.9881 5.75084 14.9362 5.68075 14.8934C5.61227 14.8504 5.51995 14.8132 5.40379 14.7818C5.28925 14.7502 5.14557 14.7219 4.97278 14.6968C4.79147 14.6696 4.62629 14.6344 4.47725 14.5912C4.32798 14.5464 4.19762 14.4899 4.08616 14.4217C3.97471 14.3535 3.88493 14.2699 3.81683 14.171C3.74872 14.0721 3.70507 13.9541 3.68587 13.8171C3.66667 13.6801 3.67714 13.5496 3.71729 13.4257C3.75743 13.3017 3.82391 13.1897 3.9167 13.0895C4.01089 12.9876 4.12793 12.9022 4.26783 12.8332C4.40773 12.7643 4.56794 12.7172 4.74847 12.6919C5.01281 12.6549 5.24398 12.6742 5.44196 12.75C5.64133 12.824 5.80078 12.9356 5.92031 13.0848C6.03961 13.2325 6.11214 13.3981 6.13789 13.5819L5.67368 13.647C5.65516 13.5148 5.61057 13.4019 5.53992 13.3082C5.46905 13.213 5.37232 13.1444 5.24975 13.1024C5.12695 13.0588 4.9777 13.0493 4.80201 13.0739C4.63599 13.0972 4.50249 13.1414 4.4015 13.2065C4.30051 13.2716 4.2294 13.3506 4.18818 13.4435C4.14858 13.5361 4.13646 13.6373 4.15182 13.7469C4.16221 13.821 4.18701 13.8866 4.22622 13.9435C4.26682 13.9986 4.32378 14.0474 4.39709 14.0897C4.47202 14.1318 4.56411 14.1673 4.67337 14.1964C4.78424 14.2252 4.91503 14.2496 5.06575 14.2696C5.27352 14.298 5.4548 14.3367 5.60958 14.3857C5.76436 14.4346 5.8946 14.4961 6.00028 14.57C6.10736 14.6421 6.19114 14.7298 6.25164 14.8331C6.31352 14.9345 6.35406 15.0538 6.37326 15.1908C6.39337 15.3342 6.38254 15.468 6.34078 15.5922C6.29902 15.7164 6.22991 15.8272 6.13343 15.9245C6.03696 16.0219 5.91613 16.1037 5.77094 16.1701C5.62714 16.2346 5.46256 16.2799 5.2772 16.3059C5.1144 16.3287 4.95086 16.3286 4.78657 16.3056C4.6239 16.2824 4.47176 16.2347 4.33016 16.1625C4.19017 16.0901 4.07223 15.9932 3.97634 15.8719C3.88183 15.7487 3.82226 15.5993 3.79764 15.4236L4.26185 15.3585C4.27879 15.4794 4.31674 15.5801 4.37568 15.6606C4.4344 15.7395 4.50801 15.8015 4.59651 15.8466C4.68662 15.8915 4.78517 15.9204 4.89217 15.9333C5.00056 15.9444 5.11116 15.9421 5.22399 15.9263C5.38679 15.9034 5.52144 15.8616 5.62794 15.8006C5.73445 15.7397 5.81084 15.6632 5.85712 15.5713C5.90501 15.4791 5.92093 15.3758 5.90489 15.2614ZM7.82098 15.9493C7.63884 15.9748 7.46934 15.9674 7.31246 15.9269C7.15697 15.8846 7.01813 15.8145 6.89593 15.7166C6.77535 15.6184 6.67601 15.4959 6.5979 15.3491C6.5198 15.2023 6.46787 15.037 6.44212 14.8532L6.42788 14.7517C6.39806 14.5389 6.40295 14.3451 6.44254 14.1703C6.4819 13.9939 6.54745 13.84 6.63918 13.7089C6.73091 13.5777 6.84109 13.4726 6.96974 13.3938C7.09839 13.315 7.23605 13.2653 7.38273 13.2447C7.56971 13.2185 7.73541 13.2281 7.87984 13.2736C8.02588 13.3189 8.15056 13.3935 8.25387 13.4973C8.35695 13.5996 8.4404 13.7259 8.50422 13.8764C8.56782 14.0253 8.61249 14.1916 8.63825 14.3753L8.66637 14.576L6.71281 14.8498L6.66164 14.4847L8.16792 14.2736L8.16317 14.2398C8.14046 14.1246 8.10046 14.0152 8.04319 13.9114C7.98754 13.8075 7.91041 13.7263 7.81182 13.6678C7.71323 13.6093 7.58737 13.5907 7.43424 13.6122C7.33269 13.6264 7.24226 13.6613 7.16293 13.7168C7.08338 13.7707 7.01885 13.8438 6.96934 13.9362C6.91984 14.0286 6.88664 14.1376 6.86973 14.2633C6.85283 14.3889 6.85545 14.5307 6.87759 14.6887L6.89182 14.7902C6.90922 14.9143 6.94252 15.0288 6.99173 15.1337C7.04233 15.2367 7.10643 15.3247 7.18404 15.3976C7.26326 15.4703 7.35369 15.5234 7.45535 15.5568C7.55861 15.59 7.67149 15.598 7.79399 15.5808C7.95195 15.5587 8.08122 15.5077 8.18178 15.4279C8.28235 15.348 8.36617 15.2484 8.43324 15.1288L8.73419 15.3061C8.68975 15.3994 8.62943 15.4909 8.55324 15.5804C8.47704 15.67 8.37866 15.7479 8.25811 15.8141C8.13916 15.8801 7.99345 15.9251 7.82098 15.9493ZM9.02268 11.9449L9.5432 15.6586L9.0935 15.7216L8.57297 12.0079L9.02268 11.9449ZM9.92963 11.8178L10.4502 15.5315L10.0005 15.5945L9.47993 11.8808L9.92963 11.8178ZM11.9635 15.3687C11.7814 15.3942 11.6119 15.3867 11.455 15.3463C11.2995 15.304 11.1606 15.2339 11.0384 15.1359C10.9179 15.0378 10.8185 14.9153 10.7404 14.7685C10.6623 14.6217 10.6104 14.4564 10.5846 14.2726L10.5704 14.1711C10.5406 13.9583 10.5455 13.7645 10.5851 13.5897C10.6244 13.4132 10.69 13.2594 10.7817 13.1282C10.8734 12.997 10.9836 12.892 11.1123 12.8132C11.2409 12.7343 11.3786 12.6846 11.5252 12.6641C11.7122 12.6379 11.8779 12.6475 12.0224 12.693C12.1684 12.7383 12.2931 12.8128 12.3964 12.9167C12.4995 13.0189 12.5829 13.1453 12.6467 13.2958C12.7103 13.4446 12.755 13.6109 12.7808 13.7947L12.8089 13.9954L10.8553 14.2692L10.8042 13.9041L12.3104 13.693L12.3057 13.6591C12.283 13.544 12.243 13.4345 12.1857 13.3308C12.13 13.2268 12.0529 13.1456 11.9543 13.0871C11.8557 13.0286 11.7299 13.0101 11.5768 13.0316C11.4752 13.0458 11.3848 13.0807 11.3054 13.1362C11.2259 13.1901 11.1614 13.2632 11.1119 13.3556C11.0624 13.448 11.0292 13.557 11.0122 13.6826C10.9953 13.8083 10.998 13.9501 11.0201 14.108L11.0343 14.2096C11.0517 14.3337 11.085 14.4482 11.1342 14.553C11.1848 14.6561 11.2489 14.744 11.3266 14.817C11.4058 14.8897 11.4962 14.9428 11.5979 14.9762C11.7011 15.0094 11.814 15.0174 11.9365 15.0002C12.0945 14.9781 12.2237 14.9271 12.3243 14.8472C12.4249 14.7674 12.5087 14.6677 12.5758 14.5482L12.8767 14.7254C12.8323 14.8188 12.7719 14.9102 12.6958 14.9998C12.6196 15.0894 12.5212 15.1673 12.4006 15.2335C12.2817 15.2994 12.136 15.3445 11.9635 15.3687ZM13.338 12.8784L13.647 15.0834L13.1997 15.1461L12.8331 12.5301L13.2683 12.4691L13.338 12.8784ZM14.0955 12.3383L14.1514 12.7545C14.1132 12.7517 14.0771 12.7518 14.043 12.7549C14.0103 12.7562 13.973 12.7598 13.9311 12.7657C13.8279 12.7801 13.7391 12.809 13.6647 12.8523C13.5902 12.8956 13.5296 12.9501 13.483 13.0159C13.4363 13.0816 13.4025 13.157 13.3816 13.2421C13.362 13.3254 13.354 13.4152 13.3577 13.5117L13.2421 13.6018C13.22 13.4439 13.2145 13.2934 13.2257 13.1505C13.2385 13.0074 13.2705 12.878 13.3217 12.7623C13.3727 12.6451 13.4447 12.5495 13.5379 12.4757C13.6325 12.3999 13.7507 12.3522 13.8925 12.3323C13.9248 12.3278 13.9624 12.3266 14.0054 12.3288C14.0483 12.3293 14.0783 12.3325 14.0955 12.3383Z" fill="#FFE7D2"/>
<rect x="10" y="10.6879" width="5" height="0.5" rx="0.25" transform="rotate(-7.90753 10 10.6879)" fill="black"/>
</svg>
