<svg width="16" height="14" viewBox="0 0 16 14" fill="none" xmlns="http://www.w3.org/2000/svg">
<path d="M10.616 8.42669C10.616 9.83342 9.47161 10.9778 8.06488 10.9778C6.65814 10.9778 5.51421 9.83342 5.51421 8.42669C5.51421 7.01995 6.65814 5.87558 8.06488 5.87558C9.47161 5.87558 10.616 7.02039 10.616 8.42669ZM15.974 4.80424V12.05C15.974 13.016 15.1908 13.7991 14.2249 13.7991H1.90489C0.938933 13.7991 0.155762 13.016 0.155762 12.05V4.80424C0.155762 3.83829 0.938933 3.05512 1.90489 3.05512H4.05631V2.44992C4.05631 1.60465 4.7411 0.919434 5.5868 0.919434H10.543C11.3887 0.919434 12.0734 1.60465 12.0734 2.44992V3.05468H14.2249C15.1908 3.05512 15.974 3.83829 15.974 4.80424ZM11.9278 8.42669C11.9278 6.29669 10.1949 4.56374 8.06488 4.56374C5.93531 4.56374 4.20237 6.29669 4.20237 8.42669C4.20237 10.5567 5.93531 12.2896 8.06488 12.2896C10.1949 12.2896 11.9278 10.5567 11.9278 8.42669Z" fill="white"/>
</svg>
