<svg width="52" height="52" viewBox="0 0 52 52" fill="none" xmlns="http://www.w3.org/2000/svg">
<circle cx="26" cy="26" r="26" fill="#4169E1"/>
<g clip-path="url(#clip0_1_3000)">
<path d="M26.0001 29.4668C27.9147 29.4668 29.4668 27.9147 29.4668 26.0001C29.4668 24.0855 27.9147 22.5334 26.0001 22.5334C24.0855 22.5334 22.5334 24.0855 22.5334 26.0001C22.5334 27.9147 24.0855 29.4668 26.0001 29.4668Z" fill="white"/>
<path d="M22.7501 15.1667L20.7676 17.3334H17.3334C16.1417 17.3334 15.1667 18.3084 15.1667 19.5001V32.5001C15.1667 33.6917 16.1417 34.6667 17.3334 34.6667H34.6667C35.8584 34.6667 36.8334 33.6917 36.8334 32.5001V19.5001C36.8334 18.3084 35.8584 17.3334 34.6667 17.3334H31.2326L29.2501 15.1667H22.7501ZM26.0001 31.4167C23.0101 31.4167 20.5834 28.9901 20.5834 26.0001C20.5834 23.0101 23.0101 20.5834 26.0001 20.5834C28.9901 20.5834 31.4167 23.0101 31.4167 26.0001C31.4167 28.9901 28.9901 31.4167 26.0001 31.4167Z" fill="white"/>
</g>
<defs>
<clipPath id="clip0_1_3000">
<rect width="26" height="26" fill="white" transform="translate(13 13)"/>
</clipPath>
</defs>
</svg>
