<svg width="28" height="18" viewBox="0 0 28 18" fill="none" xmlns="http://www.w3.org/2000/svg">
<path d="M28 1.8V16.2C28 17.1945 27.105 18 26 18H2C0.89502 18 0 17.1945 0 16.2V1.8C0 0.805518 0.89502 0 2 0H26C27.105 0 28 0.805518 28 1.8Z" fill="#A8ADB1"/>
<path d="M0 4.80005H28V8.40005H0V4.80005Z" fill="#57565C"/>
<path d="M4.41406 13.2H7.41406V15H4.41406V13.2Z" fill="white"/>
<path d="M9.41406 13.2H13.4141V15H9.41406V13.2Z" fill="white"/>
<path d="M15.4141 13.2H19.4141V15H15.4141V13.2Z" fill="white"/>
<path d="M21.4141 13.2H24.4141V15H21.4141V13.2Z" fill="white"/>
</svg>
