<svg width="21" height="21" viewBox="0 0 21 21" fill="none" xmlns="http://www.w3.org/2000/svg">
<path fill-rule="evenodd" clip-rule="evenodd" d="M8.48671 16.6149C8.14889 16.6146 7.81859 16.7245 7.5376 16.9307C7.25661 17.1368 7.03755 17.43 6.90813 17.773C6.77871 18.116 6.74474 18.4936 6.81052 18.8578C6.87631 19.2221 7.03888 19.5567 7.27769 19.8194C7.5165 20.0821 7.82081 20.261 8.15212 20.3335C8.48344 20.406 8.82687 20.3689 9.13899 20.2268C9.4511 20.0847 9.71787 19.844 9.90556 19.5353C10.0932 19.2265 10.1934 18.8634 10.1934 18.4921C10.1933 17.9944 10.0135 17.5171 9.69351 17.1651C9.37348 16.8131 8.93941 16.6152 8.48671 16.6149Z" fill="#9098B1"/>
<path fill-rule="evenodd" clip-rule="evenodd" d="M15.3954 16.6149C15.0576 16.6148 14.7274 16.7249 14.4466 16.9312C14.1657 17.1375 13.9468 17.4307 13.8175 17.7737C13.6883 18.1168 13.6544 18.4943 13.7203 18.8585C13.7862 19.2227 13.9488 19.5572 14.1877 19.8197C14.4265 20.0823 14.7308 20.2611 15.0621 20.3336C15.3934 20.406 15.7368 20.3688 16.0489 20.2267C16.3609 20.0846 16.6277 19.8439 16.8153 19.5352C17.0029 19.2264 17.1031 18.8634 17.103 18.4921C17.1031 18.2455 17.059 18.0014 16.9733 17.7736C16.8875 17.5458 16.7617 17.3388 16.6031 17.1644C16.4445 16.9901 16.2562 16.8518 16.049 16.7575C15.8418 16.6632 15.6197 16.6148 15.3954 16.6149Z" fill="#9098B1"/>
<path fill-rule="evenodd" clip-rule="evenodd" d="M18.1227 10.1818H10.4638C10.4638 10.1818 9.88351 10.3261 9.88351 11.026C9.88351 11.7293 10.4638 11.9337 10.4638 11.9337H17.6526L17.1544 13.7817H8.10815L7.47166 8.20842H18.6536L18.1226 10.1834L18.1227 10.1818ZM19.7438 6.32635H7.44055C7.38239 6.34371 7.3261 6.36793 7.27267 6.39858L7.26477 6.32635C7.26477 6.32635 7.07951 4.59013 6.9748 3.87325C6.87056 3.1515 5.23212 2.25058 1.70998 0.425635C0.881606 0.0436668 0.188896 1.70922 1.70998 2.58115L4.48761 4.00676C4.48761 4.00676 5.13373 4.41946 5.18917 4.97245C5.2446 5.52804 6.37164 14.7126 6.37164 14.7126C6.37164 14.7126 6.41665 15.9912 7.47324 15.9912H17.5283C18.4154 15.9912 18.5879 14.9722 18.5879 14.9722L20.6884 8.11553C20.6884 8.11553 21.3112 6.32601 19.7441 6.32601L19.7438 6.32635Z" fill="#9098B1"/>
</svg>
