<svg width="24" height="25" viewBox="0 0 24 25" fill="none" xmlns="http://www.w3.org/2000/svg">
<path opacity="0.969" fill-rule="evenodd" clip-rule="evenodd" d="M2.88712 4.7093C4.0962 4.70163 5.3052 4.7093 6.51408 4.73231C6.85662 4.84578 7.04793 5.08356 7.08796 5.44563C7.64927 8.28467 8.21549 11.1226 8.78666 13.9595C8.87082 14.228 9.04684 14.4044 9.31464 14.4888C12.1305 14.5195 14.9464 14.5195 17.7622 14.4888C18.1135 14.3609 18.3048 14.1078 18.3361 13.7294C18.7538 11.771 19.1747 9.8151 19.5987 7.86173C19.5528 7.49343 19.3538 7.24795 19.0018 7.1254C18.6039 7.11007 18.2061 7.0947 17.8081 7.07938C17.1769 6.77605 17.0468 6.32353 17.4179 5.72176C17.5313 5.62272 17.6613 5.55369 17.8081 5.51466C18.2825 5.48397 18.757 5.48397 19.2314 5.51466C20.6926 5.89107 21.343 6.8345 21.1826 8.34495C20.7482 10.3226 20.3197 12.3015 19.8971 14.2817C19.6194 15.2657 18.9843 15.8716 17.9918 16.0995C15.0229 16.1302 12.054 16.1302 9.08508 16.0995C8.14662 15.8952 7.52683 15.3353 7.2257 14.4197C6.68418 11.7518 6.14858 9.08253 5.61882 6.41207C4.73416 6.32854 3.83892 6.29016 2.93303 6.29702C2.45066 6.12039 2.25937 5.77523 2.35915 5.26155C2.45063 4.99349 2.62662 4.80941 2.88712 4.7093Z" fill="#213675"/>
<path opacity="0.969" fill-rule="evenodd" clip-rule="evenodd" d="M13.125 6.27399C13.5633 6.2155 13.877 6.38421 14.0662 6.78022C14.1316 7.39106 14.1546 8.00465 14.1351 8.62106C14.7506 8.60063 15.3627 8.62364 15.9715 8.69009C16.5154 9.02315 16.6148 9.46035 16.2699 10.0017C16.1666 10.0881 16.0518 10.1571 15.9256 10.2088C15.3289 10.2318 14.7321 10.2395 14.1351 10.2318C14.1547 10.8635 14.1317 11.4924 14.0662 12.1187C13.9125 12.4335 13.66 12.587 13.3087 12.5789C12.9407 12.5861 12.6882 12.4174 12.5511 12.0726C12.5282 11.4592 12.5205 10.8456 12.5282 10.2318C11.9159 10.2395 11.3037 10.2318 10.6918 10.2088C10.1604 9.91149 10.0303 9.48966 10.3015 8.94321C10.3905 8.82328 10.5053 8.73892 10.6458 8.69009C11.2699 8.62355 11.8974 8.60053 12.5282 8.62106C12.5205 8.0226 12.5282 7.42433 12.5511 6.82624C12.6469 6.53843 12.8382 6.35434 13.125 6.27399Z" fill="#213675"/>
<path opacity="0.967" fill-rule="evenodd" clip-rule="evenodd" d="M9.81957 17.273C11.4522 17.2298 12.3704 18.0199 12.5742 19.6431C12.4789 20.9043 11.8208 21.6867 10.6001 21.9902C9.07339 22.1156 8.14755 21.433 7.82245 19.9423C7.76773 18.5024 8.43344 17.6127 9.81957 17.273ZM10.0032 18.8838C10.8107 18.923 11.0784 19.3219 10.8067 20.0803C10.3643 20.5198 9.93582 20.5044 9.52115 20.0343C9.32847 19.5004 9.48915 19.1169 10.0032 18.8838Z" fill="#213675"/>
<path opacity="0.966" fill-rule="evenodd" clip-rule="evenodd" d="M16.8898 17.273C18.3277 17.2044 19.223 17.8641 19.5756 19.2519C19.6888 20.7176 19.0385 21.6304 17.6244 21.9902C16.1835 22.11 15.273 21.4734 14.8927 20.0803C14.7725 18.5699 15.4382 17.6342 16.8898 17.273ZM17.0735 18.8838C17.7077 18.8675 18.0061 19.1743 17.9687 19.8042C17.7264 20.3971 17.3208 20.5428 16.7521 20.2414C16.4019 19.8721 16.3866 19.4886 16.7062 19.0909C16.8255 19.0083 16.9479 18.9392 17.0735 18.8838Z" fill="#213675"/>
</svg>
