<svg width="21" height="20" viewBox="0 0 21 20" fill="none" xmlns="http://www.w3.org/2000/svg">
<path fill-rule="evenodd" clip-rule="evenodd" d="M7.97157 16.2451C7.63375 16.2449 7.30346 16.3548 7.02247 16.5609C6.74148 16.7671 6.52242 17.0602 6.39299 17.4032C6.26357 17.7463 6.2296 18.1238 6.29539 18.4881C6.36117 18.8523 6.52375 19.187 6.76255 19.4496C7.00136 19.7123 7.30567 19.8912 7.63698 19.9637C7.9683 20.0362 8.31174 19.9991 8.62385 19.857C8.93597 19.7149 9.20274 19.4743 9.39042 19.1655C9.5781 18.8567 9.67826 18.4937 9.67823 18.1223C9.67819 17.6247 9.4984 17.1474 9.17837 16.7954C8.85835 16.4434 8.42428 16.2454 7.97157 16.2451Z" fill="black"/>
<path fill-rule="evenodd" clip-rule="evenodd" d="M14.8798 16.2451C14.542 16.2451 14.2118 16.3552 13.931 16.5614C13.6501 16.7677 13.4312 17.0609 13.3019 17.404C13.1726 17.747 13.1388 18.1245 13.2047 18.4887C13.2706 18.8529 13.4332 19.1874 13.6721 19.45C13.9109 19.7126 14.2152 19.8914 14.5465 19.9638C14.8778 20.0362 15.2212 19.999 15.5333 19.8569C15.8453 19.7148 16.112 19.4742 16.2997 19.1654C16.4873 18.8566 16.5874 18.4936 16.5874 18.1223C16.5875 17.8758 16.5434 17.6316 16.4576 17.4038C16.3719 17.176 16.2461 16.969 16.0875 16.7947C15.9289 16.6203 15.7406 16.4821 15.5334 16.3878C15.3262 16.2935 15.1041 16.245 14.8798 16.2451Z" fill="black"/>
<path fill-rule="evenodd" clip-rule="evenodd" d="M17.6076 9.81217H9.94864C9.94864 9.81217 9.36838 9.95645 9.36838 10.6563C9.36838 11.3597 9.94864 11.564 9.94864 11.564H17.1374L16.6393 13.4121H7.59301L6.95653 7.83879H18.1384L17.6075 9.81374L17.6076 9.81217ZM19.2287 5.95672H6.92542C6.86725 5.97408 6.81096 5.9983 6.75753 6.02895L6.74963 5.95672C6.74963 5.95672 6.56437 4.2205 6.45966 3.50362C6.35542 2.78187 4.71699 1.88095 1.19485 0.0560063C0.366469 -0.325962 -0.32624 1.33959 1.19485 2.21152L3.97248 3.63713C3.97248 3.63713 4.61859 4.04983 4.67403 4.60282C4.72947 5.15841 5.8565 14.343 5.8565 14.343C5.8565 14.343 5.90151 15.6216 6.95811 15.6216H17.0131C17.9003 15.6216 18.0727 14.6026 18.0727 14.6026L20.1733 7.7459C20.1733 7.7459 20.796 5.95638 19.229 5.95638L19.2287 5.95672Z" fill="black"/>
</svg>
