<svg width="20" height="20" viewBox="0 0 20 20" fill="none" xmlns="http://www.w3.org/2000/svg">
<path opacity="0.969" fill-rule="evenodd" clip-rule="evenodd" d="M2.44126 3.30078C3.46999 3.29427 4.49864 3.30078 5.5272 3.32031C5.81864 3.41663 5.98142 3.61845 6.01548 3.92578C6.49306 6.33555 6.97481 8.74441 7.46079 11.1523C7.53239 11.3802 7.68216 11.53 7.91001 11.6016C10.3058 11.6276 12.7017 11.6276 15.0975 11.6016C15.3964 11.493 15.5591 11.2782 15.5858 10.957C15.9412 9.29473 16.2993 7.63457 16.66 5.97656C16.6209 5.66394 16.4517 5.45559 16.1522 5.35156C15.8136 5.33855 15.4751 5.32551 15.1366 5.3125C14.5995 5.05504 14.4888 4.67094 14.8045 4.16016C14.901 4.07609 15.0117 4.0175 15.1366 3.98437C15.5402 3.95832 15.9439 3.95832 16.3475 3.98437C17.5908 4.30387 18.1442 5.10465 18.0077 6.38672C17.6381 8.06531 17.2735 9.745 16.9139 11.4258C16.6777 12.261 16.1373 12.7754 15.2928 12.9687C12.7668 12.9948 10.2408 12.9948 7.7147 12.9687C6.91622 12.7953 6.38888 12.3201 6.13267 11.543C5.67192 9.2784 5.21622 7.01277 4.76548 4.74609C4.01278 4.67519 3.25108 4.64262 2.48032 4.64844C2.0699 4.49851 1.90715 4.20555 1.99204 3.76953C2.06987 3.542 2.21962 3.38575 2.44126 3.30078Z" fill="white"/>
<path opacity="0.967" fill-rule="evenodd" clip-rule="evenodd" d="M8.34006 13.9649C9.72912 13.9282 10.5104 14.5988 10.6838 15.9766C10.6027 17.0471 10.0428 17.7112 9.00412 17.9688C7.70517 18.0753 6.91744 17.4958 6.64084 16.2305C6.59427 15.0084 7.16068 14.2531 8.34006 13.9649ZM8.49631 15.3321C9.1833 15.3653 9.41115 15.7039 9.1799 16.3477C8.80353 16.7207 8.43896 16.7076 8.08615 16.3086C7.9222 15.8554 8.05892 15.5299 8.49631 15.3321Z" fill="white"/>
<path opacity="0.966" fill-rule="evenodd" clip-rule="evenodd" d="M14.3555 13.9649C15.5789 13.9066 16.3406 14.4665 16.6406 15.6446C16.737 16.8886 16.1836 17.6634 14.9805 17.9688C13.7546 18.0705 12.9798 17.5301 12.6563 16.3477C12.554 15.0657 13.1204 14.2714 14.3555 13.9649ZM14.5117 15.3321C15.0514 15.3183 15.3053 15.5787 15.2735 16.1133C15.0673 16.6166 14.7222 16.7403 14.2383 16.4844C13.9404 16.171 13.9274 15.8455 14.1992 15.5078C14.3008 15.4377 14.4049 15.3791 14.5117 15.3321Z" fill="white"/>
</svg>
