<svg width="16" height="16" viewBox="0 0 16 16" fill="none" xmlns="http://www.w3.org/2000/svg">
<g clip-path="url(#clip0_2_1433)">
<path opacity="0.981" fill-rule="evenodd" clip-rule="evenodd" d="M15.2457 3.60389C15.5935 3.67596 15.6769 3.86582 15.4959 4.17349C11.284 6.28435 8.02286 9.40634 5.71252 13.5395C5.57709 13.6499 5.43213 13.6604 5.27763 13.571C3.83167 10.9533 2.3976 8.32746 0.975445 5.69348C0.939185 5.47705 1.02279 5.33497 1.22625 5.26725C2.24087 5.5045 3.25046 5.76155 4.25499 6.0384C4.34665 6.15018 4.42664 6.27068 4.49495 6.39987C4.88686 7.21515 5.29208 8.02446 5.71064 8.82784C6.87617 7.52723 8.23703 6.4667 9.79322 5.64624C11.5299 4.74933 13.3474 4.06855 15.2457 3.60389Z" fill="#37723B"/>
</g>
<defs>
<clipPath id="clip0_2_1433">
<rect width="15.6881" height="15.6881" fill="white"/>
</clipPath>
</defs>
</svg>
