<svg width="21" height="20" viewBox="0 0 21 20" fill="none" xmlns="http://www.w3.org/2000/svg">
<path d="M16.2901 3.90007H14.5629V3.21016C14.5629 2.98695 14.2901 2.8855 14.0401 2.8855H12.6993C12.3811 2.07384 11.5856 1.668 10.6765 1.668C9.77745 1.63782 8.95966 2.13004 8.65381 2.8855H7.33563C7.08563 2.8855 6.83563 2.98695 6.83563 3.21016V3.90007H5.10832C4.08473 3.90982 3.24733 4.63076 3.19922 5.54368V17.1708C3.19922 18.0636 4.10831 18.713 5.10832 18.713H16.2901C17.2901 18.713 18.1992 18.0636 18.1992 17.1708V5.54372C18.1511 4.63076 17.3137 3.90982 16.2901 3.90007ZM7.74467 3.69717H8.99468C9.21289 3.6734 9.38815 3.52519 9.42652 3.33193C9.56111 2.8086 10.0753 2.43295 10.6765 2.41881C11.2722 2.43493 11.7786 2.81175 11.9038 3.33193C11.9446 3.53187 12.1314 3.68199 12.3583 3.69717H13.6538V5.32051H7.74467V3.69717ZM17.2901 17.1708C17.2901 17.6173 16.7901 17.9013 16.2901 17.9013H5.10832C4.60831 17.9013 4.10831 17.6173 4.10831 17.1708V5.54372C4.15468 5.07904 4.58587 4.72028 5.10832 4.71178H6.83558V5.74666C6.85959 5.97402 7.08015 6.1441 7.33559 6.13222H14.0401C14.3002 6.14492 14.5277 5.97717 14.5628 5.74666V4.71174H16.2901C16.8125 4.72028 17.2437 5.07901 17.2901 5.54368V17.1708H17.2901Z" fill="#9098B1" stroke="#9098B1" stroke-width="0.5"/>
<path d="M8.94955 10.7384C8.77907 10.578 8.49605 10.5689 8.31317 10.7181L6.85861 11.9559L6.24498 11.3877C6.0745 11.2273 5.79148 11.2183 5.6086 11.3674C5.43255 11.5321 5.43255 11.7912 5.6086 11.9559L6.5404 12.8082C6.62105 12.8888 6.73755 12.9334 6.85857 12.9299C6.97846 12.9284 7.09282 12.8846 7.17674 12.8082L8.94946 11.3066C9.12521 11.1626 9.13695 10.9187 8.9757 10.7619C8.96743 10.7537 8.95869 10.7459 8.94955 10.7384Z" fill="#9098B1" stroke="#9098B1" stroke-width="0.5"/>
<path d="M15.4718 11.6109H10.2446C9.99354 11.6109 9.79004 11.7926 9.79004 12.0167C9.79004 12.2409 9.99354 12.4226 10.2446 12.4226H15.4718C15.7229 12.4226 15.9264 12.2409 15.9264 12.0167C15.9264 11.7926 15.7229 11.6109 15.4718 11.6109Z" fill="#9098B1" stroke="#9098B1" stroke-width="0.5"/>
<path d="M8.94955 7.49176C8.77907 7.33131 8.49605 7.32226 8.31317 7.47148L6.85861 8.70926L6.24498 8.14108C6.0745 7.98063 5.79148 7.97158 5.6086 8.1208C5.43255 8.28548 5.43255 8.54458 5.6086 8.70926L6.5404 9.56152C6.62105 9.64215 6.73755 9.68674 6.85857 9.68328C6.97846 9.68177 7.09282 9.63799 7.17674 9.56152L8.94946 8.05994C9.12521 7.916 9.13695 7.67209 8.9757 7.51522C8.96743 7.50702 8.95869 7.49921 8.94955 7.49176Z" fill="#9098B1" stroke="#9098B1" stroke-width="0.5"/>
<path d="M15.4718 8.36426H10.2446C9.99354 8.36426 9.79004 8.54595 9.79004 8.77009C9.79004 8.99424 9.99354 9.17593 10.2446 9.17593H15.4718C15.7229 9.17593 15.9264 8.99424 15.9264 8.77009C15.9264 8.54595 15.7229 8.36426 15.4718 8.36426Z" fill="#9098B1" stroke="#9098B1" stroke-width="0.5"/>
<path d="M8.94955 13.985C8.77907 13.8246 8.49605 13.8156 8.31317 13.9648L6.85861 15.2025L6.24498 14.6343C6.0745 14.4739 5.79148 14.4649 5.6086 14.6141C5.43255 14.7788 5.43255 15.0379 5.6086 15.2025L6.5404 16.0548C6.62105 16.1354 6.73755 16.18 6.85857 16.1766C6.97846 16.175 7.09282 16.1313 7.17674 16.0548L8.94946 14.5532C9.12521 14.4093 9.13695 14.1654 8.9757 14.0085C8.96743 14.0003 8.95869 13.9925 8.94955 13.985Z" fill="#9098B1" stroke="#9098B1" stroke-width="0.5"/>
<path d="M15.4718 14.8576H10.2446C9.99354 14.8576 9.79004 15.0393 9.79004 15.2634C9.79004 15.4876 9.99354 15.6693 10.2446 15.6693H15.4718C15.7229 15.6693 15.9264 15.4876 15.9264 15.2634C15.9264 15.0393 15.7229 14.8576 15.4718 14.8576Z" fill="#9098B1" stroke="#9098B1" stroke-width="0.5"/>
</svg>
