<svg width="28" height="28" viewBox="0 0 28 28" fill="none" xmlns="http://www.w3.org/2000/svg">
<g clip-path="url(#clip0_125_113)">
<path opacity="0.973" fill-rule="evenodd" clip-rule="evenodd" d="M11.0195 -0.0273438C12.5873 -0.0273438 14.1549 -0.0273438 15.7227 -0.0273438C17.4782 0.0699836 19.2282 0.279619 20.9727 0.601562C23.1524 1.268 24.7475 2.62607 25.7578 4.67578C25.9473 5.09834 26.0931 5.53585 26.1953 5.98828C26.6068 8.43155 26.8165 10.8925 26.8242 13.3711C26.7987 14.7685 26.7258 16.163 26.6055 17.5547C26.9723 18.0965 27.2913 18.6707 27.5625 19.2773C27.7434 19.7648 27.8801 20.257 27.9727 20.7539C27.9727 21.319 27.9727 21.8841 27.9727 22.4492C27.3711 25.5299 25.5299 27.3711 22.4492 27.9727C21.9023 27.9727 21.3555 27.9727 20.8086 27.9727C20.03 27.8438 19.2826 27.5977 18.5664 27.2344C18.2395 27.0029 17.9023 26.7932 17.5547 26.6055C13.683 26.9509 9.82751 26.8142 5.98828 26.1953C3.59389 25.5329 1.88947 24.0655 0.875 21.793C0.660915 21.2648 0.515081 20.7179 0.4375 20.1523C0.224033 18.6735 0.0690851 17.197 -0.0273438 15.7227C-0.0273438 14.1549 -0.0273438 12.5873 -0.0273438 11.0195C0.0667155 9.18761 0.29458 7.36466 0.65625 5.55078C1.81791 2.4389 4.05098 0.698015 7.35547 0.328125C8.58216 0.177714 9.8035 0.0592249 11.0195 -0.0273438ZM13.207 2.05078C15.65 2.05009 18.0744 2.25973 20.4805 2.67969C22.3454 3.32323 23.5576 4.59015 24.1172 6.48047C24.6355 9.63659 24.7813 12.8085 24.5547 15.9961C23.1011 15.2541 21.579 15.081 19.9883 15.4766C17.3171 16.3066 15.7585 18.1022 15.3125 20.8633C15.1741 22.1647 15.3838 23.4042 15.9414 24.582C12.8655 24.768 9.80301 24.6313 6.75391 24.1719C4.73157 23.6755 3.3735 22.4451 2.67969 20.4805C2.38139 18.8713 2.1991 17.249 2.13281 15.6133C1.9668 12.4745 2.14909 9.3573 2.67969 6.26172C3.26353 4.54767 4.40285 3.37189 6.09766 2.73438C7.01657 2.52237 7.94626 2.37653 8.88672 2.29688C10.3326 2.16194 11.7727 2.07991 13.207 2.05078ZM21.0273 17.418C23.1132 17.2738 24.6171 18.1306 25.5391 19.9883C26.228 22.0002 25.7631 23.6864 24.1445 25.0469C22.2965 26.213 20.51 26.1219 18.7852 24.7734C17.3313 23.2784 17.0305 21.5739 17.8828 19.6602C18.5903 18.4329 19.6385 17.6854 21.0273 17.418Z" fill="#535050"/>
<path opacity="0.97" fill-rule="evenodd" clip-rule="evenodd" d="M6.48047 6.91798C11.056 6.90884 15.6315 6.91798 20.207 6.94532C20.7849 7.04928 21.0947 7.39567 21.1367 7.98438C21.1107 8.50216 20.8555 8.84855 20.3711 9.02345C15.7044 9.05992 11.0377 9.05992 6.37109 9.02345C5.8852 8.86354 5.62997 8.52628 5.60547 8.01173C5.63834 7.4327 5.92998 7.06809 6.48047 6.91798Z" fill="#535050"/>
<path opacity="0.968" fill-rule="evenodd" clip-rule="evenodd" d="M6.37091 13.4258C9.21471 13.4167 12.0585 13.4258 14.9022 13.4531C15.5238 13.6841 15.7699 14.1308 15.6404 14.793C15.4939 15.1947 15.2114 15.4407 14.7928 15.5313C12.0219 15.5677 9.25113 15.5677 6.48028 15.5313C5.73527 15.2901 5.47091 14.7888 5.68731 14.0274C5.83541 13.7309 6.06329 13.5304 6.37091 13.4258Z" fill="#535050"/>
<path opacity="0.959" fill-rule="evenodd" clip-rule="evenodd" d="M21.5742 18.293C22.1956 18.3402 22.5693 18.6683 22.6953 19.2773C22.7318 19.9154 22.7318 20.5534 22.6953 21.1914C22.5159 22.0152 22.0146 22.316 21.1914 22.0937C20.9053 21.9717 20.7139 21.7621 20.6172 21.4648C20.608 21.0638 20.599 20.6627 20.5898 20.2617C20.5832 19.802 20.6106 19.3463 20.6719 18.8945C20.8742 18.5344 21.1749 18.3339 21.5742 18.293Z" fill="#535050"/>
<path opacity="0.945" fill-rule="evenodd" clip-rule="evenodd" d="M21.1912 22.7773C21.5016 22.7682 21.8115 22.7774 22.1209 22.8047C22.5093 22.8651 22.7007 23.093 22.6951 23.4883C22.749 23.8812 22.7126 24.264 22.5857 24.6367C22.5219 24.7005 22.4581 24.7643 22.3943 24.8281C21.885 25.0093 21.3746 25.0093 20.863 24.8281C20.7992 24.7643 20.7355 24.7005 20.6716 24.6367C20.5182 24.1692 20.4999 23.6953 20.6169 23.2148C20.7179 22.9419 20.9093 22.7961 21.1912 22.7773Z" fill="#535050"/>
</g>
<defs>
<clipPath id="clip0_125_113">
<rect width="28" height="28" fill="white"/>
</clipPath>
</defs>
</svg>
