<svg width="20" height="20" viewBox="0 0 20 20" fill="none" xmlns="http://www.w3.org/2000/svg">
<path d="M17.6012 8.93872L16.7282 7.89551C16.4721 7.59027 16.3188 7.21193 16.2904 6.81447L16.1931 5.46316C16.166 5.05372 15.9929 4.66758 15.7053 4.37496C15.4176 4.08234 15.0345 3.90267 14.6256 3.86861L13.4608 3.77402C12.9424 3.72802 12.4516 3.51999 12.0581 3.17945L11.1743 2.42271C10.8648 2.15342 10.4692 2.00353 10.0589 2.00006C9.64867 1.99659 9.25063 2.13977 8.93657 2.4038L7.97714 3.21458C7.62031 3.51672 7.17612 3.69667 6.70962 3.72808L5.46101 3.81726C5.05138 3.84378 4.66494 4.0167 4.37221 4.30447C4.07948 4.59223 3.89998 4.97566 3.86647 5.38478L3.77458 6.51447C3.72782 7.03691 3.51792 7.5314 3.1746 7.92794L2.42327 8.809C2.15366 9.11787 2.00353 9.51305 2.00006 9.92302C1.99659 10.333 2.14001 10.7307 2.40435 11.0441L3.23405 12.0332C3.51011 12.3749 3.67178 12.7946 3.6962 13.2332L3.78809 14.5196C3.81515 14.9291 3.98825 15.3152 4.27591 15.6078C4.56357 15.9004 4.94669 16.0801 5.35561 16.1142L6.52314 16.2169C7.0404 16.2609 7.53002 16.4692 7.92039 16.8114L8.80685 17.579C9.11689 17.8473 9.51227 17.9965 9.92225 17.9999C10.3322 18.0034 10.7301 17.8609 11.0446 17.5979L12.0635 16.7466C12.3835 16.4789 12.7798 16.3191 13.1959 16.2898L14.5202 16.1952C14.9296 16.1682 15.3158 15.9951 15.6084 15.7074C15.901 15.4198 16.0807 15.0366 16.1147 14.6277L16.212 13.5467C16.2634 12.9744 16.4931 12.4328 16.8687 11.9981L17.5822 11.1873C17.8555 10.8775 18.0078 10.4796 18.0113 10.0665C18.0148 9.6535 17.8691 9.25306 17.6012 8.93872ZM5.56911 8.06307C5.56751 7.68036 5.67944 7.30576 5.89073 6.98665C6.10203 6.66755 6.4032 6.41826 6.75617 6.27032C7.10914 6.12238 7.49806 6.08244 7.87373 6.15553C8.24941 6.22862 8.59497 6.41147 8.86673 6.68096C9.13848 6.95045 9.32422 7.29447 9.40046 7.66952C9.4767 8.04457 9.44001 8.4338 9.29503 8.788C9.15006 9.1422 8.90331 9.44545 8.58598 9.65941C8.26866 9.87337 7.89501 9.98843 7.51229 9.99004C7.25853 9.99146 7.00697 9.94289 6.77198 9.84709C6.53699 9.75129 6.32317 9.61015 6.14273 9.43171C5.96229 9.25328 5.81876 9.04105 5.72034 8.80715C5.62191 8.57324 5.57053 8.32224 5.56911 8.06848V8.06307ZM8.36902 13.7737C8.35709 13.7947 8.34031 13.8125 8.32009 13.8256C8.29988 13.8388 8.27681 13.8469 8.25281 13.8494H7.68796C7.66163 13.8491 7.6358 13.842 7.61305 13.8288C7.5903 13.8155 7.57141 13.7965 7.55824 13.7737C7.54511 13.7521 7.53817 13.7273 7.53817 13.7021C7.53817 13.6768 7.54511 13.652 7.55824 13.6305L11.6122 6.20638C11.6254 6.18626 11.643 6.1693 11.6635 6.15669C11.6841 6.14408 11.7071 6.13614 11.7311 6.13341H12.3338C12.3691 6.15036 12.3964 6.18062 12.4095 6.21758C12.4227 6.25453 12.4207 6.29519 12.404 6.3307L8.36902 13.7737ZM14.4229 11.9251C14.4234 12.3084 14.3103 12.6832 14.0978 13.0021C13.8853 13.3211 13.583 13.5699 13.2292 13.717C12.8753 13.8642 12.4857 13.9031 12.1097 13.8289C11.7337 13.7546 11.3882 13.5706 11.1168 13.2999C10.8454 13.0293 10.6604 12.6843 10.5851 12.3085C10.5098 11.9327 10.5476 11.543 10.6938 11.1888C10.84 10.8345 11.0879 10.5315 11.4063 10.3181C11.7247 10.1047 12.0991 9.99057 12.4824 9.99004C12.9954 9.9929 13.4863 10.1991 13.8475 10.5633C14.2088 10.9276 14.4108 11.4202 14.4094 11.9332L14.4229 11.9251Z" fill="black"/>
</svg>
