<svg width="20" height="20" viewBox="0 0 20 20" fill="none" xmlns="http://www.w3.org/2000/svg">
<path d="M4.16683 18.3333H15.8335C16.0545 18.3333 16.2665 18.2455 16.4228 18.0892C16.579 17.9329 16.6668 17.721 16.6668 17.5V5.34496C16.6668 5.12396 16.579 4.91204 16.4227 4.75579L13.5777 1.91079C13.4214 1.7545 13.2095 1.66667 12.9885 1.66663H4.16683C3.94582 1.66663 3.73385 1.75442 3.57757 1.9107C3.42129 2.06698 3.3335 2.27895 3.3335 2.49996V17.5C3.3335 17.721 3.42129 17.9329 3.57757 18.0892C3.73385 18.2455 3.94582 18.3333 4.16683 18.3333ZM7.32766 8.50579C7.17586 8.34862 7.09187 8.13812 7.09377 7.91963C7.09567 7.70113 7.18331 7.49212 7.33781 7.33761C7.49232 7.1831 7.70133 7.09546 7.91983 7.09356C8.13833 7.09167 8.34883 7.17566 8.506 7.32746L10.0002 8.82163L11.4943 7.32746C11.6515 7.17566 11.862 7.09167 12.0805 7.09356C12.299 7.09546 12.508 7.1831 12.6625 7.33761C12.817 7.49212 12.9047 7.70113 12.9066 7.91963C12.9085 8.13812 12.8245 8.34862 12.6727 8.50579L11.1785 9.99996L12.6727 11.4941C12.7523 11.571 12.8157 11.663 12.8594 11.7646C12.9031 11.8663 12.9261 11.9756 12.927 12.0863C12.928 12.1969 12.9069 12.3067 12.865 12.4091C12.8231 12.5115 12.7612 12.6045 12.683 12.6828C12.6047 12.761 12.5117 12.8229 12.4093 12.8648C12.3069 12.9067 12.1971 12.9278 12.0865 12.9268C11.9758 12.9259 11.8665 12.9029 11.7648 12.8592C11.6632 12.8155 11.5712 12.7521 11.4943 12.6725L10.0002 11.1783L8.506 12.6725C8.34883 12.8243 8.13833 12.9083 7.91983 12.9064C7.70133 12.9045 7.49232 12.8168 7.33781 12.6623C7.18331 12.5078 7.09567 12.2988 7.09377 12.0803C7.09187 11.8618 7.17586 11.6513 7.32766 11.4941L8.82183 9.99996L7.32766 8.50579Z" fill="#D8333E"/>
</svg>
