<svg width="11" height="11" viewBox="0 0 11 11" fill="none" xmlns="http://www.w3.org/2000/svg">
<g clip-path="url(#clip0_2_1436)">
<path d="M1.06145 1.70795C1.0849 1.70776 1.0849 1.70776 1.10883 1.70757C1.16125 1.70725 1.21365 1.70755 1.26607 1.70785C1.30402 1.70775 1.34196 1.70761 1.37991 1.70744C1.48422 1.70708 1.58851 1.70726 1.69281 1.70753C1.80529 1.70772 1.91777 1.70742 2.03024 1.70718C2.25059 1.7068 2.47094 1.70688 2.69129 1.70713C2.87034 1.70733 3.04939 1.70735 3.22845 1.70726C3.25391 1.70725 3.27938 1.70723 3.30562 1.70722C3.35735 1.70719 3.40908 1.70716 3.46081 1.70714C3.94609 1.70689 4.43137 1.70717 4.91666 1.70763C5.33322 1.70802 5.74979 1.70795 6.16635 1.70756C6.64988 1.7071 7.1334 1.70691 7.61693 1.70718C7.66847 1.70721 7.72001 1.70723 7.77155 1.70726C7.80959 1.70728 7.80959 1.70728 7.8484 1.7073C8.02728 1.70737 8.20616 1.70725 8.38503 1.70705C8.60297 1.70681 8.8209 1.70687 9.03884 1.70733C9.15007 1.70755 9.2613 1.70764 9.37253 1.70736C9.47431 1.7071 9.57608 1.70724 9.67786 1.7077C9.71472 1.7078 9.75159 1.70775 9.78846 1.70754C9.8385 1.70728 9.88851 1.70755 9.93855 1.70795C9.96636 1.70796 9.99418 1.70797 10.0228 1.70799C10.1354 1.72419 10.2007 1.77744 10.2776 1.85841C10.3291 1.96937 10.3287 2.07111 10.3125 2.19142C10.263 2.29809 10.1999 2.3502 10.0977 2.40626C10.0336 2.41738 9.97131 2.41632 9.90648 2.41465C9.88854 2.41453 9.8706 2.41441 9.85212 2.41428C9.7952 2.4138 9.73831 2.41273 9.6814 2.41163C9.64265 2.4112 9.60391 2.41081 9.56516 2.41046C9.47051 2.40951 9.37589 2.40803 9.28125 2.40626C9.28128 2.42152 9.28132 2.43678 9.28135 2.4525C9.28327 3.35743 9.28475 4.26236 9.28564 5.1673C9.28575 5.27602 9.28586 5.38474 9.28597 5.49346C9.28599 5.5151 9.28602 5.53675 9.28604 5.55905C9.28641 5.90924 9.28709 6.25943 9.28788 6.60962C9.28868 6.9691 9.28916 7.32858 9.28934 7.68806C9.28945 7.90978 9.28983 8.13149 9.29052 8.35321C9.29098 8.50536 9.29112 8.65752 9.291 8.80967C9.29095 8.89739 9.29103 8.98509 9.29149 9.07281C9.29191 9.15328 9.29193 9.23373 9.29164 9.3142C9.29159 9.35676 9.29195 9.39931 9.29234 9.44186C9.29012 9.77754 9.1762 10.0713 8.9469 10.3179C8.69453 10.5561 8.39981 10.6667 8.05436 10.6646C8.03155 10.6647 8.00873 10.6648 7.98523 10.6649C7.90942 10.6652 7.83361 10.6651 7.7578 10.6649C7.70319 10.6651 7.64857 10.6652 7.59396 10.6654C7.46139 10.6657 7.32882 10.6658 7.19625 10.6657C7.08842 10.6656 6.98058 10.6656 6.87275 10.6657C6.85736 10.6657 6.84197 10.6658 6.82611 10.6658C6.79484 10.6658 6.76357 10.6658 6.73229 10.6659C6.4395 10.6662 6.14671 10.666 5.85392 10.6658C5.58654 10.6656 5.31917 10.6659 5.0518 10.6664C4.7767 10.6669 4.5016 10.6671 4.2265 10.667C4.07228 10.6669 3.91805 10.6669 3.76383 10.6673C3.61877 10.6677 3.47371 10.6676 3.32865 10.6672C3.27555 10.6671 3.22246 10.6671 3.16936 10.6674C2.73823 10.6691 2.38808 10.6296 2.05713 10.3219C1.79595 10.0452 1.70845 9.73884 1.711 9.36388C1.71097 9.33372 1.71091 9.30356 1.71083 9.2734C1.71069 9.19114 1.71094 9.10888 1.71127 9.02662C1.71155 8.93769 1.71145 8.84875 1.7114 8.75981C1.71137 8.60592 1.71157 8.45204 1.71194 8.29815C1.71246 8.07566 1.71263 7.85317 1.71271 7.63067C1.71285 7.26965 1.71328 6.90863 1.71389 6.54761C1.71448 6.19701 1.71494 5.84642 1.71521 5.49582C1.71523 5.47419 1.71524 5.45256 1.71526 5.43028C1.71534 5.32177 1.71543 5.21326 1.71551 5.10475C1.71617 4.20525 1.71731 3.30576 1.71875 2.40626C1.69469 2.40671 1.67064 2.40716 1.64585 2.40762C1.55625 2.40918 1.46664 2.41017 1.37702 2.41098C1.33831 2.41141 1.29959 2.412 1.26087 2.41274C1.20509 2.41379 1.14932 2.41427 1.09352 2.41465C1.06773 2.41532 1.06773 2.41532 1.04142 2.416C0.927284 2.41604 0.86444 2.39516 0.773438 2.32032C0.695485 2.23827 0.68084 2.17245 0.676758 2.06251C0.68084 1.95257 0.695485 1.88675 0.773438 1.8047C0.87207 1.72666 0.936329 1.70801 1.06145 1.70795ZM2.40625 2.40626C2.405 3.64967 2.405 3.64967 2.40415 4.89308C2.40407 5.06073 2.40398 5.22838 2.40389 5.39603C2.40388 5.41704 2.40387 5.43805 2.40386 5.4597C2.40367 5.79883 2.40333 6.13796 2.40293 6.47709C2.40253 6.82519 2.40229 7.17328 2.40221 7.52137C2.40215 7.73613 2.40196 7.95089 2.40161 8.16564C2.40139 8.31295 2.40132 8.46026 2.40137 8.60756C2.4014 8.69253 2.40136 8.77749 2.40113 8.86245C2.40092 8.94033 2.40091 9.0182 2.40106 9.09608C2.40108 9.1374 2.4009 9.17872 2.4007 9.22004C2.40153 9.51791 2.40153 9.51791 2.53516 9.7754C2.71378 9.95233 2.88832 9.97205 3.13183 9.97163C3.15286 9.97168 3.17389 9.97173 3.19555 9.97178C3.26596 9.97192 3.33636 9.9719 3.40677 9.97188C3.45727 9.97194 3.50778 9.97202 3.55828 9.9721C3.69545 9.97229 3.83261 9.97234 3.96977 9.97235C4.06986 9.97237 4.16995 9.97243 4.27003 9.9725C4.53924 9.97268 4.80846 9.97276 5.07767 9.97274C5.10059 9.97274 5.10059 9.97274 5.12397 9.97274C5.13926 9.97274 5.15456 9.97274 5.17032 9.97274C5.41817 9.97273 5.66602 9.97293 5.91387 9.97324C6.16857 9.97355 6.42327 9.97369 6.67797 9.97368C6.82088 9.97367 6.96379 9.97373 7.1067 9.97396C7.24113 9.97417 7.37555 9.97417 7.50998 9.97401C7.55927 9.97399 7.60856 9.97404 7.65784 9.97417C7.72523 9.97434 7.7926 9.97424 7.85999 9.97407C7.8794 9.97418 7.89881 9.97429 7.91881 9.97441C8.11687 9.97333 8.29008 9.95096 8.43539 9.80461C8.61103 9.60992 8.59692 9.3969 8.59633 9.14685C8.59634 9.11775 8.59636 9.08864 8.59639 9.05953C8.59644 8.97977 8.59635 8.90001 8.59624 8.82025C8.59615 8.73415 8.59618 8.64805 8.5962 8.56196C8.59621 8.41286 8.59614 8.26377 8.59602 8.11468C8.59585 7.89911 8.59579 7.68355 8.59576 7.46798C8.59572 7.11823 8.59557 6.76848 8.59537 6.41873C8.59517 6.07901 8.59502 5.73929 8.59493 5.39957C8.59492 5.37841 8.59492 5.35725 8.59491 5.33545C8.59487 5.16997 8.59483 5.00449 8.59478 4.83901C8.59458 4.0281 8.59415 3.21718 8.59375 2.40626C6.55188 2.40626 4.51 2.40626 2.40625 2.40626Z" fill="#37723B"/>
<path d="M6.76768 3.7812C6.8737 3.83042 6.92566 3.89494 6.98253 3.99605C7.01165 4.07882 7.00713 4.16438 7.00703 4.25102C7.00709 4.26817 7.00716 4.28532 7.00722 4.30299C7.00741 4.36051 7.00744 4.41804 7.00747 4.47556C7.00757 4.51678 7.00768 4.558 7.0078 4.59922C7.00808 4.71127 7.00822 4.82331 7.00831 4.93535C7.00838 5.00535 7.00846 5.07536 7.00856 5.14537C7.00885 5.36442 7.00906 5.58348 7.00915 5.80253C7.00924 6.05536 7.00962 6.30818 7.01024 6.56101C7.01071 6.75646 7.01092 6.95191 7.01095 7.14736C7.01097 7.26409 7.0111 7.38081 7.01148 7.49753C7.01184 7.60735 7.01188 7.71718 7.0117 7.827C7.01168 7.86726 7.01177 7.90751 7.01199 7.94777C7.01226 8.00284 7.01213 8.0579 7.01191 8.11297C7.01208 8.12879 7.01225 8.14462 7.01243 8.16092C7.0113 8.28106 6.9928 8.40728 6.90837 8.4985C6.79519 8.59469 6.71894 8.60122 6.57399 8.59966C6.48753 8.59163 6.4437 8.56736 6.38097 8.50776C6.29841 8.40588 6.28264 8.32543 6.28412 8.19784C6.28398 8.17992 6.28385 8.162 6.28371 8.14354C6.28337 8.08367 6.28364 8.02382 6.28391 7.96394C6.28379 7.92095 6.28364 7.87796 6.28345 7.83497C6.28306 7.71832 6.28321 7.60167 6.28348 7.48502C6.2837 7.36293 6.2835 7.24084 6.28337 7.11875C6.28321 6.91372 6.28342 6.7087 6.28382 6.50368C6.28429 6.26665 6.28414 6.02963 6.28367 5.7926C6.28328 5.58908 6.28322 5.38557 6.28345 5.18205C6.28358 5.06051 6.2836 4.93896 6.28332 4.81741C6.28307 4.70314 6.28324 4.58888 6.28374 4.47461C6.28385 4.43267 6.28382 4.39073 6.28363 4.3488C6.28339 4.29155 6.28369 4.23432 6.28412 4.17707C6.28392 4.16048 6.28373 4.14389 6.28353 4.1268C6.28515 4.01552 6.31128 3.95314 6.38097 3.86714C6.49422 3.75955 6.61962 3.76127 6.76768 3.7812Z" fill="#37723B"/>
<path d="M4.48987 3.78122C4.59663 3.83079 4.6481 3.89409 4.70471 3.99606C4.71284 4.05919 4.71635 4.11412 4.71562 4.17708C4.71576 4.195 4.71589 4.21292 4.71603 4.23138C4.71637 4.29125 4.7161 4.35111 4.71583 4.41098C4.71595 4.45397 4.7161 4.49696 4.71629 4.53995C4.71668 4.6566 4.71652 4.77325 4.71625 4.8899C4.71603 5.01199 4.71624 5.13408 4.71637 5.25617C4.71653 5.4612 4.71632 5.66622 4.71591 5.87124C4.71544 6.10827 4.7156 6.34529 4.71607 6.58232C4.71646 6.78584 4.71651 6.98935 4.71629 7.19287C4.71616 7.31441 4.71614 7.43596 4.71642 7.55751C4.71667 7.67178 4.7165 7.78604 4.716 7.90031C4.71589 7.94225 4.71592 7.98419 4.71611 8.02612C4.71634 8.08337 4.71605 8.1406 4.71562 8.19785C4.71581 8.21444 4.716 8.23103 4.7162 8.24812C4.71459 8.3594 4.68846 8.42178 4.61877 8.50778C4.53672 8.58573 4.4709 8.60038 4.36096 8.60446C4.25102 8.60038 4.1852 8.58573 4.10315 8.50778C4.00328 8.37822 3.99252 8.2836 3.99271 8.1239C3.99264 8.10675 3.99258 8.0896 3.99251 8.07193C3.99233 8.01441 3.99229 7.95688 3.99226 7.89936C3.99216 7.85814 3.99206 7.81692 3.99194 7.7757C3.99166 7.66366 3.99152 7.55161 3.99142 7.43957C3.99136 7.36957 3.99127 7.29956 3.99118 7.22955C3.99088 7.0105 3.99067 6.79144 3.99059 6.57239C3.9905 6.31956 3.99012 6.06674 3.9895 5.81391C3.98903 5.61846 3.98882 5.42301 3.98879 5.22756C3.98876 5.11083 3.98864 4.99411 3.98825 4.87739C3.9879 4.76757 3.98785 4.65774 3.98804 4.54792C3.98806 4.50766 3.98796 4.46741 3.98775 4.42715C3.98748 4.37208 3.98761 4.31703 3.98783 4.26195C3.98766 4.24613 3.98748 4.2303 3.9873 4.214C3.98844 4.09386 4.00694 3.96764 4.09137 3.87642C4.21905 3.76791 4.32665 3.76605 4.48987 3.78122Z" fill="#37723B"/>
<path d="M4.28479 0.332571C4.31423 0.332455 4.34368 0.332302 4.37312 0.332115C4.45284 0.331724 4.53256 0.331875 4.61228 0.332148C4.69584 0.332366 4.77939 0.332163 4.86294 0.332028C5.00323 0.331872 5.14352 0.332078 5.28381 0.332487C5.44586 0.332955 5.6079 0.332804 5.76995 0.33233C5.90924 0.33194 6.04853 0.331886 6.18782 0.33211C6.27094 0.332244 6.35406 0.332263 6.43718 0.331978C6.51534 0.331729 6.59349 0.331903 6.67165 0.332399C6.71391 0.332566 6.75616 0.332312 6.79842 0.332044C7.02914 0.334254 7.02914 0.334254 7.13281 0.429629C7.21077 0.511684 7.22541 0.577501 7.22949 0.687441C7.22541 0.797381 7.21077 0.863198 7.13281 0.945254C7.00921 1.05896 6.87643 1.04333 6.71521 1.04231C6.68577 1.04243 6.65632 1.04258 6.62688 1.04277C6.54716 1.04316 6.46744 1.04301 6.38772 1.04273C6.30416 1.04252 6.22061 1.04272 6.13706 1.04285C5.99677 1.04301 5.85648 1.0428 5.71619 1.04239C5.55414 1.04193 5.3921 1.04208 5.23005 1.04255C5.09076 1.04294 4.95147 1.043 4.81218 1.04277C4.72906 1.04264 4.64594 1.04262 4.56282 1.0429C4.48466 1.04315 4.40651 1.04298 4.32835 1.04248C4.28609 1.04232 4.24384 1.04257 4.20158 1.04284C3.97086 1.04063 3.97086 1.04063 3.86719 0.945254C3.78923 0.863198 3.77459 0.797381 3.77051 0.687441C3.77459 0.577501 3.78923 0.511684 3.86719 0.429629C3.99079 0.315919 4.12357 0.33155 4.28479 0.332571Z" fill="#37723B"/>
</g>
<defs>
<clipPath id="clip0_2_1436">
<rect width="11" height="11" fill="white"/>
</clipPath>
</defs>
</svg>
