<svg width="13" height="12" viewBox="0 0 13 12" fill="none" xmlns="http://www.w3.org/2000/svg">
<path d="M7.09086 2.92026C7.09086 1.31016 5.76529 0 4.13625 0C2.50721 0 1.18164 1.31016 1.18164 2.92026C1.18164 4.53035 2.50721 5.84051 4.13625 5.84051C5.76529 5.84051 7.09086 4.53035 7.09086 2.92026Z" fill="white"/>
<path d="M0 9.92893V11.72H8.27291V9.92893C8.27291 7.67486 6.41705 5.84058 4.13646 5.84058C1.85587 5.84058 0 7.67486 0 9.92893Z" fill="white"/>
<path d="M12.9995 11.097C12.9995 9.48692 11.674 8.17676 10.0449 8.17676C9.73931 8.17676 9.45031 8.23608 9.17285 8.32155C9.34013 8.83138 9.454 9.36478 9.454 9.92891V11.72H12.9995V11.097Z" fill="white"/>
<path d="M12.4095 5.84048C12.4095 4.55207 11.3494 3.50427 10.0458 3.50427C8.74225 3.50427 7.68213 4.55207 7.68213 5.84048C7.68213 5.91485 7.69736 5.98512 7.70429 6.05767C8.28705 6.58271 8.75702 7.22349 9.05895 7.95645C9.36026 8.0944 9.6925 8.17668 10.0458 8.17668C11.3494 8.17668 12.4095 7.12889 12.4095 5.84048Z" fill="white"/>
</svg>
