<svg width="28" height="28" viewBox="0 0 28 28" fill="none" xmlns="http://www.w3.org/2000/svg">
<path d="M14.0002 19.8333C14.6445 19.8333 15.1668 19.311 15.1668 18.6667C15.1668 18.0223 14.6445 17.5 14.0002 17.5C13.3558 17.5 12.8335 18.0223 12.8335 18.6667C12.8335 19.311 13.3558 19.8333 14.0002 19.8333Z" fill="#535050"/>
<path d="M14 24.5C19.799 24.5 24.5 19.799 24.5 14C24.5 8.20101 19.799 3.5 14 3.5C8.20101 3.5 3.5 8.20101 3.5 14C3.5 19.799 8.20101 24.5 14 24.5Z" stroke="#535050" stroke-width="2.5" stroke-linejoin="round"/>
<path d="M14.0002 16.3333C14.0002 16.1388 14.0002 15.9444 14.0002 15.75C14.0002 15.75 14.0002 14 16.3335 12.8333C18.6668 11.6666 18.0835 8.16663 14.5835 8.16663C11.0835 8.16663 11.0835 11.0833 11.0835 11.0833V11.6666" stroke="#535050" stroke-width="2.5"/>
</svg>
