<svg width="32" height="32" viewBox="0 0 32 32" fill="none" xmlns="http://www.w3.org/2000/svg">
<path d="M16 32C24.8366 32 32 24.8366 32 16C32 7.16344 24.8366 0 16 0C7.16344 0 0 7.16344 0 16C0 24.8366 7.16344 32 16 32Z" fill="url(#paint0_linear_132_983)"/>
<path d="M21.9587 20.8933L22.6695 16.3773H18.2233V13.448C18.2233 12.2123 18.8433 11.007 20.8347 11.007H22.8574V7.16231C22.8574 7.16231 21.0225 6.85718 19.2691 6.85718C15.6057 6.85718 13.2136 9.02054 13.2136 12.9353V16.3773H9.14307V20.8933H13.2136V31.8109C14.0307 31.936 14.8667 32 15.7184 32C16.57 32 17.4062 31.936 18.2233 31.8109V20.8933H21.9587Z" fill="white"/>
<defs>
<linearGradient id="paint0_linear_132_983" x1="16" y1="0" x2="16" y2="31.9051" gradientUnits="userSpaceOnUse">
<stop stop-color="#18ACFE"/>
<stop offset="1" stop-color="#0163E0"/>
</linearGradient>
</defs>
</svg>
