<svg width="20" height="20" viewBox="0 0 20 20" fill="none" xmlns="http://www.w3.org/2000/svg">
<path opacity="0.981" fill-rule="evenodd" clip-rule="evenodd" d="M16.3867 1.62106C17.5935 1.58586 18.4593 2.10669 18.9844 3.18356C19.3957 4.46234 19.0637 5.4975 17.9883 6.28902C16.9562 6.83711 15.9666 6.77199 15.0195 6.09371C14.2489 5.3702 13.9819 4.49129 14.2187 3.45699C14.5783 2.41368 15.301 1.8017 16.3867 1.62106Z" fill="black"/>
<path opacity="0.987" fill-rule="evenodd" clip-rule="evenodd" d="M1.42593 3.30078C4.90253 3.29427 8.3791 3.30078 11.8556 3.32031C12.375 3.49277 12.5769 3.85084 12.4611 4.39453C12.3764 4.6875 12.1877 4.87629 11.8947 4.96094C8.39206 4.98699 4.88949 4.98699 1.38687 4.96094C0.929607 4.76945 0.740802 4.42441 0.820462 3.92578C0.925345 3.61913 1.12717 3.4108 1.42593 3.30078Z" fill="black"/>
<path opacity="0.98" fill-rule="evenodd" clip-rule="evenodd" d="M6.19125 7.48047C7.47915 7.35262 8.41012 7.86043 8.98422 9.00391C9.40286 10.2736 9.08387 11.3088 8.02719 12.1094C6.77864 12.7559 5.66536 12.5802 4.68735 11.582C4.51809 11.3604 4.38137 11.1195 4.27719 10.8594C3.35271 10.8464 2.42824 10.8333 1.50375 10.8203C0.857282 10.6145 0.655458 10.1913 0.898286 9.55078C1.03604 9.32219 1.23786 9.18547 1.50375 9.14062C2.42824 9.12762 3.35271 9.11457 4.27719 9.10156C4.64016 8.23082 5.27817 7.69047 6.19125 7.48047Z" fill="black"/>
<path opacity="0.965" fill-rule="evenodd" clip-rule="evenodd" d="M11.5038 9.1211C13.8215 9.11458 16.1392 9.1211 18.4569 9.14063C19.1034 9.34645 19.3052 9.76961 19.0624 10.4102C18.9246 10.6388 18.7228 10.7755 18.4569 10.8203C16.1392 10.8464 13.8215 10.8464 11.5038 10.8203C10.9599 10.6665 10.7321 10.3084 10.8202 9.7461C10.9319 9.40633 11.1598 9.19797 11.5038 9.1211Z" fill="black"/>
<path opacity="0.983" fill-rule="evenodd" clip-rule="evenodd" d="M12.9493 13.3008C14.2454 13.2184 15.1569 13.7653 15.6836 14.9414C16.6884 14.962 17.691 14.9946 18.6915 15.0391C19.113 15.3007 19.2497 15.6718 19.1016 16.1524C18.985 16.3993 18.7962 16.562 18.5352 16.6407C17.5847 16.6537 16.6342 16.6667 15.6836 16.6797C15.1191 17.9257 14.1555 18.4596 12.793 18.2813C11.7515 18.021 11.1004 17.3699 10.8399 16.3282C10.6544 15.0977 11.0971 14.1732 12.168 13.5547C12.4266 13.449 12.687 13.3643 12.9493 13.3008Z" fill="black"/>
<path opacity="0.985" fill-rule="evenodd" clip-rule="evenodd" d="M1.38673 14.9805C3.78259 14.974 6.17845 14.9805 8.57423 15C9.03149 15.1915 9.22028 15.5365 9.14063 16.0352C9.04298 16.3411 8.84114 16.543 8.53516 16.6406C6.16536 16.6667 3.79558 16.6667 1.42579 16.6406C0.887923 16.4307 0.699122 16.0466 0.859384 15.4883C0.966032 15.2437 1.14181 15.0744 1.38673 14.9805Z" fill="black"/>
</svg>
