<svg width="31" height="30" viewBox="0 0 31 30" fill="none" xmlns="http://www.w3.org/2000/svg">
<rect width="30.9231" height="30" rx="7" fill="white"/>
<path fill-rule="evenodd" clip-rule="evenodd" d="M13.9454 14.7795L13.9468 15.2381C13.9572 17.0571 14.0299 18.6801 14.1553 19.7086C14.1553 19.7271 14.2922 20.7472 14.3793 21.0866C14.5161 21.5775 14.7635 21.994 15.0737 22.258C15.322 22.4463 15.5824 22.5419 15.8552 22.5419C16.0695 22.5268 16.423 22.3643 16.6753 22.2279L16.885 22.1067C18.2737 21.275 20.9283 18.5572 21.945 16.8953L22.02 16.7791L22.3545 16.2347C22.5654 15.8181 22.6769 15.3088 22.6769 14.761C22.6769 14.2702 22.5776 13.7794 22.3789 13.3828C22.3195 13.2543 22.2236 13.0894 22.1384 12.9502L21.8127 12.4363C20.6922 10.7245 18.2662 8.32343 17.0087 7.52785C17.0087 7.51074 16.2272 7.01855 15.8552 7H15.8055C15.2348 7 14.7016 7.49076 14.4289 8.28398C14.3544 8.50083 14.283 8.92561 14.2287 9.29868L14.1309 10.0031C14.0194 11.1358 13.9454 12.8735 13.9454 14.7795ZM8.50659 12.8045C7.79349 12.8045 7.21533 13.6847 7.21533 14.7704C7.21533 15.856 7.79349 16.7363 8.50659 16.7363L11.6841 16.3126C12.2436 16.3126 12.6971 15.6235 12.6971 14.7704C12.6971 13.9186 12.2436 13.2281 11.6841 13.2281L8.50659 12.8045Z" fill="black"/>
</svg>
