<svg width="22" height="22" viewBox="0 0 22 22" fill="none" xmlns="http://www.w3.org/2000/svg">
<path d="M18.3042 3.53577C19.2048 3.53577 19.8803 3.75948 20.3306 4.20691C20.7572 4.6308 20.9817 5.25031 21.0041 6.06547L21.006 6.20314V15.5734C21.006 16.4568 20.7809 17.1207 20.3306 17.5653C19.904 17.9865 19.2753 18.2081 18.4445 18.2303L18.3042 18.2321H3.48743C2.58683 18.2321 1.91139 18.0099 1.46109 17.5653C1.03449 17.1441 0.809968 16.526 0.787516 15.711L0.785645 15.5734V6.20314C0.785645 5.31402 1.01079 4.64718 1.46109 4.20261C1.88769 3.78145 2.51636 3.55978 3.3471 3.53761L3.48743 3.53577H18.3042ZM2.17095 15.4959C2.17095 15.9434 2.28568 16.2804 2.51513 16.5069C2.72693 16.7161 3.02428 16.8287 3.40715 16.8448L3.50465 16.8468L10.371 16.8466V12.2865H10.3107C10.1673 12.7282 9.94219 13.1498 9.63529 13.5513C9.3284 13.9529 8.97849 14.3142 8.58556 14.6355C8.19262 14.9567 7.79394 15.2192 7.38955 15.4228C6.98514 15.6264 6.61945 15.7541 6.29248 15.8057C6.04582 15.8401 5.85222 15.7856 5.71168 15.6422C5.57114 15.4988 5.50087 15.3324 5.50087 15.1431C5.50087 14.9366 5.5611 14.7688 5.68156 14.6398C5.78697 14.5269 5.9297 14.4545 6.10976 14.4229L6.18922 14.4118C6.48751 14.3774 6.80587 14.2669 7.14432 14.0805C7.48275 13.8941 7.81116 13.6646 8.12952 13.3921C8.44788 13.1197 8.73183 12.8329 8.98137 12.5317C9.1997 12.2682 9.37082 12.0189 9.49473 11.784L9.54495 11.6842L2.17086 11.684L2.17095 15.4959ZM19.6204 11.684L12.2467 11.6842C12.3729 11.948 12.5608 12.2305 12.8103 12.5317C13.0599 12.8329 13.3438 13.1197 13.6622 13.3921C13.9805 13.6646 14.3075 13.8941 14.6431 14.0805C14.9414 14.2462 15.2249 14.3519 15.4937 14.3975L15.5939 14.4118C15.8176 14.4347 15.9897 14.5107 16.1101 14.6398C16.2305 14.7688 16.2907 14.9366 16.2907 15.1431C16.2907 15.3324 16.2205 15.4988 16.08 15.6422C15.9395 15.7856 15.7459 15.8401 15.4992 15.8057C15.1665 15.7541 14.7994 15.6264 14.3979 15.4228C13.9963 15.2192 13.5991 14.9567 13.2061 14.6355C12.8132 14.3142 12.4633 13.9529 12.1564 13.5513C11.8836 13.1944 11.6754 12.8216 11.5318 12.433L11.4809 12.2865H11.412V16.8466L18.2871 16.8468C18.7116 16.8468 19.0399 16.7335 19.2722 16.5069C19.4867 16.2978 19.6022 15.9945 19.6187 15.5972L19.6207 15.4959L19.6204 11.684ZM18.3834 4.92311L18.2871 4.92107L11.412 4.92098V7.8724C11.6014 7.50528 11.8323 7.18835 12.1048 6.92162C12.3772 6.65488 12.677 6.44981 13.0039 6.3064C13.3309 6.16299 13.6722 6.09129 14.0279 6.09129C14.6474 6.09129 15.1622 6.29636 15.5724 6.70651C15.9825 7.11665 16.1876 7.63722 16.1876 8.26821C16.1876 8.62959 16.1101 8.96659 15.9553 9.27923C15.8004 9.59185 15.5838 9.87149 15.3056 10.1182C15.0622 10.334 14.7847 10.5191 14.4732 10.6734L14.3376 10.7377H19.6204L19.6207 6.28058C19.6207 5.83315 19.5046 5.49471 19.2722 5.26527C19.0578 5.05346 18.7615 4.9394 18.3834 4.92311ZM10.371 4.92098L3.50465 4.92107C3.07443 4.92107 2.74459 5.0358 2.51513 5.26527C2.30333 5.47706 2.18928 5.78173 2.17299 6.17927L2.17095 6.28058L2.17086 10.7377H7.44546C7.08408 10.5713 6.76429 10.3648 6.48607 10.1182C6.20786 9.87149 5.98988 9.59185 5.83214 9.27923C5.67439 8.96659 5.59552 8.62959 5.59552 8.26821C5.59552 7.63722 5.80202 7.11665 6.21503 6.70651C6.62804 6.29636 7.14144 6.09129 7.75524 6.09129C8.11661 6.09129 8.46079 6.16299 8.78775 6.3064C9.11472 6.44981 9.41445 6.65488 9.68693 6.92162C9.92534 7.15501 10.1297 7.42683 10.3001 7.73709L10.371 7.8724V4.92098ZM7.82407 7.3131C7.51431 7.3131 7.26765 7.40632 7.08409 7.59276C6.90053 7.77919 6.80875 8.03589 6.80875 8.36286C6.80875 8.63246 6.89192 8.90063 7.05827 9.16736C7.22462 9.4341 7.45407 9.67503 7.74662 9.89014C8.03918 10.1052 8.37475 10.2788 8.75334 10.4107C9.08461 10.5261 9.43345 10.5911 9.79986 10.6055L9.95797 10.6086H10.2161V10.3677C10.2161 9.95467 10.153 9.5646 10.0268 9.19748C9.9006 8.83036 9.72565 8.50482 9.50193 8.22088C9.27822 7.93693 9.02295 7.71465 8.73614 7.55403C8.44933 7.39341 8.1453 7.3131 7.82407 7.3131ZM13.959 7.3131C13.6435 7.3131 13.3424 7.39341 13.0556 7.55403C12.7687 7.71465 12.5135 7.93693 12.2898 8.22088C12.0661 8.50482 11.8897 8.83036 11.7606 9.19748C11.6477 9.51871 11.5841 9.85751 11.57 10.2139L11.567 10.3677V10.6086H11.8251C12.2554 10.6086 12.6598 10.5426 13.0383 10.4107C13.4169 10.2788 13.7511 10.1052 14.0408 9.89014C14.3304 9.67503 14.5585 9.4341 14.7248 9.16736C14.8912 8.90063 14.9744 8.63246 14.9744 8.36286C14.9744 8.03589 14.884 7.77919 14.7033 7.59276C14.5226 7.40632 14.2745 7.3131 13.959 7.3131Z" fill="#747474"/>
</svg>
