<svg width="32" height="32" viewBox="0 0 32 32" fill="none" xmlns="http://www.w3.org/2000/svg">
<g clip-path="url(#clip0_132_974)">
<path d="M31.6183 16.2994C31.6183 14.9884 31.5119 14.0317 31.2817 13.0396H16.311V18.9569H25.0985C24.9214 20.4274 23.9647 22.642 21.8386 24.1301L21.8088 24.3282L26.5422 27.9952L26.8702 28.0279C29.882 25.2463 31.6183 21.1537 31.6183 16.2994Z" fill="#4285F4"/>
<path d="M16.3112 31.8901C20.6163 31.8901 24.2304 30.4727 26.8703 28.0279L21.8387 24.1301C20.4923 25.0691 18.6852 25.7246 16.3112 25.7246C12.0946 25.7246 8.51587 22.9432 7.24015 19.0986L7.05315 19.1145L2.13126 22.9236L2.06689 23.1025C4.68894 28.3112 10.0748 31.8901 16.3112 31.8901Z" fill="#34A853"/>
<path d="M7.24023 19.0987C6.90361 18.1066 6.70881 17.0435 6.70881 15.9451C6.70881 14.8466 6.90361 13.7837 7.22252 12.7915L7.2136 12.5803L2.23003 8.70996L2.06697 8.78752C0.986303 10.949 0.366211 13.3762 0.366211 15.9451C0.366211 18.5141 0.986303 20.9412 2.06697 23.1026L7.24023 19.0987Z" fill="#FBBC05"/>
<path d="M16.3112 6.16537C19.3052 6.16537 21.3249 7.45869 22.4765 8.53948L26.9766 4.14571C24.2128 1.57679 20.6163 0 16.3112 0C10.0748 0 4.68894 3.57875 2.06689 8.78742L7.22244 12.7915C8.51587 8.94693 12.0946 6.16537 16.3112 6.16537Z" fill="#EB4335"/>
</g>
<defs>
<clipPath id="clip0_132_974">
<rect width="32" height="32" fill="white"/>
</clipPath>
</defs>
</svg>
