<svg width="13" height="16" viewBox="0 0 13 16" fill="none" xmlns="http://www.w3.org/2000/svg">
<path opacity="0.988" fill-rule="evenodd" clip-rule="evenodd" d="M6.38379 0.306396C6.53251 0.307659 6.67638 0.336958 6.81543 0.394287C8.47559 1.27319 10.1357 2.1521 11.7959 3.03101C12.0496 3.21674 12.1714 3.47457 12.1611 3.80444C11.9218 8.2721 10.2063 11.9518 7.01465 14.8435C6.66047 15.1482 6.30633 15.1482 5.95215 14.8435C2.641 11.8567 0.942092 8.05396 0.855469 3.4353C0.912479 3.2578 1.01762 3.12304 1.1709 3.03101C2.90374 2.10188 4.64136 1.19367 6.38379 0.306396ZM8.47559 4.77124C8.95634 4.76189 9.23305 5.00798 9.30567 5.50952C9.28226 5.64382 9.24354 5.7727 9.18945 5.89624C8.17676 6.96851 7.16406 8.04077 6.15137 9.11304C5.87804 9.28425 5.61241 9.27254 5.35449 9.07788C4.80568 8.50853 4.26888 7.92845 3.74414 7.33765C3.57278 6.73988 3.77751 6.37662 4.3584 6.2478C4.50303 6.26953 4.63584 6.32226 4.75684 6.40601C5.07781 6.74586 5.39875 7.08568 5.71973 7.42554C5.75293 7.44899 5.78613 7.44899 5.81934 7.42554C6.60515 6.59349 7.39094 5.76149 8.17676 4.92944C8.27052 4.85635 8.37013 4.80362 8.47559 4.77124Z" fill="white"/>
</svg>
