<svg width="21" height="20" viewBox="0 0 21 20" fill="none" xmlns="http://www.w3.org/2000/svg">
<path d="M10.4457 17.5005C10.1948 17.5002 9.94985 17.4244 9.74262 17.2829C6.6727 15.1989 5.3434 13.77 4.6102 12.8767C3.0477 10.9724 2.29965 9.01729 2.32075 6.9001C2.34536 4.47393 4.29184 2.50049 6.65981 2.50049C8.38168 2.50049 9.57426 3.47041 10.2688 4.27822C10.2908 4.30355 10.318 4.32387 10.3485 4.33779C10.379 4.35171 10.4122 4.35891 10.4457 4.35891C10.4793 4.35891 10.5125 4.35171 10.543 4.33779C10.5735 4.32387 10.6007 4.30355 10.6227 4.27822C11.3172 3.46963 12.5098 2.50049 14.2317 2.50049C16.5997 2.50049 18.5461 4.47393 18.5707 6.90049C18.5918 9.01807 17.843 10.9731 16.2813 12.8771C15.5481 13.7704 14.2188 15.1993 11.1489 17.2833C10.9416 17.4246 10.6966 17.5003 10.4457 17.5005Z" fill="black"/>
</svg>
