<svg width="10" height="10" viewBox="0 0 10 10" fill="none" xmlns="http://www.w3.org/2000/svg">
<path d="M5.00022 8.75025C4.87477 8.75009 4.75227 8.71218 4.64865 8.64146C3.11369 7.59946 2.44905 6.88501 2.08244 6.43833C1.30119 5.48618 0.92717 4.50864 0.937717 3.45005C0.950022 2.23696 1.92326 1.25024 3.10725 1.25024C3.96819 1.25024 4.56448 1.73521 4.91174 2.13911C4.92274 2.15178 4.93633 2.16193 4.9516 2.16889C4.96686 2.17585 4.98344 2.17946 5.00022 2.17946C5.01699 2.17946 5.03357 2.17585 5.04884 2.16889C5.0641 2.16193 5.07769 2.15178 5.08869 2.13911C5.43596 1.73481 6.03225 1.25024 6.89319 1.25024C8.07717 1.25024 9.05041 2.23696 9.06272 3.45024C9.07327 4.50903 8.69885 5.48657 7.91799 6.43853C7.55139 6.88521 6.88674 7.59966 5.35178 8.64165C5.24814 8.71231 5.12565 8.75014 5.00022 8.75025Z" fill="#F9BC2F" fill-opacity="0.8"/>
</svg>
