<svg width="21" height="21" viewBox="0 0 21 21" fill="none" xmlns="http://www.w3.org/2000/svg">
<g clip-path="url(#clip0_27_509)">
<path opacity="0.978" fill-rule="evenodd" clip-rule="evenodd" d="M20.8789 9.95948C20.8789 10.1548 20.8789 10.3501 20.8789 10.5454C20.5898 11.289 20.0559 11.5559 19.2773 11.3462C19.1798 11.304 19.0887 11.2519 19.0039 11.19C16.4258 8.61183 13.8477 6.0337 11.2695 3.45558C11.0091 3.27328 10.7487 3.27328 10.4883 3.45558C7.91016 6.0337 5.33203 8.61183 2.75391 11.19C2.12004 11.5694 1.55363 11.4847 1.05469 10.936C0.983211 10.8066 0.924617 10.6763 0.878906 10.5454C0.878906 10.3501 0.878906 10.1548 0.878906 9.95948C0.95523 9.78116 1.05289 9.6119 1.17188 9.45167C3.73047 6.89308 6.28906 4.33448 8.84766 1.77589C10.0215 0.869974 11.2585 0.77883 12.5586 1.50245C13.4613 2.32694 14.3402 3.1798 15.1953 4.06104C15.2083 3.59229 15.2214 3.12354 15.2344 2.65479C15.5144 1.87353 16.0548 1.6066 16.8555 1.85401C17.1851 2.02752 17.4 2.29445 17.5 2.65479C17.513 3.90479 17.5261 5.15479 17.5391 6.40479C18.5547 7.42042 19.5703 8.43604 20.5859 9.45167C20.7049 9.6119 20.8026 9.78116 20.8789 9.95948Z" fill="#F9BC2F"/>
<path opacity="0.99" fill-rule="evenodd" clip-rule="evenodd" d="M10.6836 5.50635C10.8569 5.49503 11.0262 5.51456 11.1914 5.56495C13.4766 7.8501 15.7617 10.1353 18.0469 12.4204C18.0877 12.5069 18.1137 12.5981 18.125 12.6939C18.1511 14.3475 18.1511 16.0012 18.125 17.6548C18.0607 18.5069 17.6505 19.1255 16.8945 19.5103C16.7666 19.5572 16.6364 19.5963 16.5039 19.6274C15.2423 19.6843 13.9793 19.7039 12.7148 19.686C12.7148 17.9803 12.7148 16.2746 12.7148 14.5689C11.4909 14.5689 10.2669 14.5689 9.04297 14.5689C9.04297 16.2746 9.04297 17.9803 9.04297 19.686C7.77856 19.7039 6.51555 19.6843 5.25391 19.6274C4.7432 19.5123 4.33304 19.2453 4.02344 18.8267C3.78406 18.4731 3.65385 18.0825 3.63281 17.6548C3.60677 16.0012 3.60677 14.3475 3.63281 12.6939C3.64412 12.5981 3.67017 12.5069 3.71094 12.4204C6.02008 10.0917 8.3443 7.78702 10.6836 5.50635Z" fill="#F9BC2F"/>
</g>
<defs>
<clipPath id="clip0_27_509">
<rect width="20" height="20" fill="white" transform="translate(0.898438 0.369629)"/>
</clipPath>
</defs>
</svg>
