<svg width="35" height="35" viewBox="0 0 35 35" fill="none" xmlns="http://www.w3.org/2000/svg">
<rect x="0.75" y="0.75" width="33.5" height="33.5" rx="5.25" stroke="black" stroke-width="1.5"/>
<g clip-path="url(#clip0_27_1066)">
<path opacity="0.99" fill-rule="evenodd" clip-rule="evenodd" d="M10.7312 10.4852C10.4548 10.4852 10.1783 10.4852 9.90181 10.4852C9.10855 10.6328 8.37788 10.934 7.70975 11.3887C6.99671 11.9875 6.74492 12.7428 6.95438 13.6548C6.99422 13.8241 7.03865 13.992 7.08768 14.1584C7.0098 14.2451 6.9555 14.3438 6.92476 14.4546C6.8818 14.8324 6.93118 15.1977 7.07287 15.5507C7.11235 15.6099 7.15187 15.6691 7.19136 15.7284C7.39726 16.7085 7.88603 17.5133 8.65767 18.1426C9.58346 18.766 10.482 18.7265 11.3533 18.0241C12.0633 17.4193 12.5027 16.6541 12.6715 15.7284C12.7745 15.5975 12.8436 15.4494 12.8789 15.2841C12.9689 14.9808 12.9886 14.6748 12.9381 14.3658C12.9085 14.2866 12.864 14.2174 12.8048 14.1584C13.1909 12.8831 12.8749 11.8217 11.8569 10.974C11.5115 10.737 11.1363 10.5741 10.7312 10.4852Z" fill="black"/>
<path opacity="0.988" fill-rule="evenodd" clip-rule="evenodd" d="M8.5983 25.6518C9.48697 25.6518 10.3756 25.6518 11.2643 25.6518C12.3231 25.6012 13.3797 25.4876 14.4339 25.3112C14.9567 25.2225 15.4603 25.0744 15.9447 24.8668C16.0608 24.7039 16.125 24.5212 16.1372 24.3188C16.1894 23.0729 16.0215 21.8584 15.6336 20.6753C15.5069 20.3428 15.3489 20.0268 15.1597 19.7273C14.971 19.4824 14.7389 19.2899 14.4635 19.1497C13.7855 18.9242 13.1239 18.6576 12.4788 18.3499C12.3761 18.2915 12.2774 18.2274 12.1826 18.1573C12.0815 18.2301 11.9778 18.2993 11.8716 18.3647C11.8874 19.016 11.8874 19.6676 11.8716 20.3198C11.293 21.848 10.7204 23.3785 10.1535 24.9113C10.0054 25.1087 9.85725 25.1087 9.70914 24.9113C9.13061 23.3831 8.55792 21.8526 7.99104 20.3198C7.96755 19.7022 7.97247 19.0851 8.00585 18.4684C8.01018 18.4081 7.99045 18.3588 7.94661 18.3203C7.85774 18.266 7.76887 18.2116 7.68001 18.1573C7.41154 18.341 7.12521 18.494 6.82096 18.6165C6.3246 18.7984 5.83092 18.986 5.33984 19.1793C5.12839 19.3074 4.93584 19.4605 4.7622 19.6385C4.18995 20.5837 3.86411 21.6106 3.78466 22.7192C3.73244 23.2515 3.71268 23.7847 3.72541 24.3188C3.73753 24.5131 3.79677 24.6908 3.90315 24.852C4.10455 24.9587 4.31683 25.0427 4.54003 25.1038C5.41519 25.3318 6.30387 25.4799 7.20605 25.5481C7.67455 25.5858 8.13865 25.6204 8.5983 25.6518Z" fill="black"/>
<path opacity="0.949" fill-rule="evenodd" clip-rule="evenodd" d="M10.7314 19.0461C10.7297 19.03 10.7198 19.0202 10.7018 19.0165C10.2073 19.2037 9.70867 19.2136 9.20589 19.0461C9.19108 19.056 9.17627 19.0659 9.16146 19.0757C9.37868 19.4114 9.59593 19.7472 9.81315 20.0829C9.63491 20.2858 9.44237 20.4734 9.23551 20.6457C9.41375 21.962 9.62111 23.2753 9.85758 24.5855C9.99228 24.6389 10.0515 24.5895 10.0353 24.4374C10.2523 23.175 10.4498 21.9111 10.6278 20.6457C10.4209 20.4734 10.2284 20.2858 10.0501 20.0829C10.2706 19.7303 10.4977 19.3847 10.7314 19.0461Z" fill="black"/>
</g>
<g clip-path="url(#clip1_27_1066)">
<path opacity="0.976" fill-rule="evenodd" clip-rule="evenodd" d="M25.6606 10.4852C25.3545 10.4852 25.0484 10.4852 24.7423 10.4852C23.5622 10.7218 22.6389 11.3439 21.9726 12.3514C21.3888 13.2835 21.0728 14.3006 21.0247 15.4025C20.9836 16.2634 21.0626 17.1126 21.2617 17.9501C21.5615 18.9768 22.2477 19.4409 23.3204 19.3423C23.7455 19.3336 24.1701 19.3139 24.5942 19.2831C24.7984 19.2882 25.0008 19.3079 25.2015 19.3423C25.3827 19.3119 25.5653 19.2921 25.7495 19.2831C26.2818 19.3343 26.815 19.3738 27.3491 19.4016C28.2151 19.4406 28.7927 19.0555 29.082 18.2463C29.2575 17.667 29.3563 17.0746 29.3782 16.469C29.5126 15.0274 29.2164 13.6845 28.4895 12.4403C27.9942 11.6486 27.3178 11.0709 26.4604 10.7074C26.1957 10.6123 25.9291 10.5382 25.6606 10.4852ZM24.8312 12.3514C23.9105 12.7596 23.3132 13.4508 23.039 14.425C23.0006 14.5668 22.9167 14.6655 22.7872 14.7212C22.5056 14.5928 22.2834 14.3953 22.1207 14.1288C21.9764 14.0472 21.8678 14.0867 21.7949 14.2473C21.601 14.7596 21.7146 15.1891 22.1355 15.5358C22.2522 15.563 22.3657 15.5976 22.4762 15.6395C22.7245 16.6452 23.2133 17.5091 23.9425 18.2315C24.7999 18.9681 25.6491 18.9582 26.49 18.2019C27.2022 17.4841 27.681 16.63 27.9267 15.6395C28.2852 15.5885 28.5222 15.3911 28.6377 15.0471C28.734 14.8 28.734 14.5531 28.6377 14.3065C28.5992 14.2197 28.5399 14.1505 28.4599 14.0992C28.2318 14.3587 27.9405 14.487 27.5861 14.4843C26.9274 14.4214 26.3448 14.1795 25.8383 13.7585C25.6173 13.5773 25.4198 13.3749 25.2459 13.1512C24.7375 13.2702 24.3277 13.5368 24.0166 13.951C23.9277 14.0992 23.8388 14.2473 23.75 14.3954C23.8403 13.6221 24.2156 13.0297 24.8756 12.618C24.8797 12.5269 24.8649 12.4381 24.8312 12.3514Z" fill="black"/>
<path opacity="0.993" fill-rule="evenodd" clip-rule="evenodd" d="M19.4402 25.6519C23.2121 25.6519 26.9841 25.6519 30.756 25.6519C30.7609 24.7039 30.756 23.756 30.7412 22.8081C30.5986 21.965 30.2184 21.2491 29.6007 20.6605C29.1731 20.2565 28.6843 19.9454 28.1344 19.7274C27.959 19.9919 27.7714 20.2486 27.5716 20.4976C27.4185 20.6309 27.2655 20.7642 27.1124 20.8975C26.4362 21.2504 25.7648 21.6108 25.0981 21.9787C24.4313 21.6108 23.7599 21.2504 23.0838 20.8975C22.9307 20.7642 22.7777 20.6309 22.6246 20.4976C22.4248 20.2486 22.2372 19.9919 22.0618 19.7274C20.864 20.2044 20.0346 21.0437 19.5735 22.2453C19.5199 22.4301 19.4804 22.6177 19.455 22.8081C19.4402 23.756 19.4353 24.7039 19.4402 25.6519Z" fill="black"/>
</g>
<defs>
<clipPath id="clip0_27_1066">
<rect width="15.1667" height="15.1667" fill="white" transform="matrix(-1 0 0 1 17.5 10.5)"/>
</clipPath>
<clipPath id="clip1_27_1066">
<rect width="15.1667" height="15.1667" fill="white" transform="matrix(-1 0 0 1 32.6665 10.5)"/>
</clipPath>
</defs>
</svg>
