<svg width="16" height="16" viewBox="0 0 16 16" fill="none" xmlns="http://www.w3.org/2000/svg">
<g clip-path="url(#clip0_129_210)">
<path opacity="0.987" fill-rule="evenodd" clip-rule="evenodd" d="M5.57813 0.921874C6.21363 0.916668 6.84903 0.921874 7.48438 0.937499C9.639 1.18863 11.1859 2.28759 12.125 4.23437C12.8699 6.11297 12.7033 7.90462 11.625 9.60937C10.5921 11.0402 9.19103 11.8371 7.42188 12C6.71275 12.0277 6.00444 12.0172 5.29688 11.9687C4.51916 11.8612 3.79 11.6112 3.10938 11.2187C2.52224 11.0133 1.98579 11.1019 1.5 11.4844C1.31859 11.7377 1.12589 11.9825 0.921876 12.2187C0.732773 12.3362 0.581729 12.2997 0.468751 12.1094C0.447916 10.1719 0.447916 8.23437 0.468751 6.29687C0.574401 4.26691 1.48586 2.72002 3.20313 1.65625C3.94747 1.2464 4.73916 1.00161 5.57813 0.921874ZM6.17188 2.67187C7.58672 2.62167 8.73775 3.1425 9.625 4.23437C10.5452 5.57916 10.6494 6.98541 9.9375 8.45312C8.94438 10.0556 7.5121 10.7066 5.64063 10.4062C4.24363 10.0405 3.2905 9.18116 2.78125 7.82812C2.29838 6.05822 2.76192 4.59469 4.17188 3.4375C4.77325 3.00623 5.43991 2.75102 6.17188 2.67187Z" fill="white"/>
<path opacity="0.951" fill-rule="evenodd" clip-rule="evenodd" d="M6.07812 3.14062C6.14062 3.14062 6.20312 3.14062 6.26562 3.14062C6.26562 3.65103 6.26562 4.16147 6.26562 4.67188C5.85934 4.67022 5.4635 4.61291 5.07812 4.5C5.21319 4.07422 5.38506 3.66275 5.59375 3.26562C5.75531 3.21094 5.91675 3.16928 6.07812 3.14062Z" fill="white"/>
<path opacity="0.96" fill-rule="evenodd" clip-rule="evenodd" d="M6.73438 3.14062C6.95925 3.15206 7.178 3.19372 7.39062 3.26562C7.62262 3.67 7.79972 4.09709 7.92188 4.54688C7.53041 4.62741 7.13456 4.66906 6.73438 4.67188C6.73438 4.16147 6.73438 3.65103 6.73438 3.14062Z" fill="white"/>
<path opacity="0.909" fill-rule="evenodd" clip-rule="evenodd" d="M4.89062 3.51564C4.918 3.51154 4.93884 3.52195 4.95312 3.54689C4.8395 3.82017 4.73534 4.0962 4.64062 4.37501C4.42316 4.3512 4.21481 4.2887 4.01562 4.18751C4.27003 3.90992 4.56169 3.68595 4.89062 3.51564Z" fill="white"/>
<path opacity="0.896" fill-rule="evenodd" clip-rule="evenodd" d="M8.04688 3.51562C8.39744 3.68347 8.70994 3.90744 8.98438 4.1875C8.79409 4.28256 8.59619 4.36069 8.39062 4.42188C8.26966 4.12141 8.15509 3.81934 8.04688 3.51562Z" fill="white"/>
<path opacity="0.957" fill-rule="evenodd" clip-rule="evenodd" d="M3.70312 4.54688C3.97634 4.66206 4.24719 4.77663 4.51562 4.89062C4.39925 5.37375 4.32634 5.86334 4.29688 6.35938C3.88022 6.35938 3.46353 6.35938 3.04688 6.35938C3.09281 5.69016 3.31156 5.08597 3.70312 4.54688Z" fill="white"/>
<path opacity="0.961" fill-rule="evenodd" clip-rule="evenodd" d="M9.23438 4.57812C9.29975 4.58003 9.34662 4.61128 9.375 4.67188C9.70109 5.17609 9.89378 5.72819 9.95312 6.32813C9.53697 6.35934 9.12031 6.36978 8.70312 6.35938C8.69616 5.87313 8.63366 5.39397 8.51562 4.92188C8.52556 4.88603 8.54637 4.85997 8.57812 4.84375C8.80625 4.76966 9.025 4.68113 9.23438 4.57812Z" fill="white"/>
<path opacity="0.958" fill-rule="evenodd" clip-rule="evenodd" d="M4.95312 4.98438C5.38775 5.05984 5.82525 5.11194 6.26562 5.14062C6.26562 5.54688 6.26562 5.95312 6.26562 6.35938C5.76562 6.35938 5.26562 6.35938 4.76562 6.35938C4.78441 5.89463 4.84691 5.43631 4.95312 4.98438Z" fill="white"/>
<path opacity="0.964" fill-rule="evenodd" clip-rule="evenodd" d="M7.95312 4.98438C7.99478 4.98438 8.03647 4.98438 8.07812 4.98438C8.17134 5.43834 8.23384 5.89669 8.26562 6.35938C7.75522 6.35938 7.24478 6.35938 6.73438 6.35938C6.73438 5.95312 6.73438 5.54688 6.73438 5.14062C7.15141 5.13966 7.55766 5.08759 7.95312 4.98438Z" fill="white"/>
<path opacity="0.99" fill-rule="evenodd" clip-rule="evenodd" d="M13.0781 5.20312C13.8555 5.29816 14.4232 5.69397 14.7812 6.39062C15.2198 7.14388 15.4698 7.95638 15.5312 8.82812C15.5623 10.9244 15.5519 13.0182 15.5 15.1094C15.386 15.1776 15.2662 15.1881 15.1406 15.1406C14.7597 14.8274 14.3743 14.5201 13.9844 14.2188C13.6374 14.0168 13.2728 13.9751 12.8906 14.0938C11.6135 14.7911 10.2489 15.0619 8.79688 14.9062C7.55013 14.8709 6.43553 14.4751 5.45312 13.7188C5.10072 13.4047 4.88197 13.0141 4.79688 12.5469C4.81772 12.5365 4.83853 12.526 4.85938 12.5156C5.94172 12.6758 7.02506 12.681 8.10938 12.5312C10.6194 11.9796 12.2496 10.4744 13 8.01562C13.2351 7.08363 13.2611 6.14613 13.0781 5.20312Z" fill="white"/>
<path opacity="0.969" fill-rule="evenodd" clip-rule="evenodd" d="M3.04688 6.82812C3.46353 6.82812 3.88022 6.82812 4.29688 6.82812C4.32628 7.34472 4.39922 7.85512 4.51562 8.35938C4.24441 8.422 3.984 8.51575 3.73438 8.64062C3.31544 8.11244 3.08627 7.50828 3.04688 6.82812Z" fill="white"/>
<path opacity="0.967" fill-rule="evenodd" clip-rule="evenodd" d="M4.76562 6.82812C5.26562 6.82812 5.76562 6.82812 6.26562 6.82812C6.26562 7.23438 6.26562 7.64062 6.26562 8.04688C5.85597 8.07075 5.44972 8.12281 5.04688 8.20312C5.01562 8.19272 4.98438 8.18228 4.95312 8.17188C4.83231 7.73244 4.76981 7.28453 4.76562 6.82812Z" fill="white"/>
<path opacity="0.974" fill-rule="evenodd" clip-rule="evenodd" d="M6.73438 6.82812C7.24478 6.82812 7.75522 6.82812 8.26562 6.82812C8.25375 7.30706 8.18084 7.77581 8.04688 8.23438C7.61472 8.13609 7.17722 8.07359 6.73438 8.04688C6.73438 7.64062 6.73438 7.23438 6.73438 6.82812Z" fill="white"/>
<path opacity="0.965" fill-rule="evenodd" clip-rule="evenodd" d="M8.70312 6.82812C9.12031 6.81771 9.53697 6.82815 9.95312 6.85937C9.89541 7.47527 9.69228 8.03777 9.34375 8.54687C9.32066 8.58043 9.28941 8.60127 9.25 8.60937C9.01225 8.50409 8.76747 8.42074 8.51562 8.35937C8.63075 7.85559 8.69325 7.34518 8.70312 6.82812Z" fill="white"/>
<path opacity="0.949" fill-rule="evenodd" clip-rule="evenodd" d="M5.95312 8.51562C6.05728 8.51562 6.16147 8.51562 6.26562 8.51562C6.27084 9.02616 6.26562 9.53656 6.25 10.0469C6.04384 10.0238 5.84072 9.98209 5.64062 9.92188C5.42341 9.52394 5.23591 9.11247 5.07812 8.6875C5.36756 8.60831 5.65925 8.55103 5.95312 8.51562Z" fill="white"/>
<path opacity="0.961" fill-rule="evenodd" clip-rule="evenodd" d="M6.73438 8.51562C6.99588 8.52928 7.25629 8.55531 7.51563 8.59375C7.65994 8.60478 7.79538 8.64122 7.92188 8.70312C7.77044 9.12634 7.58294 9.53259 7.35938 9.92188C7.15879 9.98178 6.95566 10.0234 6.75 10.0469C6.73438 9.53656 6.72916 9.02616 6.73438 8.51562Z" fill="white"/>
<path opacity="0.907" fill-rule="evenodd" clip-rule="evenodd" d="M4.54688 8.79688C4.58853 8.79688 4.63022 8.79688 4.67188 8.79688C4.76866 9.10278 4.86762 9.40488 4.96875 9.70312C4.621 9.52713 4.31372 9.29797 4.04688 9.01562C4.21047 8.93006 4.37712 8.85716 4.54688 8.79688Z" fill="white"/>
<path opacity="0.897" fill-rule="evenodd" clip-rule="evenodd" d="M8.35938 8.79688C8.57575 8.82725 8.77366 8.90016 8.95312 9.01562C8.69094 9.28756 8.38884 9.50631 8.04688 9.67188C8.03647 9.66147 8.02603 9.65103 8.01562 9.64062C8.14872 9.36616 8.26331 9.08491 8.35938 8.79688Z" fill="white"/>
</g>
<defs>
<clipPath id="clip0_129_210">
<rect width="16" height="16" fill="white"/>
</clipPath>
</defs>
</svg>
