<svg width="23" height="21" viewBox="0 0 23 21" fill="none" xmlns="http://www.w3.org/2000/svg">
<rect x="0.0957031" y="0.968018" width="22.5" height="20" rx="10" fill="black"/>
<path d="M11.6473 16.728C11.2153 16.728 10.7673 16.676 10.3033 16.572C9.83925 16.476 9.40725 16.304 9.00725 16.056C8.60725 15.816 8.27925 15.488 8.02325 15.072C7.77525 14.664 7.65125 14.148 7.65125 13.524C7.65125 12.948 7.76725 12.408 7.99925 11.904C8.23125 11.4 8.55925 10.944 8.98325 10.536C9.41525 10.128 9.92325 9.784 10.5073 9.504C11.0913 9.224 11.7353 9.024 12.4393 8.904L12.6913 9.84C12.1073 9.944 11.5673 10.1 11.0713 10.308C10.5753 10.516 10.1433 10.772 9.77525 11.076C9.41525 11.372 9.13525 11.712 8.93525 12.096C8.73525 12.488 8.63525 12.916 8.63525 13.38C8.63525 13.756 8.69925 14.08 8.82725 14.352C8.95525 14.624 9.12325 14.848 9.33125 15.024C9.54725 15.208 9.78725 15.352 10.0513 15.456C10.3153 15.56 10.5833 15.632 10.8553 15.672C11.1353 15.72 11.3993 15.744 11.6473 15.744C12.0713 15.744 12.5033 15.704 12.9433 15.624C13.3833 15.552 13.7833 15.44 14.1432 15.288L14.4553 16.128C14.2633 16.224 14.0073 16.316 13.6873 16.404C13.3753 16.5 13.0393 16.576 12.6793 16.632C12.3193 16.696 11.9753 16.728 11.6473 16.728ZM9.66725 10.368C9.34725 10.288 9.05925 10.144 8.80325 9.936C8.54725 9.728 8.34325 9.48 8.19125 9.192C8.04725 8.904 7.97525 8.6 7.97525 8.28C7.97525 7.776 8.09125 7.356 8.32325 7.02C8.56325 6.684 8.86725 6.432 9.23525 6.264C9.61125 6.096 10.0073 6.012 10.4233 6.012C10.6073 6.012 10.8033 6.028 11.0113 6.06C11.2193 6.092 11.4193 6.14 11.6113 6.204L11.4073 7.128C11.2473 7.088 11.0793 7.056 10.9033 7.032C10.7273 7.008 10.5673 6.996 10.4233 6.996C10.1353 6.996 9.87925 7.048 9.65525 7.152C9.43125 7.256 9.25525 7.4 9.12725 7.584C8.99925 7.76 8.93525 7.968 8.93525 8.208C8.93525 8.424 8.99525 8.62 9.11525 8.796C9.24325 8.964 9.40325 9.112 9.59525 9.24C9.78725 9.36 9.98325 9.452 10.1833 9.516C10.3833 9.572 10.5593 9.596 10.7113 9.588L9.66725 10.368Z" fill="#F8D09F"/>
</svg>
