<svg width="17" height="17" viewBox="0 0 17 17" fill="none" xmlns="http://www.w3.org/2000/svg">
<path fill-rule="evenodd" clip-rule="evenodd" d="M2.21651 0H14.7643C15.9833 0 16.9808 0.997531 16.9808 2.21651V3.12812H7.73221C5.93711 3.12812 4.46856 4.59693 4.46856 6.39177V10.589C4.46856 12.3839 5.93711 13.8527 7.73221 13.8527H16.9808V14.7643C16.9808 15.9833 15.9833 16.9808 14.7643 16.9808H2.21651C0.997276 16.9808 0 15.9833 0 14.7643V2.21651C0 0.997531 0.997276 0 2.21651 0ZM6.51988 11.8001C5.83381 8.47428 7.58543 5.98237 11.0565 5.60008V5.21856C11.0565 4.57545 11.7814 4.1681 12.3319 4.52968L16.5916 6.98911C17.1378 7.30466 17.1355 8.10018 16.5885 8.41342L12.2928 10.8941C11.7479 11.2094 11.057 10.8128 11.057 10.1824L11.0593 9.86663C9.56668 9.98298 8.94735 10.5151 8.35129 11.8908C7.9488 12.8234 6.73545 12.8429 6.51988 11.8001ZM7.61023 10.6688C8.73204 8.71158 10.2579 8.65252 12.267 8.6226L12.2673 9.51145L15.4036 7.70076L12.2693 5.89083V6.73238C9.64749 6.86611 7.54298 7.6514 7.61023 10.6688Z" fill="black"/>
</svg>
