<svg width="20" height="20" viewBox="0 0 20 20" fill="none" xmlns="http://www.w3.org/2000/svg">
<path opacity="0.979" fill-rule="evenodd" clip-rule="evenodd" d="M3.96484 4.55079C7.12895 4.54426 10.293 4.55079 13.457 4.57032C14.4865 4.70727 15.3329 5.1695 15.9961 5.95704C16.5638 5.55274 17.1952 5.33137 17.8906 5.29297C18.624 5.27184 19.0928 5.61036 19.2969 6.3086C19.3827 7.0409 19.2264 7.71801 18.8281 8.33985C18.2288 9.31688 17.402 10.0265 16.3477 10.4688C15.7399 10.714 15.1409 10.7009 14.5508 10.4297C14.233 10.1894 14.0442 9.87036 13.9844 9.47266C13.9777 9.27606 13.9582 9.08075 13.9258 8.88672C13.1462 9.61848 13.1462 10.3542 13.9258 11.0938C14.4824 11.442 15.0293 11.429 15.5664 11.0547C16.6608 10.8592 17.5853 10.3579 18.3398 9.55079C18.4869 10.2129 18.3502 10.8118 17.9297 11.3477C17.2396 12.2852 16.5495 13.2227 15.8594 14.1602C15.207 14.8542 14.4062 15.2644 13.457 15.3906C10.293 15.4167 7.12891 15.4167 3.96484 15.3906C2.13517 15.0844 1.03491 14.0232 0.664062 12.207C0.585938 10.7227 0.585938 9.23829 0.664062 7.75391C1.04181 5.93731 2.14207 4.86961 3.96484 4.55079ZM17.6367 6.15235C18.2808 6.06075 18.5477 6.33419 18.4375 6.97266C18.0704 8.14739 17.3347 9.01329 16.2305 9.57032C15.9685 9.68465 15.695 9.75626 15.4102 9.78516C15.0027 9.77833 14.8074 9.57001 14.8242 9.16016C14.8388 8.9977 14.8779 8.84145 14.9414 8.69141C15.1234 8.66708 15.2927 8.71266 15.4492 8.82813C15.6262 8.96618 15.7889 9.11594 15.9375 9.27735C16.5674 9.01204 17.0817 8.60188 17.4805 8.04688C17.173 7.59493 16.8605 7.14571 16.543 6.69922C16.8674 6.43493 17.232 6.25262 17.6367 6.15235ZM3.33984 8.10547C3.46661 8.12383 3.57729 8.1759 3.67188 8.26172C4.08746 8.8661 4.51062 9.46504 4.94141 10.0586C4.97395 9.49915 4.99348 8.93926 5 8.37891C5.11402 8.16309 5.2898 8.09149 5.52734 8.16407C5.59711 8.19473 5.6557 8.24028 5.70312 8.30079C5.76719 9.35305 5.78023 10.4077 5.74219 11.4648C5.64746 11.7107 5.47168 11.7954 5.21484 11.7188C5.14508 11.6881 5.08648 11.6425 5.03906 11.582C4.63758 10.9852 4.2209 10.3993 3.78906 9.82422C3.77604 10.3711 3.76302 10.918 3.75 11.4648C3.56425 11.7811 3.32987 11.8202 3.04688 11.582C2.98246 10.5177 2.96945 9.45001 3.00781 8.37891C3.0807 8.23376 3.19138 8.14258 3.33984 8.10547ZM6.58203 8.10547C7.02492 8.09895 7.46766 8.10547 7.91016 8.12501C8.21801 8.17231 8.34172 8.34809 8.28125 8.65235C8.23742 8.73532 8.17883 8.80692 8.10547 8.86719C7.73102 8.92266 7.3534 8.94219 6.97266 8.92579C6.97266 9.13411 6.97266 9.34247 6.97266 9.55079C7.31145 9.5443 7.65 9.55079 7.98828 9.57032C8.24141 9.73903 8.28699 9.95387 8.125 10.2148C8.06957 10.2523 8.01098 10.2849 7.94922 10.3125C7.62395 10.332 7.29844 10.3385 6.97266 10.332C6.97266 10.5404 6.97266 10.7487 6.97266 10.957C7.33746 10.9506 7.70207 10.957 8.06641 10.9766C8.46547 11.2052 8.47852 11.4525 8.10547 11.7188C7.54559 11.7448 6.98566 11.7448 6.42578 11.7188C6.31324 11.6699 6.24164 11.5853 6.21094 11.4648C6.18488 10.4362 6.18488 9.40755 6.21094 8.37891C6.29242 8.22481 6.41613 8.13364 6.58203 8.10547ZM10.6445 8.10547C10.8157 8.09954 10.9525 8.16465 11.0547 8.30079C11.2658 8.86258 11.4807 9.42247 11.6992 9.98047C11.856 9.41837 12.0188 8.85848 12.1875 8.30079C12.3945 8.09641 12.6028 8.09641 12.8125 8.30079C12.8489 8.37731 12.8814 8.45544 12.9102 8.53516C12.6503 9.50965 12.3964 10.4862 12.1484 11.4648C12.0853 11.6527 11.9551 11.7568 11.7578 11.7773C11.6352 11.7421 11.5311 11.677 11.4453 11.582C11.2155 10.9511 10.9746 10.3261 10.7227 9.70704C10.4857 10.3332 10.2448 10.9582 10 11.582C9.80242 11.7728 9.5941 11.7858 9.375 11.6211C9.09043 10.6653 8.83004 9.70172 8.59375 8.73047C8.52211 8.26813 8.7109 8.09235 9.16016 8.20313C9.20574 8.24872 9.25129 8.29426 9.29688 8.33985C9.44145 8.89243 9.5977 9.4393 9.76562 9.98047C9.9718 9.45087 10.1671 8.917 10.3516 8.37891C10.4196 8.25212 10.5173 8.16098 10.6445 8.10547Z" fill="black"/>
</svg>
