<svg width="16" height="16" viewBox="0 0 16 16" fill="none" xmlns="http://www.w3.org/2000/svg">
<path fill-rule="evenodd" clip-rule="evenodd" d="M9.86833 13.2211C10.2793 13.1799 10.5569 13.6161 10.3628 13.9692C10.226 14.218 10.0332 14.4352 9.80226 14.6131C9.56673 14.7945 9.29346 14.9337 9.00033 15.0272C8.70706 15.1208 8.39566 15.1681 8.08313 15.1681C7.77059 15.1681 7.45919 15.1208 7.16593 15.0272C6.87279 14.9337 6.59955 14.7945 6.36403 14.6131C6.13306 14.4352 5.94025 14.218 5.80347 13.9692C5.60935 13.6161 5.88701 13.1799 6.29795 13.2211C6.42612 13.234 7.42919 13.332 8.08313 13.332C8.73706 13.332 9.74013 13.234 9.86833 13.2211Z" fill="white"/>
<path fill-rule="evenodd" clip-rule="evenodd" d="M5.68617 1.3917C7.19563 0.669633 8.9645 0.645068 10.495 1.32491L10.6318 1.38567C12.2356 2.09805 13.2624 3.64147 13.2624 5.33973V6.18198C13.2624 6.859 13.4159 7.52787 13.7122 8.142L13.8892 8.5088C14.7018 10.1933 13.6435 12.1623 11.7439 12.4999L11.6368 12.5189C9.28683 12.9364 6.8771 12.9364 4.52712 12.5189C2.60199 12.1769 1.58351 10.1295 2.51509 8.47433L2.66645 8.20546C3.04008 7.5416 3.23573 6.79873 3.23573 6.04397V5.19489C3.23573 3.58293 4.18486 2.10985 5.68617 1.3917Z" fill="white"/>
</svg>
