<svg width="75" height="75" viewBox="0 0 75 75" fill="none" xmlns="http://www.w3.org/2000/svg">
<path opacity="0.998" fill-rule="evenodd" clip-rule="evenodd" d="M34.0581 -0.0732422C36.3041 -0.0732422 38.5503 -0.0732422 40.7964 -0.0732422C55.4113 1.82353 65.8361 9.44071 72.0708 22.7783C73.5556 26.4227 74.5077 30.1825 74.9272 34.0576C74.9272 36.3037 74.9272 38.5499 74.9272 40.7959C73.0304 55.4108 65.4132 65.8356 52.0757 72.0703C48.4314 73.5551 44.6716 74.5072 40.7964 74.9268C38.5503 74.9268 36.3041 74.9268 34.0581 74.9268C19.4429 73.0296 9.01814 65.4125 2.78369 52.0752C1.29891 48.4308 0.346766 44.671 -0.0727539 40.7959C-0.0727539 38.5499 -0.0727539 36.3037 -0.0727539 34.0576C1.82401 19.4427 9.4412 9.0179 22.7788 2.7832C26.4232 1.29843 30.183 0.346277 34.0581 -0.0732422Z" fill="#213675"/>
<path fill-rule="evenodd" clip-rule="evenodd" d="M53.247 24.0967C55.4487 23.9786 56.4008 25.004 56.1035 27.1728C56.0213 27.4988 55.8748 27.7917 55.664 28.0517C48.3153 35.4004 40.9668 42.749 33.6181 50.0976C32.495 50.9766 31.3721 50.9766 30.249 50.0976C26.4118 46.3094 22.6277 42.4764 18.8965 38.5986C18.2778 35.9969 19.2788 34.8983 21.8994 35.3027C22.1436 35.4492 22.3876 35.5957 22.6318 35.7422C25.7324 38.8428 28.8329 41.9433 31.9336 45.0439C38.6963 38.2812 45.4589 31.5186 52.2216 24.7558C52.5729 24.5326 52.9147 24.3129 53.247 24.0967Z" fill="#FBFDFB"/>
</svg>
