<svg width="16" height="16" viewBox="0 0 16 16" fill="none" xmlns="http://www.w3.org/2000/svg">
<path d="M14.659 7.32983L14.6594 10.8506C14.6594 11.8256 13.8982 12.6228 12.9377 12.6805L12.826 12.6839H3.17415C2.19912 12.6839 1.40188 11.9228 1.34416 10.9622L1.34081 10.8506L1.34033 7.32983H14.659ZM12.1687 9.6667H10.502L10.4342 9.67126C10.1902 9.70437 10.002 9.91357 10.002 10.1667C10.002 10.4198 10.1902 10.629 10.4342 10.6621L10.502 10.6667H12.1687L12.2366 10.6621C12.4806 10.629 12.6687 10.4198 12.6687 10.1667C12.6687 9.91357 12.4806 9.70437 12.2366 9.67126L12.1687 9.6667ZM12.826 3.34717C13.8011 3.34717 14.5983 4.1083 14.656 5.06882L14.6594 5.1805L14.659 6.32983H1.34033L1.34081 5.1805C1.34081 4.20548 2.10195 3.40823 3.06246 3.35051L3.17415 3.34717H12.826Z" fill="white"/>
</svg>
