<svg width="19" height="19" viewBox="0 0 19 19" fill="none" xmlns="http://www.w3.org/2000/svg">
<g clip-path="url(#clip0_2_1074)">
<path opacity="0.991" fill-rule="evenodd" clip-rule="evenodd" d="M8.77643 -0.0185547C9.15988 -0.0185547 9.54337 -0.0185547 9.92682 -0.0185547C11.7933 0.307633 13.0612 1.35906 13.7305 3.13574C14.3153 5.48952 13.5917 7.31404 11.5596 8.60938C10.2388 9.25478 8.8905 9.31664 7.51471 8.79492C5.54027 7.80744 4.63109 6.20554 4.78717 3.98926C5.02768 2.43781 5.82553 1.26886 7.18073 0.482422C7.68764 0.220598 8.21953 0.053606 8.77643 -0.0185547Z" fill="#999999"/>
<path opacity="0.994" fill-rule="evenodd" clip-rule="evenodd" d="M14.6023 18.9813C11.1759 18.9813 7.74945 18.9813 4.32303 18.9813C3.1375 18.8289 2.29017 18.2104 1.78104 17.1258C1.66885 16.8511 1.59463 16.5666 1.55839 16.2723C1.45872 14.8437 1.61953 13.4459 2.04081 12.0789C2.31743 11.2094 2.79366 10.4734 3.46952 9.8709C4.23071 9.29559 5.08422 9.07294 6.03007 9.20293C6.43838 9.43175 6.83423 9.67916 7.21757 9.94512C8.63277 10.7663 10.0677 10.8035 11.5223 10.0564C11.9737 9.76265 12.4314 9.47813 12.8953 9.20293C14.4169 9.05149 15.5735 9.62668 16.365 10.9285C16.9588 12.0541 17.2928 13.2539 17.367 14.5281C17.4204 15.1225 17.4204 15.7163 17.367 16.3094C17.0694 17.8465 16.1478 18.7371 14.6023 18.9813Z" fill="#999999"/>
</g>
<defs>
<clipPath id="clip0_2_1074">
<rect width="19" height="19" fill="white"/>
</clipPath>
</defs>
</svg>
