<svg width="21" height="20" viewBox="0 0 21 20" fill="none" xmlns="http://www.w3.org/2000/svg">
<path fill-rule="evenodd" clip-rule="evenodd" d="M10.1454 3.3339C8.80959 3.3339 7.72673 4.41677 7.72673 5.75255C7.72673 7.08834 8.80959 8.17121 10.1454 8.17121C11.4812 8.17121 12.564 7.08834 12.564 5.75255C12.564 4.41677 11.4812 3.3339 10.1454 3.3339ZM6.06006 5.75255C6.06006 3.4963 7.88912 1.66724 10.1454 1.66724C12.4016 1.66724 14.2307 3.4963 14.2307 5.75255C14.2307 8.00881 12.4016 9.83787 10.1454 9.83787C7.88912 9.83787 6.06006 8.00881 6.06006 5.75255Z" fill="black"/>
<path fill-rule="evenodd" clip-rule="evenodd" d="M8.07688 12.8254C5.53731 12.8254 3.47868 14.884 3.47868 17.4236V17.4995C3.47868 17.9597 3.10558 18.3328 2.64535 18.3328C2.18511 18.3328 1.81201 17.9597 1.81201 17.4995V17.4236C1.81201 13.9635 4.61683 11.1587 8.07688 11.1587H12.2138C15.6739 11.1587 18.4787 13.9635 18.4787 17.4236V17.4995C18.4787 17.9597 18.1056 18.3328 17.6453 18.3328C17.1851 18.3328 16.812 17.9597 16.812 17.4995V17.4236C16.812 14.884 14.7534 12.8254 12.2138 12.8254H8.07688Z" fill="black"/>
</svg>
