<svg width="28" height="28" viewBox="0 0 28 28" fill="none" xmlns="http://www.w3.org/2000/svg">
<path opacity="0.978" fill-rule="evenodd" clip-rule="evenodd" d="M13.3472 1C13.4491 1 13.5509 1 13.6528 1C17.0801 2.32544 20.5264 3.6119 23.9917 4.85938C24.0149 7.99182 23.9894 11.1233 23.9153 14.2539C23.4573 18.087 21.853 21.3455 19.1024 24.0293C17.5494 25.4554 15.7498 26.4456 13.7037 27C13.5679 27 13.4321 27 13.2963 27C10.2228 26.1237 7.76956 24.3802 5.93677 21.7695C4.33272 19.5174 3.38201 17.0122 3.08464 14.2539C3.0106 11.1233 2.98514 7.99182 3.00824 4.85938C6.47358 3.6119 9.91992 2.32544 13.3472 1ZM13.4491 3.58984C16.1359 4.58222 18.8183 5.58938 21.4961 6.61133C21.5554 8.7998 21.5639 10.9918 21.5216 13.1875C21.3163 17.2282 19.6271 20.4866 16.454 22.9629C15.5485 23.609 14.5638 24.1084 13.5 24.4609C10.7286 23.464 8.61502 21.6867 7.15911 19.1289C6.11574 17.2869 5.55548 15.3064 5.47839 13.1875C5.43612 10.9918 5.44461 8.7998 5.50386 6.61133C8.16239 5.61545 10.8108 4.60829 13.4491 3.58984Z" fill="#535050"/>
<path opacity="0.955" fill-rule="evenodd" clip-rule="evenodd" d="M13.1137 7C14.4978 6.99907 15.0538 7.67359 14.7816 9.02344C14.3777 9.80377 13.7488 10.0681 12.8949 9.81641C12.0084 9.30781 11.7805 8.58774 12.2113 7.65625C12.4453 7.33945 12.7461 7.1207 13.1137 7Z" fill="#535050"/>
<path opacity="0.982" fill-rule="evenodd" clip-rule="evenodd" d="M12.1294 11.5938C13.0044 11.5938 13.8794 11.5938 14.7544 11.5938C14.7544 14.7291 14.7544 17.8646 14.7544 21C13.8794 21 13.0044 21 12.1294 21C12.1294 17.8646 12.1294 14.7291 12.1294 11.5938Z" fill="#535050"/>
</svg>
