<svg width="28" height="28" viewBox="0 0 28 28" fill="none" xmlns="http://www.w3.org/2000/svg">
<g clip-path="url(#clip0_122_1149)">
<path opacity="0.952" fill-rule="evenodd" clip-rule="evenodd" d="M8.45275 5.00373C14.4426 4.99379 20.4324 5.00373 26.4222 5.03348C26.4817 5.08304 26.5412 5.13267 26.6007 5.18223C26.67 11.1895 26.6799 17.1992 26.6305 23.2112C26.5611 23.2807 26.4917 23.35 26.4222 23.4195C20.4324 23.4592 14.4426 23.4592 8.45275 23.4195C8.36058 23.3472 8.2912 23.258 8.2445 23.1517C8.21475 21.9222 8.20481 20.6925 8.21475 19.4626C7.16335 19.4726 6.1122 19.4626 5.06116 19.4329C4.81328 19.3743 4.69427 19.2156 4.70415 18.9569C4.6982 18.7305 4.79733 18.5718 5.00166 18.4808C6.07251 18.4511 7.14354 18.4412 8.21475 18.4511C8.21475 17.2016 8.21475 15.952 8.21475 14.7025C7.12372 14.7124 6.03282 14.7025 4.94216 14.6727C4.62483 14.3752 4.62483 14.0777 4.94216 13.7802C6.03282 13.7505 7.12372 13.7405 8.21475 13.7505C8.21475 12.5009 8.21475 11.2514 8.21475 10.0019C5.57674 10.0118 2.93886 10.0019 0.301032 9.97211C0.0786327 9.88887 -0.0205386 9.73018 0.0035238 9.4961C-0.0205386 9.26202 0.0786327 9.10333 0.301032 9.02009C2.93886 8.99033 5.57674 8.9804 8.21475 8.99033C8.20481 7.7605 8.21475 6.53078 8.2445 5.30124C8.30382 5.19276 8.37326 5.09357 8.45275 5.00373ZM9.22627 6.01525C10.7733 6.01525 12.3204 6.01525 13.8674 6.01525C13.8575 8.41525 13.8674 10.8151 13.8971 13.2149C13.9581 13.4637 14.1167 13.5827 14.3732 13.572C14.5357 13.5651 14.6845 13.5156 14.8194 13.4232C15.707 12.8853 16.5896 12.3398 17.4672 11.7869C18.3944 12.3944 19.3365 12.9794 20.2936 13.5422C20.5319 13.6075 20.7401 13.558 20.9183 13.3935C21.0069 10.9391 21.0367 8.47975 21.0076 6.01525C22.5744 6.01525 24.1414 6.01525 25.7082 6.01525C25.7082 11.4894 25.7082 16.9636 25.7082 22.4377C20.2143 22.4377 14.7202 22.4377 9.22627 22.4377C9.22627 16.9636 9.22627 11.4894 9.22627 6.01525ZM14.8789 6.01525C16.5847 6.01525 18.2903 6.01525 19.9961 6.01525C20.006 8.05824 19.9961 10.1011 19.9663 12.1439C19.1476 11.6225 18.3146 11.1266 17.4672 10.6564C16.6043 11.1128 15.7614 11.6087 14.9384 12.1439C14.8789 10.1014 14.8591 8.05854 14.8789 6.01525ZM18.092 18.7486C19.6986 18.7486 21.3051 18.7486 22.9116 18.7486C22.9116 19.2841 22.9116 19.8196 22.9116 20.3551C21.3051 20.3551 19.6986 20.3551 18.092 20.3551C18.092 19.8196 18.092 19.2841 18.092 18.7486Z" fill="#535050" stroke="#535050" stroke-width="0.5"/>
<path opacity="0.925" fill-rule="evenodd" clip-rule="evenodd" d="M1.99591 17.8555C2.88933 17.8463 3.78256 17.8555 4.6756 17.8828C5.1131 18.1745 5.1131 18.4662 4.6756 18.7578C3.78237 18.7943 2.88914 18.7943 1.99591 18.7578C1.79151 18.6813 1.70036 18.5355 1.72248 18.3203C1.71199 18.1035 1.80314 17.9485 1.99591 17.8555Z" fill="#535050"/>
</g>
<defs>
<clipPath id="clip0_122_1149">
<rect width="28" height="28" fill="white"/>
</clipPath>
</defs>
</svg>
