<svg width="10" height="10" viewBox="0 0 10 10" fill="none" xmlns="http://www.w3.org/2000/svg">
<g clip-path="url(#clip0_120_525)">
<path d="M0.964956 1.5527C0.986277 1.55253 0.986277 1.55253 1.00803 1.55236C1.05568 1.55207 1.10332 1.55234 1.15097 1.55261C1.18547 1.55252 1.21997 1.5524 1.25447 1.55224C1.34929 1.55191 1.4441 1.55208 1.53892 1.55232C1.64117 1.55249 1.74342 1.55222 1.84567 1.55201C2.04599 1.55166 2.24631 1.55173 2.44663 1.55196C2.6094 1.55214 2.77218 1.55216 2.93495 1.55208C2.9581 1.55206 2.98125 1.55205 3.00511 1.55204C3.05213 1.55202 3.09916 1.55199 3.14619 1.55196C3.58735 1.55174 4.02852 1.552 4.46969 1.55242C4.84838 1.55277 5.22708 1.55271 5.60577 1.55235C6.04534 1.55193 6.48491 1.55176 6.92448 1.552C6.97134 1.55203 7.01819 1.55205 7.06505 1.55208C7.09963 1.55209 7.09963 1.55209 7.13491 1.55211C7.29753 1.55218 7.46014 1.55207 7.62276 1.55188C7.82088 1.55166 8.019 1.55172 8.21712 1.55214C8.31825 1.55234 8.41936 1.55242 8.52048 1.55217C8.61301 1.55193 8.70553 1.55206 8.79805 1.55248C8.83157 1.55256 8.86508 1.55252 8.8986 1.55233C8.94409 1.55209 8.98955 1.55234 9.03504 1.5527C9.06033 1.55271 9.08562 1.55272 9.11167 1.55274C9.214 1.56747 9.27334 1.61588 9.34326 1.68948C9.3901 1.79036 9.38972 1.88285 9.375 1.99222C9.32998 2.08919 9.27264 2.13657 9.17969 2.18753C9.12148 2.19764 9.06482 2.19668 9.00589 2.19516C8.98958 2.19505 8.97327 2.19494 8.95647 2.19483C8.90473 2.19439 8.85301 2.19341 8.80127 2.19241C8.76605 2.19202 8.73083 2.19167 8.6956 2.19135C8.60956 2.19049 8.52353 2.18914 8.4375 2.18753C8.43753 2.2014 8.43756 2.21528 8.43759 2.22957C8.43934 3.05223 8.44068 3.8749 8.44149 4.69757C8.44159 4.7964 8.44169 4.89524 8.44179 4.99408C8.44181 5.01375 8.44183 5.03343 8.44185 5.0537C8.44219 5.37206 8.44281 5.69041 8.44353 6.00877C8.44426 6.33557 8.44469 6.66237 8.44485 6.98917C8.44496 7.19073 8.4453 7.39229 8.44593 7.59385C8.44634 7.73217 8.44647 7.87049 8.44637 8.00882C8.44632 8.08856 8.44639 8.16829 8.44681 8.24803C8.4472 8.32118 8.44721 8.39433 8.44695 8.46748C8.4469 8.50617 8.44723 8.54485 8.44758 8.58354C8.44556 8.8887 8.342 9.15571 8.13354 9.37991C7.90412 9.59644 7.63619 9.69705 7.32215 9.6951C7.30141 9.69521 7.28067 9.69531 7.2593 9.69542C7.19038 9.6957 7.12147 9.69556 7.05255 9.69542C7.0029 9.69553 6.95325 9.69567 6.9036 9.69583C6.78308 9.69614 6.66256 9.69618 6.54205 9.69608C6.44402 9.696 6.34598 9.69603 6.24795 9.69613C6.23396 9.69615 6.21997 9.69616 6.20556 9.69618C6.17713 9.69621 6.1487 9.69624 6.12027 9.69627C5.85409 9.69653 5.58792 9.69643 5.32174 9.6962C5.07867 9.69601 4.83561 9.69626 4.59254 9.69673C4.34245 9.69721 4.09236 9.69739 3.84227 9.69726C3.70207 9.6972 3.56187 9.69724 3.42166 9.69758C3.28979 9.6979 3.15792 9.69781 3.02605 9.69744C2.97778 9.69737 2.92951 9.69743 2.88124 9.69763C2.4893 9.69917 2.17098 9.66331 1.87012 9.38358C1.63268 9.13199 1.55313 8.85351 1.55545 8.51264C1.55543 8.48522 1.55538 8.45781 1.5553 8.43039C1.55517 8.35561 1.5554 8.28083 1.5557 8.20604C1.55595 8.12519 1.55587 8.04434 1.55582 7.96349C1.55579 7.82359 1.55597 7.68369 1.5563 7.5438C1.55678 7.34153 1.55693 7.13927 1.55701 6.937C1.55714 6.6088 1.55752 6.2806 1.55808 5.95239C1.55862 5.63367 1.55903 5.31495 1.55928 4.99622C1.5593 4.97656 1.55931 4.9569 1.55933 4.93664C1.5594 4.83799 1.55948 4.73935 1.55955 4.6407C1.56016 3.82298 1.56119 3.00525 1.5625 2.18753C1.54063 2.18794 1.51876 2.18835 1.49623 2.18877C1.41477 2.19019 1.33331 2.19108 1.25184 2.19182C1.21664 2.19221 1.18144 2.19275 1.14625 2.19342C1.09553 2.19438 1.04483 2.19482 0.99411 2.19516C0.970666 2.19577 0.970666 2.19577 0.946748 2.19638C0.842985 2.19642 0.785855 2.17744 0.703125 2.10941C0.632259 2.03481 0.618945 1.97498 0.615234 1.87503C0.618945 1.77509 0.632259 1.71525 0.703125 1.64066C0.792791 1.56971 0.851208 1.55276 0.964956 1.5527ZM2.1875 2.18753C2.18636 3.3179 2.18636 3.3179 2.18559 4.44827C2.18552 4.60068 2.18544 4.75309 2.18535 4.9055C2.18534 4.9246 2.18533 4.94371 2.18532 4.96339C2.18515 5.27169 2.18485 5.57999 2.18449 5.88829C2.18412 6.20474 2.1839 6.52119 2.18382 6.83764C2.18377 7.03287 2.1836 7.2281 2.18328 7.42333C2.18308 7.55725 2.18302 7.69116 2.18307 7.82508C2.18309 7.90232 2.18305 7.97955 2.18284 8.05679C2.18265 8.12759 2.18264 8.19839 2.18278 8.26919C2.1828 8.30675 2.18263 8.34431 2.18246 8.38188C2.18321 8.65267 2.18321 8.65267 2.30469 8.88675C2.46708 9.04759 2.62575 9.06552 2.84712 9.06514C2.86623 9.06519 2.88535 9.06523 2.90505 9.06528C2.96905 9.0654 3.03306 9.06538 3.09706 9.06537C3.14298 9.06543 3.18889 9.06549 3.2348 9.06557C3.3595 9.06574 3.48419 9.06579 3.60889 9.0658C3.69987 9.06581 3.79086 9.06587 3.88185 9.06593C4.12659 9.06609 4.37132 9.06617 4.61606 9.06615C4.6369 9.06615 4.6369 9.06615 4.65815 9.06615C4.67206 9.06615 4.68596 9.06615 4.70029 9.06615C4.92561 9.06614 5.15093 9.06633 5.37624 9.0666C5.60779 9.06688 5.83934 9.06702 6.07089 9.067C6.2008 9.06699 6.33072 9.06705 6.46064 9.06726C6.58285 9.06745 6.70505 9.06745 6.82725 9.06731C6.87206 9.06729 6.91687 9.06733 6.96168 9.06745C7.02293 9.0676 7.08419 9.06751 7.14544 9.06736C7.16309 9.06746 7.18074 9.06756 7.19892 9.06766C7.37897 9.06669 7.53644 9.04635 7.66853 8.9133C7.82821 8.73631 7.81538 8.54266 7.81485 8.31534C7.81486 8.28888 7.81487 8.26242 7.8149 8.23596C7.81494 8.16345 7.81486 8.09094 7.81477 8.01843C7.81468 7.94016 7.81471 7.86189 7.81473 7.78362C7.81474 7.64808 7.81468 7.51254 7.81457 7.377C7.81441 7.18103 7.81436 6.98507 7.81433 6.7891C7.81429 6.47114 7.81416 6.15319 7.81397 5.83523C7.81379 5.5264 7.81366 5.21756 7.81357 4.90872C7.81357 4.88949 7.81356 4.87025 7.81356 4.85043C7.81352 4.7 7.81348 4.54956 7.81344 4.39913C7.81326 3.66193 7.81286 2.92473 7.8125 2.18753C5.95625 2.18753 4.1 2.18753 2.1875 2.18753Z" fill="#F9BC2F"/>
<path d="M6.15235 3.43759C6.24873 3.48234 6.29596 3.54099 6.34766 3.6329C6.37414 3.70815 6.37003 3.78594 6.36994 3.8647C6.37 3.88029 6.37005 3.89588 6.37011 3.91194C6.37028 3.96424 6.37031 4.01653 6.37034 4.06883C6.37043 4.1063 6.37053 4.14377 6.37064 4.18125C6.37089 4.2831 6.37102 4.38496 6.37111 4.48681C6.37116 4.55046 6.37124 4.6141 6.37133 4.67774C6.3716 4.87688 6.37179 5.07602 6.37186 5.27516C6.37195 5.50501 6.37229 5.73485 6.37286 5.96469C6.37328 6.14237 6.37348 6.32005 6.3735 6.49774C6.37352 6.60385 6.37364 6.70996 6.37399 6.81607C6.37431 6.91591 6.37435 7.01575 6.37418 7.11559C6.37417 7.15219 6.37425 7.18878 6.37444 7.22538C6.37469 7.27544 6.37458 7.32549 6.37437 7.37556C6.37453 7.38994 6.37469 7.40433 6.37485 7.41915C6.37382 7.52837 6.357 7.64312 6.28024 7.72604C6.17736 7.81349 6.10804 7.81943 5.97627 7.81801C5.89766 7.8107 5.85782 7.78864 5.80079 7.73446C5.72574 7.64184 5.7114 7.56871 5.71274 7.45271C5.71262 7.43642 5.7125 7.42014 5.71237 7.40335C5.71206 7.34892 5.71231 7.29451 5.71256 7.24008C5.71245 7.201 5.71231 7.16192 5.71214 7.12284C5.71178 7.01679 5.71192 6.91074 5.71217 6.80469C5.71237 6.6937 5.71218 6.58271 5.71206 6.47172C5.71192 6.28534 5.71211 6.09895 5.71248 5.91257C5.7129 5.69709 5.71277 5.48161 5.71234 5.26613C5.71198 5.08112 5.71193 4.89611 5.71214 4.71109C5.71226 4.60059 5.71227 4.4901 5.71202 4.3796C5.71179 4.27572 5.71195 4.17184 5.7124 4.06796C5.7125 4.02983 5.71247 3.99171 5.7123 3.95359C5.71209 3.90154 5.71235 3.84952 5.71274 3.79747C5.71257 3.78239 5.7124 3.76731 5.71222 3.75177C5.71368 3.65061 5.73744 3.5939 5.80079 3.51571C5.90375 3.41791 6.01774 3.41947 6.15235 3.43759Z" fill="#F9BC2F"/>
<path d="M4.08187 3.43758C4.17893 3.48264 4.22572 3.5402 4.27719 3.63289C4.28458 3.69029 4.28777 3.74022 4.28711 3.79746C4.28723 3.81375 4.28735 3.83004 4.28748 3.84682C4.28779 3.90125 4.28754 3.95566 4.28729 4.01009C4.2874 4.04917 4.28754 4.08826 4.28771 4.12734C4.28807 4.23339 4.28793 4.33943 4.28768 4.44548C4.28748 4.55647 4.28767 4.66746 4.28779 4.77845C4.28793 4.96484 4.28774 5.15122 4.28737 5.33761C4.28695 5.55309 4.28708 5.76856 4.28751 5.98404C4.28787 6.16905 4.28792 6.35407 4.28771 6.53908C4.28759 6.64958 4.28758 6.76007 4.28783 6.87057C4.28806 6.97446 4.2879 7.07833 4.28745 7.18221C4.28735 7.22034 4.28738 7.25846 4.28755 7.29658C4.28776 7.34863 4.2875 7.40066 4.28711 7.4527C4.28728 7.46778 4.28745 7.48287 4.28763 7.49841C4.28617 7.59956 4.26241 7.65627 4.19906 7.73446C4.12446 7.80532 4.06463 7.81864 3.96469 7.82235C3.86474 7.81864 3.80491 7.80532 3.73031 7.73446C3.63952 7.61667 3.62974 7.53065 3.62991 7.38547C3.62985 7.36988 3.6298 7.35429 3.62974 7.33823C3.62957 7.28594 3.62954 7.23364 3.62951 7.18134C3.62942 7.14387 3.62932 7.1064 3.62921 7.06893C3.62896 6.96707 3.62883 6.86521 3.62874 6.76336C3.62869 6.69972 3.62861 6.63607 3.62852 6.57243C3.62825 6.37329 3.62806 6.17415 3.62799 5.97501C3.6279 5.74517 3.62756 5.51533 3.62699 5.28548C3.62657 5.1078 3.62637 4.93012 3.62635 4.75244C3.62633 4.64632 3.62621 4.54022 3.62586 4.43411C3.62554 4.33426 3.6255 4.23442 3.62567 4.13458C3.62568 4.09799 3.6256 4.06139 3.62541 4.0248C3.62516 3.97473 3.62527 3.92468 3.62548 3.87461C3.62532 3.86023 3.62516 3.84584 3.625 3.83102C3.62603 3.7218 3.64285 3.60705 3.71961 3.52413C3.83567 3.42548 3.93349 3.42379 4.08187 3.43758Z" fill="#F9BC2F"/>
<path d="M3.89526 0.302426C3.92203 0.30232 3.9488 0.302181 3.97556 0.302011C4.04804 0.301656 4.12051 0.301793 4.19299 0.302041C4.26894 0.302239 4.3449 0.302055 4.42085 0.301933C4.54839 0.301791 4.67593 0.301978 4.80347 0.30235C4.95078 0.302775 5.09809 0.302637 5.2454 0.302207C5.37203 0.301852 5.49866 0.301803 5.62529 0.302007C5.70086 0.302129 5.77642 0.302146 5.85198 0.301887C5.92304 0.301661 5.99408 0.301819 6.06514 0.30227C6.10355 0.302422 6.14197 0.30219 6.18038 0.301947C6.39013 0.303956 6.39013 0.303956 6.48438 0.39066C6.55524 0.465256 6.56855 0.52509 6.57227 0.625035C6.56855 0.724981 6.55524 0.784815 6.48438 0.85941C6.37201 0.962783 6.2513 0.948573 6.10474 0.947644C6.07797 0.94775 6.0512 0.947889 6.02444 0.948059C5.95196 0.948414 5.87949 0.948277 5.80701 0.948029C5.73106 0.947831 5.6551 0.948015 5.57915 0.948138C5.45161 0.94828 5.32407 0.948093 5.19653 0.947721C5.04922 0.947295 4.90191 0.947433 4.7546 0.947863C4.62797 0.948218 4.50134 0.948268 4.37471 0.948063C4.29914 0.947942 4.22358 0.947925 4.14802 0.948183C4.07696 0.948409 4.00592 0.948252 3.93486 0.947801C3.89645 0.947649 3.85803 0.94788 3.81962 0.948123C3.60987 0.946114 3.60987 0.946114 3.51562 0.85941C3.44476 0.784815 3.43145 0.724981 3.42773 0.625035C3.43145 0.52509 3.44476 0.465256 3.51562 0.39066C3.62799 0.287288 3.7487 0.301498 3.89526 0.302426Z" fill="#F9BC2F"/>
</g>
<defs>
<clipPath id="clip0_120_525">
<rect width="10" height="10" fill="white"/>
</clipPath>
</defs>
</svg>
