<svg width="28" height="28" viewBox="0 0 28 28" fill="none" xmlns="http://www.w3.org/2000/svg">
<path opacity="0.988" fill-rule="evenodd" clip-rule="evenodd" d="M5.42934 4.00288C10.87 3.9952 16.3107 4.00288 21.7514 4.02594C22.4969 4.21805 22.9656 4.68681 23.1577 5.43222C23.1885 10.8729 23.1885 16.3136 23.1577 21.7543C22.9656 22.4997 22.4969 22.9685 21.7514 23.1606C16.3107 23.1914 10.87 23.1914 5.42934 23.1606C4.68393 22.9685 4.21517 22.4997 4.02305 21.7543C3.99232 16.3136 3.99232 10.8729 4.02305 5.43222C4.22357 4.68613 4.69233 4.20968 5.42934 4.00288ZM5.84431 4.7406C7.19678 4.7406 8.5493 4.7406 9.90178 4.7406C9.89408 6.66182 9.90178 8.58298 9.92483 10.5041C9.94627 10.57 9.98472 10.6238 10.0401 10.6654C10.4764 10.8683 10.9221 11.045 11.3772 11.1957C11.7524 11.0757 12.1213 10.9374 12.4838 10.7807C12.8463 10.9374 13.2152 11.0757 13.5904 11.1957C13.9656 11.0757 14.3345 10.9374 14.697 10.7807C15.0595 10.9374 15.4283 11.0757 15.8036 11.1957C16.2922 11.0397 16.7609 10.8399 17.2098 10.5963C17.2785 8.64832 17.3015 6.69644 17.279 4.7406C18.6316 4.73292 19.9841 4.7406 21.3365 4.76366C21.9743 4.84819 22.3355 5.20937 22.42 5.84719C22.4431 10.5194 22.4508 15.1916 22.4431 19.8639C16.5413 19.8639 10.6395 19.8639 4.73772 19.8639C4.73004 15.1916 4.73772 10.5194 4.76078 5.84719C4.85355 5.20886 5.21473 4.83999 5.84431 4.7406ZM10.6395 4.7406C12.6068 4.7406 14.574 4.7406 16.5413 4.7406C16.549 6.50814 16.5413 8.27558 16.5182 10.043C16.2784 10.1629 16.0325 10.2704 15.7805 10.3657C15.4303 10.1943 15.0691 10.056 14.697 9.95077C14.3147 10.0687 13.9381 10.207 13.5673 10.3657C13.2171 10.1943 12.8559 10.056 12.4838 9.95077C12.1015 10.0687 11.725 10.207 11.3542 10.3657C11.1228 10.258 10.8923 10.1504 10.6626 10.043C10.6395 8.27558 10.6318 6.50814 10.6395 4.7406ZM4.73772 20.6016C10.6395 20.6016 16.5413 20.6016 22.4431 20.6016C22.4638 20.9926 22.4254 21.3768 22.3278 21.7543C22.175 22.0609 21.9367 22.2684 21.6131 22.3768C18.9403 22.43 16.266 22.4531 13.5904 22.4459C10.9148 22.4531 8.24052 22.43 5.56766 22.3768C5.07414 22.2059 4.80517 21.8601 4.76078 21.3393C4.73775 21.0939 4.73007 20.848 4.73772 20.6016Z" fill="#535050" stroke="#535050" stroke-width="0.5"/>
<g opacity="0.95">
<mask id="path-2-inside-1_122_1195" fill="white">
<path fill-rule="evenodd" clip-rule="evenodd" d="M5.96875 8.15958C6.11571 8.15061 6.26155 8.15975 6.40625 8.18693C6.50651 8.21427 6.57031 8.27809 6.59766 8.37833C6.63412 8.81583 6.63412 9.25333 6.59766 9.69083C6.57031 9.79108 6.50651 9.8549 6.40625 9.88224C6.26042 9.91872 6.11459 9.91872 5.96875 9.88224C5.86849 9.8549 5.80469 9.79108 5.77735 9.69083C5.74088 9.25333 5.74088 8.81583 5.77735 8.37833C5.81506 8.27716 5.87887 8.20421 5.96875 8.15958Z"/>
</mask>
<path fill-rule="evenodd" clip-rule="evenodd" d="M5.96875 8.15958C6.11571 8.15061 6.26155 8.15975 6.40625 8.18693C6.50651 8.21427 6.57031 8.27809 6.59766 8.37833C6.63412 8.81583 6.63412 9.25333 6.59766 9.69083C6.57031 9.79108 6.50651 9.8549 6.40625 9.88224C6.26042 9.91872 6.11459 9.91872 5.96875 9.88224C5.86849 9.8549 5.80469 9.79108 5.77735 9.69083C5.74088 9.25333 5.74088 8.81583 5.77735 8.37833C5.81506 8.27716 5.87887 8.20421 5.96875 8.15958Z" fill="#535050"/>
<path d="M5.96875 8.15958L5.90784 7.16144L5.70557 7.17378L5.52407 7.2639L5.96875 8.15958ZM6.40625 8.18693L6.66937 7.22216L6.63048 7.21156L6.59085 7.20411L6.40625 8.18693ZM6.59766 8.37833L7.5942 8.29528L7.58658 8.20377L7.56241 8.11517L6.59766 8.37833ZM6.59766 9.69083L7.56241 9.954L7.58658 9.8654L7.5942 9.77388L6.59766 9.69083ZM6.40625 9.88224L6.6489 10.8524L6.65916 10.8498L6.66937 10.847L6.40625 9.88224ZM5.96875 9.88224L5.70563 10.847L5.71584 10.8498L5.7261 10.8524L5.96875 9.88224ZM5.77735 9.69083L4.7808 9.77388L4.78843 9.8654L4.81259 9.954L5.77735 9.69083ZM5.77735 8.37833L4.84034 8.02901L4.79224 8.15805L4.7808 8.29528L5.77735 8.37833ZM6.02967 9.15773C6.09435 9.15378 6.15772 9.15773 6.22165 9.16974L6.59085 7.20411C6.36538 7.16176 6.13708 7.14745 5.90784 7.16144L6.02967 9.15773ZM6.14313 9.15169C6.0511 9.12659 5.93091 9.07113 5.82217 8.96238C5.71343 8.85363 5.65799 8.73346 5.63291 8.6415L7.56241 8.11517C7.44191 7.67342 7.1113 7.34269 6.66937 7.22216L6.14313 9.15169ZM5.60111 8.46138C5.63297 8.84361 5.63297 9.22555 5.60111 9.60778L7.5942 9.77388C7.63527 9.28111 7.63527 8.78805 7.5942 8.29528L5.60111 8.46138ZM5.63291 9.42767C5.65799 9.3357 5.71343 9.21554 5.82217 9.10679C5.93091 8.99804 6.0511 8.94258 6.14313 8.91748L6.66937 10.847C7.1113 10.7265 7.44191 10.3957 7.56241 9.954L5.63291 9.42767ZM6.1636 8.91213C6.16759 8.91113 6.17612 8.9096 6.1875 8.9096C6.19888 8.9096 6.20742 8.91113 6.2114 8.91213L5.7261 10.8524C6.03125 10.9287 6.34375 10.9287 6.6489 10.8524L6.1636 8.91213ZM6.23187 8.91748C6.3239 8.94258 6.44409 8.99804 6.55283 9.10679C6.66157 9.21554 6.71701 9.3357 6.7421 9.42767L4.81259 9.954C4.93309 10.3957 5.2637 10.7265 5.70563 10.847L6.23187 8.91748ZM6.77389 9.60778C6.74204 9.22555 6.74204 8.84361 6.77389 8.46138L4.7808 8.29528C4.73973 8.78805 4.73973 9.28111 4.7808 9.77388L6.77389 9.60778ZM6.71435 8.72766C6.69577 8.77748 6.66247 8.84178 6.6061 8.90621C6.54883 8.97167 6.48147 9.02149 6.41343 9.05527L5.52407 7.2639C5.18818 7.43065 4.95934 7.70982 4.84034 8.02901L6.71435 8.72766Z" fill="#535050" mask="url(#path-2-inside-1_122_1195)"/>
</g>
<g opacity="0.988">
<mask id="path-4-inside-2_122_1195" fill="white">
<path fill-rule="evenodd" clip-rule="evenodd" d="M5.96875 10.7846C6.11571 10.7756 6.26155 10.7847 6.40625 10.8119C6.50651 10.8393 6.57031 10.9031 6.59766 11.0033C6.63412 13.1908 6.63412 15.3783 6.59766 17.5658C6.51406 17.7308 6.37734 17.8037 6.1875 17.7846C5.99766 17.8037 5.86094 17.7308 5.77735 17.5658C5.74088 15.3783 5.74088 13.1908 5.77735 11.0033C5.81506 10.9022 5.87887 10.8292 5.96875 10.7846Z"/>
</mask>
<path fill-rule="evenodd" clip-rule="evenodd" d="M5.96875 10.7846C6.11571 10.7756 6.26155 10.7847 6.40625 10.8119C6.50651 10.8393 6.57031 10.9031 6.59766 11.0033C6.63412 13.1908 6.63412 15.3783 6.59766 17.5658C6.51406 17.7308 6.37734 17.8037 6.1875 17.7846C5.99766 17.8037 5.86094 17.7308 5.77735 17.5658C5.74088 15.3783 5.74088 13.1908 5.77735 11.0033C5.81506 10.9022 5.87887 10.8292 5.96875 10.7846Z" fill="#535050"/>
<path d="M5.96875 10.7846L5.90784 9.78644L5.70557 9.79878L5.52407 9.8889L5.96875 10.7846ZM6.40625 10.8119L6.66937 9.84716L6.63048 9.83656L6.59085 9.82911L6.40625 10.8119ZM6.59766 11.0033L7.59752 10.9867L7.59543 10.8612L7.56241 10.7402L6.59766 11.0033ZM6.59766 17.5658L7.48963 18.0179L7.59368 17.8126L7.59752 17.5825L6.59766 17.5658ZM6.1875 17.7846L6.28753 16.7896L6.1875 16.7795L6.08747 16.7896L6.1875 17.7846ZM5.77735 17.5658L4.77748 17.5825L4.78132 17.8126L4.88537 18.0179L5.77735 17.5658ZM5.77735 11.0033L4.84034 10.654L4.78035 10.8149L4.77748 10.9867L5.77735 11.0033ZM6.02967 11.7827C6.09435 11.7788 6.15772 11.7827 6.22165 11.7947L6.59085 9.82911C6.36538 9.78676 6.13708 9.77245 5.90784 9.78644L6.02967 11.7827ZM6.14313 11.7767C6.0511 11.7516 5.93091 11.6961 5.82217 11.5874C5.71343 11.4786 5.65799 11.3585 5.63291 11.2665L7.56241 10.7402C7.44191 10.2984 7.1113 9.96769 6.66937 9.84716L6.14313 11.7767ZM5.5978 11.02C5.63407 13.1964 5.63407 15.3728 5.5978 17.5492L7.59752 17.5825C7.63416 15.3839 7.63416 13.1853 7.59752 10.9867L5.5978 11.02ZM5.70568 17.1138C5.73844 17.0491 5.81605 16.9396 5.96186 16.8619C6.10509 16.7855 6.23127 16.7839 6.28753 16.7896L6.08747 18.7796C6.33357 18.8043 6.62304 18.7759 6.90299 18.6266C7.18551 18.4759 7.37328 18.2475 7.48963 18.0179L5.70568 17.1138ZM6.08747 16.7896C6.14373 16.7839 6.26991 16.7855 6.41315 16.8619C6.55895 16.9396 6.63656 17.0491 6.66932 17.1138L4.88537 18.0179C5.00172 18.2475 5.18949 18.4759 5.47202 18.6266C5.75197 18.7759 6.04143 18.8043 6.28753 18.7796L6.08747 16.7896ZM6.77721 17.5492C6.74093 15.3728 6.74093 13.1964 6.77721 11.02L4.77748 10.9867C4.74084 13.1853 4.74084 15.3839 4.77748 17.5825L6.77721 17.5492ZM6.71435 11.3527C6.69577 11.4025 6.66247 11.4668 6.6061 11.5312C6.54883 11.5967 6.48147 11.6465 6.41343 11.6803L5.52407 9.8889C5.18818 10.0557 4.95934 10.3348 4.84034 10.654L6.71435 11.3527Z" fill="#535050" mask="url(#path-4-inside-2_122_1195)"/>
</g>
<g opacity="0.957">
<mask id="path-6-inside-3_122_1195" fill="white">
<path fill-rule="evenodd" clip-rule="evenodd" d="M11.8089 13.8558C12.2298 13.8158 12.364 13.9947 12.2113 14.3923C12.0899 14.5137 11.9686 14.635 11.8472 14.7564C12.8308 14.7692 13.8144 14.782 14.798 14.7947C15.8872 15.1264 16.3662 15.8608 16.2351 16.9983C16.0371 17.7583 15.5581 18.2373 14.798 18.4354C13.4951 18.4609 12.1921 18.4609 10.8891 18.4354C10.854 18.421 10.8221 18.4019 10.7933 18.3779C10.7365 18.2552 10.7237 18.1274 10.755 17.9946C10.7742 17.9244 10.8189 17.8797 10.8891 17.8605C12.1677 17.8586 13.4451 17.833 14.7214 17.7839C15.3957 17.5406 15.6831 17.0616 15.5836 16.3468C15.4664 15.8846 15.179 15.5845 14.7214 15.4462C13.7645 15.385 12.8065 15.3722 11.8472 15.4079C11.9686 15.5292 12.0899 15.6506 12.2113 15.7719C12.3117 15.9723 12.2798 16.1448 12.1154 16.2893C11.9827 16.3206 11.8549 16.3078 11.7322 16.251C11.4192 15.938 11.1063 15.6251 10.7933 15.3121C10.7167 15.1588 10.7167 15.0055 10.7933 14.8522C11.1278 14.5113 11.4663 14.1791 11.8089 13.8558Z"/>
</mask>
<path fill-rule="evenodd" clip-rule="evenodd" d="M11.8089 13.8558C12.2298 13.8158 12.364 13.9947 12.2113 14.3923C12.0899 14.5137 11.9686 14.635 11.8472 14.7564C12.8308 14.7692 13.8144 14.782 14.798 14.7947C15.8872 15.1264 16.3662 15.8608 16.2351 16.9983C16.0371 17.7583 15.5581 18.2373 14.798 18.4354C13.4951 18.4609 12.1921 18.4609 10.8891 18.4354C10.854 18.421 10.8221 18.4019 10.7933 18.3779C10.7365 18.2552 10.7237 18.1274 10.755 17.9946C10.7742 17.9244 10.8189 17.8797 10.8891 17.8605C12.1677 17.8586 13.4451 17.833 14.7214 17.7839C15.3957 17.5406 15.6831 17.0616 15.5836 16.3468C15.4664 15.8846 15.179 15.5845 14.7214 15.4462C13.7645 15.385 12.8065 15.3722 11.8472 15.4079C11.9686 15.5292 12.0899 15.6506 12.2113 15.7719C12.3117 15.9723 12.2798 16.1448 12.1154 16.2893C11.9827 16.3206 11.8549 16.3078 11.7322 16.251C11.4192 15.938 11.1063 15.6251 10.7933 15.3121C10.7167 15.1588 10.7167 15.0055 10.7933 14.8522C11.1278 14.5113 11.4663 14.1791 11.8089 13.8558Z" fill="#535050"/>
<path d="M11.8089 13.8558L11.7143 12.8603L11.3723 12.8928L11.1224 13.1286L11.8089 13.8558ZM12.2113 14.3923L12.9184 15.0994L13.0686 14.9492L13.1448 14.7509L12.2113 14.3923ZM11.8472 14.7564L11.1401 14.0493L9.46381 15.7256L11.8342 15.7563L11.8472 14.7564ZM14.798 14.7947L15.0893 13.8381L14.9532 13.7966L14.811 13.7948L14.798 14.7947ZM16.2351 16.9983L17.2028 17.2504L17.2205 17.1825L17.2285 17.1128L16.2351 16.9983ZM14.798 18.4354L14.8176 19.4352L14.9358 19.4328L15.0501 19.403L14.798 18.4354ZM10.8891 18.4354L10.5111 19.3612L10.6834 19.4315L10.8695 19.4352L10.8891 18.4354ZM10.7933 18.3779L9.88592 18.7981L9.98024 19.0018L10.1525 19.1456L10.7933 18.3779ZM10.755 17.9946L9.79025 17.7315L9.78569 17.7482L9.78171 17.7651L10.755 17.9946ZM10.8891 17.8605L10.8876 16.8605L10.7545 16.8607L10.626 16.8958L10.8891 17.8605ZM14.7214 17.7839L14.7599 18.7831L14.9148 18.7772L15.0607 18.7245L14.7214 17.7839ZM15.5836 16.3468L16.5741 16.2089L16.5665 16.1543L16.5529 16.1009L15.5836 16.3468ZM14.7214 15.4462L15.0106 14.4889L14.9003 14.4556L14.7852 14.4482L14.7214 15.4462ZM11.8472 15.4079L11.81 14.4086L9.51888 14.4938L11.1401 16.115L11.8472 15.4079ZM12.2113 15.7719L13.1052 15.3238L13.0327 15.1792L12.9184 15.0648L12.2113 15.7719ZM12.1154 16.2893L12.345 17.2626L12.5882 17.2052L12.7758 17.0402L12.1154 16.2893ZM11.7322 16.251L11.0251 16.9581L11.1507 17.0837L11.312 17.1584L11.7322 16.251ZM10.7933 15.3121L9.8989 15.7593L9.97147 15.9044L10.0862 16.0192L10.7933 15.3121ZM10.7933 14.8522L10.0795 14.1519L9.96928 14.2642L9.8989 14.405L10.7933 14.8522ZM11.9034 14.8513C11.9444 14.8474 11.9081 14.857 11.8281 14.837C11.7382 14.8145 11.5641 14.7452 11.4252 14.56C11.287 14.3757 11.2697 14.1914 11.2725 14.1029C11.2751 14.0236 11.2931 13.9938 11.2777 14.0338L13.1448 14.7509C13.2374 14.5097 13.4299 13.8996 13.0252 13.36C12.6169 12.8155 11.9727 12.8358 11.7143 12.8603L11.9034 14.8513ZM11.5041 13.6852C11.4435 13.7459 11.3828 13.8066 11.3221 13.8673C11.2614 13.9279 11.2008 13.9886 11.1401 14.0493L12.5543 15.4635C12.615 15.4028 12.6757 15.3421 12.7363 15.2815C12.797 15.2208 12.8577 15.1601 12.9184 15.0994L11.5041 13.6852ZM11.8342 15.7563C12.326 15.7627 12.8178 15.7691 13.3096 15.7755C13.8014 15.7819 14.2932 15.7883 14.785 15.7946L14.811 13.7948C14.3192 13.7884 13.8274 13.782 13.3356 13.7756C12.8438 13.7693 12.352 13.7629 11.8602 13.7565L11.8342 15.7563ZM14.5067 15.7514C14.8948 15.8695 15.0595 16.0224 15.1366 16.1406C15.2141 16.2595 15.2888 16.475 15.2417 16.8838L17.2285 17.1128C17.3125 16.3841 17.2132 15.6636 16.8118 15.0481C16.4098 14.4317 15.7904 14.0516 15.0893 13.8381L14.5067 15.7514ZM15.2674 16.7461C15.206 16.9818 15.1151 17.1256 15.0202 17.2205C14.9254 17.3153 14.7816 17.4063 14.5459 17.4677L15.0501 19.403C15.5745 19.2664 16.0503 19.0188 16.4344 18.6347C16.8186 18.2505 17.0662 17.7747 17.2028 17.2504L15.2674 16.7461ZM14.7784 17.4355C13.4885 17.4608 12.1986 17.4608 10.9087 17.4355L10.8695 19.4352C12.1856 19.461 13.5016 19.461 14.8176 19.4352L14.7784 17.4355ZM11.2671 17.5095C11.3257 17.5334 11.3826 17.5672 11.4341 17.6101L10.1525 19.1456C10.2615 19.2365 10.3824 19.3086 10.5111 19.3612L11.2671 17.5095ZM11.7007 17.9576C11.7167 17.992 11.7308 18.0375 11.7361 18.0905C11.7414 18.1434 11.7365 18.1895 11.7283 18.2242L9.78171 17.7651C9.69945 18.1139 9.73422 18.4706 9.88592 18.7981L11.7007 17.9576ZM11.7198 18.2578C11.6906 18.3648 11.6283 18.4973 11.51 18.6155C11.3917 18.7338 11.2593 18.7961 11.1523 18.8253L10.626 16.8958C10.2141 17.0081 9.90258 17.3197 9.79025 17.7315L11.7198 18.2578ZM10.8906 18.8605C12.1815 18.8586 13.4712 18.8328 14.7599 18.7831L14.6829 16.7846C13.4189 16.8333 12.1538 16.8586 10.8876 16.8605L10.8906 18.8605ZM15.0607 18.7245C15.5521 18.5473 16.0078 18.2439 16.3002 17.7567C16.592 17.2703 16.646 16.7257 16.5741 16.2089L14.5932 16.4846C14.607 16.5843 14.6034 16.6478 14.5979 16.6832C14.5927 16.7159 14.5857 16.7268 14.5852 16.7277C14.5847 16.7285 14.579 16.7389 14.5541 16.7576C14.527 16.778 14.4745 16.8099 14.3821 16.8432L15.0607 18.7245ZM16.5529 16.1009C16.3492 15.2976 15.8028 14.7283 15.0106 14.4889L14.4321 16.4035C14.5212 16.4304 14.5501 16.4585 14.5578 16.4666C14.5655 16.4746 14.5918 16.504 14.6143 16.5927L16.5529 16.1009ZM14.7852 14.4482C13.7947 14.3848 12.8029 14.3716 11.81 14.4086L11.8844 16.4072C12.81 16.3728 13.7344 16.3851 14.6575 16.4442L14.7852 14.4482ZM11.1401 16.115C11.1422 16.1171 11.1494 16.1243 11.1515 16.1264C11.1553 16.1302 11.1491 16.124 11.1529 16.1278C11.1531 16.128 11.1534 16.1283 11.1536 16.1285C11.1538 16.1287 11.1541 16.129 11.1543 16.1292C11.1578 16.1327 11.1537 16.1286 11.1572 16.1321C11.1662 16.1411 11.1537 16.1286 11.1628 16.1377C11.1652 16.1401 11.1832 16.1581 11.1856 16.1605C11.2282 16.2031 11.1544 16.1293 11.197 16.1719C11.2084 16.1833 11.1884 16.1633 11.1998 16.1747C11.2012 16.1761 11.2012 16.1761 11.2027 16.1776C11.2027 16.1776 11.2055 16.1804 11.2055 16.1804C11.2075 16.1824 11.2063 16.1812 11.2083 16.1832C11.2086 16.1835 11.2088 16.1837 11.2091 16.184C11.2093 16.1842 11.2095 16.1844 11.2098 16.1847C11.21 16.1849 11.2102 16.1851 11.2105 16.1854C11.2107 16.1856 11.211 16.1859 11.2112 16.1861C11.2171 16.192 11.2082 16.1831 11.214 16.1889C11.2199 16.1948 11.2138 16.1887 11.2197 16.1946C11.2266 16.2015 11.2242 16.1991 11.2311 16.206C11.2983 16.2732 11.2549 16.2298 11.3221 16.297C11.3304 16.3053 11.4048 16.3797 11.4131 16.388C11.4652 16.4401 11.4066 16.3815 11.4586 16.4335C11.461 16.4359 11.479 16.4539 11.4814 16.4563C11.4833 16.4582 11.4852 16.4601 11.4871 16.462C11.4993 16.4742 11.4806 16.4555 11.4928 16.4677C11.5016 16.4765 11.4953 16.4702 11.5041 16.479L12.9184 15.0648C12.9154 15.0619 12.9199 15.0664 12.9169 15.0634C12.9165 15.0629 12.916 15.0625 12.9155 15.062C12.9133 15.0597 12.9164 15.0628 12.9141 15.0606C12.9136 15.0601 12.9131 15.0596 12.9127 15.0591C12.8974 15.0439 12.9222 15.0687 12.907 15.0535C12.9022 15.0487 12.9089 15.0554 12.9041 15.0506C12.9036 15.05 12.9019 15.0484 12.9013 15.0478C12.8994 15.0459 12.8975 15.044 12.8956 15.0421C12.8948 15.0413 12.8949 15.0414 12.8942 15.0407C12.8894 15.0359 12.8975 15.044 12.8928 15.0392C12.8894 15.0359 12.8947 15.0412 12.8913 15.0378C12.8911 15.0376 12.8909 15.0373 12.8906 15.0371C12.8904 15.0369 12.8902 15.0366 12.8899 15.0364C12.8818 15.0283 12.8924 15.0388 12.8842 15.0307C12.8813 15.0278 12.8757 15.0222 12.8728 15.0193C12.8303 14.9768 12.904 15.0505 12.8615 15.0079C12.8613 15.0078 12.8588 15.0052 12.8586 15.0051C12.8577 15.0042 12.8567 15.0032 12.8558 15.0023C12.8539 15.0004 12.8548 15.0013 12.8529 14.9994C12.8488 14.9953 12.8542 15.0007 12.8501 14.9966C12.8456 14.992 12.8518 14.9983 12.8473 14.9937C12.8422 14.9887 12.8495 14.9959 12.8444 14.9909C12.8442 14.9906 12.8439 14.9904 12.8437 14.9902C12.8435 14.9899 12.8432 14.9897 12.843 14.9895C12.8425 14.989 12.842 14.9885 12.8416 14.988C12.8275 14.9739 12.8528 14.9993 12.8387 14.9852C12.8356 14.9821 12.8361 14.9826 12.833 14.9795C12.8328 14.9793 12.8326 14.979 12.8323 14.9788C12.8321 14.9786 12.8318 14.9783 12.8316 14.9781C12.8309 14.9774 12.8309 14.9773 12.8302 14.9767C12.8057 14.9521 12.8519 14.9983 12.8273 14.9738C12.7805 14.9269 12.8515 14.9979 12.8046 14.9511C12.8031 14.9496 12.8032 14.9497 12.8017 14.9482C12.7993 14.9458 12.8013 14.9478 12.7989 14.9454C12.7893 14.9358 12.8028 14.9493 12.7932 14.9397C12.7918 14.9383 12.7918 14.9382 12.7904 14.9368C12.7872 14.9336 12.7907 14.9372 12.7875 14.934C12.7776 14.924 12.7946 14.9411 12.7847 14.9312C12.775 14.9215 12.7915 14.938 12.7818 14.9283C12.7398 14.8863 12.7784 14.9249 12.7363 14.8828C12.6986 14.8451 12.6831 14.8295 12.6453 14.7918C12.6323 14.7788 12.6469 14.7934 12.6339 14.7804C12.6211 14.7676 12.6354 14.7818 12.6226 14.769C12.6205 14.7669 12.6133 14.7598 12.6112 14.7577C12.6101 14.7566 12.6066 14.753 12.6055 14.752C12.6025 14.7489 12.6071 14.7536 12.6041 14.7505C12.604 14.7505 12.6027 14.7492 12.6027 14.7491C12.5972 14.7436 12.6067 14.7532 12.6012 14.7477C12.601 14.7475 12.6008 14.7472 12.6005 14.747C12.6003 14.7468 12.6 14.7465 12.5998 14.7463C12.5887 14.7351 12.6053 14.7517 12.5941 14.7406C12.5892 14.7356 12.5977 14.7441 12.5927 14.7392C12.5925 14.7389 12.5922 14.7387 12.592 14.7385C12.5917 14.7382 12.5915 14.738 12.5913 14.7377C12.5896 14.7361 12.5901 14.7366 12.5884 14.7349C12.5773 14.7238 12.5881 14.7346 12.5771 14.7235C12.5716 14.718 12.5769 14.7233 12.5714 14.7178C12.5546 14.7011 12.5824 14.7289 12.5657 14.7121C12.5535 14.6999 12.5665 14.713 12.5543 14.7008L11.1401 16.115ZM11.3173 16.22C11.2973 16.1801 11.2458 16.0506 11.2794 15.8695C11.3135 15.6853 11.4115 15.5767 11.4551 15.5384L12.7758 17.0402C12.9838 16.8574 13.1799 16.5903 13.2459 16.2336C13.3114 15.8801 13.2257 15.5641 13.1052 15.3238L11.3173 16.22ZM11.8859 15.316C11.9206 15.3078 11.9667 15.3029 12.0196 15.3082C12.0726 15.3135 12.118 15.3276 12.1525 15.3436L11.312 17.1584C11.6395 17.3101 11.9962 17.3448 12.345 17.2626L11.8859 15.316ZM12.4393 15.5439C12.4343 15.5389 12.4297 15.5342 12.4247 15.5292C12.4092 15.5137 12.4328 15.5373 12.4173 15.5219C12.4167 15.5213 12.4106 15.5151 12.41 15.5145C12.3907 15.4952 12.4146 15.5192 12.3953 15.4999C12.3676 15.4721 12.4157 15.5202 12.388 15.4925C12.3785 15.483 12.3902 15.4947 12.3806 15.4852C12.3397 15.4443 12.3629 15.4674 12.322 15.4265C12.291 15.3955 12.3236 15.4282 12.2926 15.3972C12.2885 15.393 12.2894 15.394 12.2853 15.3898C12.2396 15.3442 12.3236 15.4281 12.278 15.3825C12.2768 15.3814 12.2754 15.3799 12.2743 15.3788C12.2737 15.3782 12.2731 15.3776 12.2725 15.377C12.2718 15.3764 12.2712 15.3758 12.2706 15.3752C12.2704 15.3749 12.2672 15.3717 12.267 15.3715C12.2641 15.3687 12.2661 15.3706 12.2633 15.3678C12.1973 15.3018 12.2706 15.3751 12.2046 15.3091C12.1996 15.3041 12.195 15.2995 12.1899 15.2945C12.1872 15.2918 12.1853 15.2898 12.1826 15.2871C12.1743 15.2788 12.1873 15.2918 12.1789 15.2835C12.1783 15.2829 12.1777 15.2822 12.1771 15.2816C12.1765 15.281 12.1759 15.2804 12.1753 15.2798C12.1255 15.23 12.1957 15.3003 12.1459 15.2505C12.1376 15.2421 12.1396 15.2442 12.1313 15.2358C12.0874 15.192 12.1677 15.2723 12.1239 15.2284C12.1002 15.2048 12.1403 15.2448 12.1166 15.2211C12.082 15.1865 12.1219 15.2264 12.0872 15.1918C12.0718 15.1763 12.0733 15.1779 12.0579 15.1624C12.0481 15.1527 12.0383 15.1428 12.0286 15.1331C12.0279 15.1325 12.0273 15.1319 12.0267 15.1313C12.0261 15.1306 12.0255 15.13 12.0249 15.1294C12.0243 15.1288 12.0237 15.1282 12.0231 15.1276C12.0224 15.127 12.0218 15.1264 12.0212 15.1258C11.9784 15.0829 12.0567 15.1612 12.0139 15.1184C12.0133 15.1178 12.0127 15.1172 12.0121 15.1166C12.0114 15.116 12.0108 15.1154 12.0102 15.1148C12.0032 15.1078 12.0136 15.1181 12.0066 15.1111C12.0018 15.1063 12.0076 15.1122 12.0029 15.1074C12.0023 15.1068 12.0017 15.1062 12.0011 15.1056C12.0004 15.105 11.9998 15.1044 11.9992 15.1038C11.9602 15.0648 12.0235 15.1281 11.9846 15.0891C11.9839 15.0885 11.9833 15.0879 11.9827 15.0873C11.9821 15.0866 11.9815 15.086 11.9809 15.0854C11.9776 15.0821 11.9805 15.085 11.9772 15.0817C11.9749 15.0794 11.9722 15.0768 11.9699 15.0744C11.9693 15.0738 11.9687 15.0732 11.968 15.0726C11.9674 15.072 11.9668 15.0714 11.9662 15.0707C11.9656 15.0701 11.965 15.0695 11.9644 15.0689C11.9638 15.0683 11.9632 15.0677 11.9625 15.0671C11.9619 15.0665 11.9613 15.0659 11.9607 15.0652C11.9601 15.0646 11.9595 15.064 11.9589 15.0634C11.9583 15.0628 11.9577 15.0622 11.957 15.0616C11.9564 15.061 11.9558 15.0604 11.9552 15.0597C11.9492 15.0538 11.9538 15.0584 11.9479 15.0524C11.9473 15.0518 11.9467 15.0512 11.946 15.0506C11.9454 15.05 11.9448 15.0494 11.9442 15.0487C11.9442 15.0487 11.9406 15.0451 11.9405 15.0451C11.9304 15.0349 11.9434 15.0479 11.9332 15.0377C11.9116 15.0161 11.9475 15.052 11.9259 15.0304C11.9148 15.0193 11.9296 15.0342 11.9185 15.0231C11.9179 15.0225 11.9173 15.0218 11.9167 15.0212C11.9161 15.0206 11.9155 15.02 11.9149 15.0194C11.9143 15.0188 11.9136 15.0182 11.913 15.0176C11.9124 15.017 11.9118 15.0163 11.9112 15.0157C11.8792 14.9838 11.9138 15.0184 11.8819 14.9864C11.8804 14.9849 11.876 14.9806 11.8745 14.9791C11.8709 14.9754 11.8708 14.9754 11.8672 14.9717C11.8661 14.9706 11.8646 14.9691 11.8635 14.9681C11.8629 14.9674 11.8623 14.9668 11.8617 14.9662C11.8611 14.9656 11.8605 14.965 11.8599 14.9644C11.8549 14.9595 11.8575 14.962 11.8525 14.9571C11.829 14.9335 11.8614 14.9659 11.8378 14.9424C11.7856 14.8901 11.8828 14.9873 11.8305 14.935C11.8299 14.9344 11.8293 14.9338 11.8287 14.9332C11.8281 14.9326 11.8275 14.932 11.8268 14.9314C11.8262 14.9308 11.8256 14.9302 11.825 14.9295C11.8244 14.9289 11.8238 14.9283 11.8232 14.9277C11.8152 14.9197 11.8275 14.932 11.8195 14.924C11.8189 14.9234 11.8183 14.9228 11.8177 14.9222C11.8171 14.9216 11.8165 14.921 11.8158 14.9204C11.8046 14.9091 11.8198 14.9243 11.8085 14.913C11.8079 14.9124 11.8073 14.9118 11.8067 14.9112C11.8061 14.9106 11.8055 14.91 11.8048 14.9094C11.8029 14.9074 11.8032 14.9077 11.8012 14.9057C11.791 14.8956 11.804 14.9085 11.7938 14.8984C11.7475 14.8521 11.8255 14.93 11.7792 14.8837C11.7706 14.8752 11.7804 14.8849 11.7718 14.8764C11.7601 14.8646 11.7763 14.8808 11.7645 14.869C11.7372 14.8418 11.7771 14.8816 11.7498 14.8544C11.732 14.8365 11.7604 14.8649 11.7425 14.847C11.7364 14.8409 11.7449 14.8495 11.7388 14.8434C11.7312 14.8357 11.7428 14.8473 11.7352 14.8397C11.6713 14.7758 11.6817 14.7862 11.6178 14.7223C11.5691 14.6737 11.6078 14.7123 11.5591 14.6636C11.515 14.6196 11.5885 14.6931 11.5444 14.649C11.5435 14.648 11.5417 14.6463 11.5408 14.6453C11.5374 14.6419 11.5405 14.645 11.5371 14.6416C11.5176 14.6221 11.5493 14.6538 11.5298 14.6343C11.5083 14.6129 11.5365 14.6411 11.5151 14.6196C11.5101 14.6147 11.5164 14.6209 11.5114 14.616C11.5108 14.6154 11.5102 14.6147 11.5096 14.6141C11.509 14.6135 11.5084 14.6129 11.5078 14.6123C11.5008 14.6053 11.5111 14.6156 11.5041 14.6086C11.5035 14.608 11.5029 14.6074 11.5023 14.6068C11.5017 14.6062 11.501 14.6056 11.5004 14.605L10.0862 16.0192C10.1219 16.0549 10.1092 16.0421 10.1449 16.0779C10.1598 16.0928 10.1593 16.0923 10.1742 16.1072C10.1931 16.126 10.1701 16.1031 10.1889 16.1219C10.218 16.151 10.1745 16.1074 10.2036 16.1365C10.2171 16.1501 10.2487 16.1817 10.2623 16.1952C10.2825 16.2155 10.2713 16.2043 10.2916 16.2246C10.3375 16.2705 10.2604 16.1933 10.3063 16.2392C10.3124 16.2454 10.3074 16.2404 10.3136 16.2466C10.3308 16.2638 10.3037 16.2367 10.3209 16.2539C10.3343 16.2673 10.425 16.3579 10.4383 16.3713C10.4766 16.4096 10.5173 16.4503 10.5557 16.4886C10.5861 16.5191 10.5399 16.4728 10.5703 16.5033C10.572 16.5049 10.5724 16.5053 10.574 16.507C10.5767 16.5097 10.575 16.5079 10.5777 16.5106C10.5783 16.5112 10.5789 16.5119 10.5795 16.5125C10.5801 16.5131 10.5807 16.5137 10.5813 16.5143C10.5838 16.5167 10.5826 16.5155 10.585 16.518C10.6036 16.5366 10.5737 16.5067 10.5923 16.5253C10.605 16.538 10.587 16.5199 10.5997 16.5326C10.6523 16.5853 10.5617 16.4947 10.6143 16.5473C10.6431 16.5761 10.6443 16.5772 10.673 16.606C10.7147 16.6477 10.69 16.6229 10.7317 16.6647C10.7513 16.6842 10.7708 16.7038 10.7904 16.7233C10.8466 16.7795 10.8516 16.7845 10.9078 16.8407C10.97 16.903 10.9042 16.8371 10.9664 16.8994C10.9865 16.9194 10.9611 16.894 10.9811 16.9141C10.9817 16.9147 10.9823 16.9153 10.9829 16.9159C10.9835 16.9165 10.9842 16.9171 10.9848 16.9177C10.9854 16.9183 10.986 16.919 10.9866 16.9196C10.9872 16.9202 10.9878 16.9208 10.9884 16.9214C10.9917 16.9247 10.9925 16.9254 10.9958 16.9287C11.0503 16.9833 10.9559 16.8889 11.0104 16.9434C11.0268 16.9598 11.0014 16.9344 11.0178 16.9507C11.0184 16.9514 11.019 16.952 11.0196 16.9526C11.0202 16.9532 11.0208 16.9538 11.0214 16.9544C11.0221 16.955 11.0227 16.9556 11.0233 16.9562C11.0239 16.9569 11.0245 16.9575 11.0251 16.9581L12.4393 15.5439ZM11.6878 14.8649C11.7106 14.9105 11.7358 14.986 11.7358 15.0821C11.7358 15.1783 11.7106 15.2538 11.6878 15.2994L9.8989 14.405C9.68149 14.8398 9.68149 15.3245 9.8989 15.7593L11.6878 14.8649ZM11.5071 15.5525C11.8328 15.2206 12.1622 14.8975 12.4953 14.583L11.1224 13.1286C10.7705 13.4608 10.4228 13.8019 10.0795 14.1519L11.5071 15.5525Z" fill="#535050" mask="url(#path-6-inside-3_122_1195)"/>
</g>
</svg>
