<svg width="28" height="28" viewBox="0 0 28 28" fill="none" xmlns="http://www.w3.org/2000/svg">
<path opacity="0.966" fill-rule="evenodd" clip-rule="evenodd" d="M6.40476 5.00255C11.3502 4.99575 16.2955 5.00255 21.2409 5.02293C22.5476 5.25628 23.3287 6.0239 23.5845 7.32579C23.6117 10.4778 23.6117 13.6298 23.5845 16.7818C23.3287 18.0836 22.5476 18.8513 21.2409 19.0846C18.2791 19.0982 15.3173 19.1118 12.3555 19.1254C10.4738 20.4365 8.59215 21.7475 6.71045 23.0586C6.69007 21.7408 6.68328 20.4229 6.69007 19.105C5.38408 19.0126 4.52136 18.3469 4.1019 17.1078C4.06473 16.9328 4.03756 16.7562 4.02038 16.578C3.99321 13.5483 3.99321 10.5185 4.02038 7.48882C4.14495 6.44055 4.6816 5.68652 5.63034 5.22672C5.88781 5.13197 6.14595 5.05725 6.40476 5.00255ZM6.56779 6.18455C11.3909 6.17775 16.214 6.18455 21.0371 6.20493C21.7817 6.32461 22.2369 6.75258 22.4025 7.48882C22.4297 10.5321 22.4297 13.5754 22.4025 16.6187C22.2367 17.3552 21.7816 17.7831 21.0371 17.9026C18.0074 17.9162 14.9776 17.9298 11.9479 17.9434C10.5961 18.8876 9.24428 19.8319 7.89244 20.7761C7.87206 19.8252 7.86526 18.8742 7.87207 17.923C7.45067 17.9298 7.0295 17.923 6.60855 17.9026C5.749 17.7767 5.28028 17.2808 5.20238 16.4149C5.16264 13.3978 5.17623 10.3817 5.24314 7.36654C5.44105 6.6944 5.8826 6.3004 6.56779 6.18455Z" fill="#535050"/>
<path d="M8.67861 9.7998L9.15009 11.2509H10.6758L9.44148 12.1477L9.91296 13.5987L8.67861 12.7019L7.44426 13.5987L7.91574 12.1477L6.68139 11.2509H8.20713L8.67861 9.7998Z" fill="#535050"/>
<path d="M13.5785 9.7998L14.05 11.2509H15.5757L14.3414 12.1477L14.8129 13.5987L13.5785 12.7019L12.3442 13.5987L12.8156 12.1477L11.5813 11.2509H13.107L13.5785 9.7998Z" fill="#535050"/>
<path d="M18.4784 9.7998L18.9499 11.2509H20.4756L19.2413 12.1477L19.7128 13.5987L18.4784 12.7019L17.2441 13.5987L17.7155 12.1477L16.4812 11.2509H18.0069L18.4784 9.7998Z" fill="#535050"/>
</svg>
