<svg width="27" height="28" viewBox="0 0 27 28" fill="none" xmlns="http://www.w3.org/2000/svg">
<g clip-path="url(#clip0_122_1156)">
<path opacity="0.976" fill-rule="evenodd" clip-rule="evenodd" d="M26.3741 16.3594C26.3741 17.6719 26.3741 18.9844 26.3741 20.2969C26.2113 20.8434 25.8762 21.2262 25.3687 21.4453C25.3746 22.2833 25.1254 23.0216 24.621 23.6602C25.1195 23.6784 25.6179 23.6966 26.1163 23.7148C26.2123 23.7895 26.2982 23.8716 26.3741 23.9609C26.3741 24.1432 26.3741 24.3255 26.3741 24.5078C26.2982 24.5972 26.2123 24.6792 26.1163 24.7539C17.4882 24.7904 8.86004 24.7904 0.231934 24.7539C0.135942 24.6792 0.0500042 24.5972 -0.0258789 24.5078C-0.0258789 24.3255 -0.0258789 24.1432 -0.0258789 23.9609C0.0500042 23.8716 0.135942 23.7895 0.231934 23.7148C1.41787 23.6966 2.60381 23.6784 3.78975 23.6602C3.28812 23.0394 3.0475 22.3193 3.06787 21.5C2.3594 21.5244 1.65472 21.497 0.953809 21.418C0.454773 21.2079 0.12821 20.8342 -0.0258789 20.2969C-0.0258789 15.2656 -0.0258789 10.2344 -0.0258789 5.20313C0.153784 4.60248 0.531909 4.21055 1.1085 4.02735C6.29914 3.99088 11.4897 3.99088 16.6804 4.02735C17.2562 4.20052 17.6257 4.59245 17.789 5.20313C17.8147 6.62489 17.8234 8.04677 17.8147 9.46875C19.3961 9.45962 20.9773 9.46875 22.5585 9.4961C22.9665 9.63702 23.2845 9.90138 23.5124 10.2891C24.4415 12.3328 25.3954 14.3562 26.3741 16.3594ZM1.521 5.09375C6.43666 5.08463 11.3523 5.09375 16.2679 5.1211C16.4543 5.15465 16.6004 5.25491 16.7062 5.42188C16.7319 10.4166 16.7405 15.4114 16.7319 20.4063C14.1879 20.4245 11.6442 20.4063 9.10068 20.3516C8.41485 18.7571 7.24614 18.0553 5.59443 18.2461C4.45081 18.5021 3.66019 19.2039 3.22256 20.3516C2.58437 20.4291 1.94843 20.42 1.31475 20.3242C1.20303 20.2787 1.12568 20.1966 1.08271 20.0781C1.01954 19.8274 0.993759 19.5722 1.00537 19.3125C1.60718 19.3216 2.20874 19.3125 2.81006 19.2852C2.90459 19.2213 2.98193 19.1393 3.04209 19.0391C3.07647 18.1276 3.07647 17.2162 3.04209 16.3047C2.98193 16.2044 2.90459 16.1224 2.81006 16.0586C2.20874 16.0313 1.60718 16.0221 1.00537 16.0313C0.996776 12.5677 1.00537 9.10409 1.03115 5.64063C1.06616 5.32108 1.22945 5.13879 1.521 5.09375ZM17.8147 10.5625C19.2586 10.5534 20.7024 10.5625 22.146 10.5898C22.313 10.6025 22.4419 10.6846 22.5327 10.8359C22.655 11.1046 22.7839 11.3689 22.9194 11.6289C21.6475 11.6471 20.3757 11.6654 19.1038 11.6836C18.9224 11.8031 18.8278 11.9763 18.8202 12.2031C18.7858 13.6615 18.7858 15.1198 18.8202 16.5781C18.8278 16.8049 18.9224 16.9781 19.1038 17.0977C21.1663 17.125 23.2288 17.1341 25.2913 17.125C25.2999 18.1095 25.2913 19.0939 25.2655 20.0781C25.2183 20.1234 25.184 20.1781 25.1624 20.2422C24.3732 18.6251 23.1271 17.978 21.4241 18.3008C20.4147 18.6332 19.71 19.3168 19.3101 20.3516C18.8128 20.4061 18.3144 20.4244 17.8147 20.4063C17.8147 17.125 17.8147 13.8438 17.8147 10.5625ZM19.8772 12.75C21.0633 12.7409 22.2492 12.75 23.4351 12.7773C23.9507 13.8529 24.4663 14.9284 24.9819 16.0039C23.2805 16.0313 21.5789 16.0404 19.8772 16.0313C19.8772 14.9375 19.8772 13.8438 19.8772 12.75ZM1.00537 17.125C1.33193 17.125 1.6585 17.125 1.98506 17.125C1.98506 17.4896 1.98506 17.8541 1.98506 18.2188C1.6585 18.2188 1.33193 18.2188 1.00537 18.2188C1.00537 17.8541 1.00537 17.4896 1.00537 17.125ZM5.74912 19.3672C6.98559 19.249 7.78481 19.8141 8.14678 21.0625C8.28332 22.3751 7.75913 23.2227 6.57412 23.6055C5.33657 23.7503 4.53734 23.1943 4.17647 21.9375C4.05059 20.6236 4.57481 19.7668 5.74912 19.3672ZM21.8366 19.3672C23.0731 19.249 23.8723 19.8141 24.2343 21.0625C24.3708 22.3751 23.8466 23.2227 22.6616 23.6055C21.4241 23.7503 20.6249 23.1943 20.264 21.9375C20.1381 20.6236 20.6623 19.7668 21.8366 19.3672ZM9.25537 21.5C12.5383 21.4909 15.821 21.5 19.1038 21.5273C19.1382 22.3295 19.396 23.0404 19.8772 23.6602C16.096 23.6966 12.3147 23.6966 8.5335 23.6602C9.03504 23.0397 9.27569 22.3196 9.25537 21.5Z" fill="#535050"/>
<path opacity="0.908" fill-rule="evenodd" clip-rule="evenodd" d="M5.38836 6.86333C5.99803 6.77167 6.24729 7.04511 6.13602 7.68364C5.94756 7.94477 5.69835 8.0268 5.38836 7.92973C5.14217 7.72985 5.06483 7.46555 5.15633 7.13676C5.22676 7.03494 5.30411 6.94383 5.38836 6.86333Z" fill="#535050"/>
<path opacity="0.989" fill-rule="evenodd" clip-rule="evenodd" d="M7.45088 6.86329C9.78846 6.85416 12.1259 6.86329 14.4634 6.89063C14.7096 7.09052 14.7869 7.35482 14.6954 7.6836C14.6352 7.78384 14.5579 7.86587 14.4634 7.9297C12.1259 7.96617 9.78836 7.96617 7.45088 7.9297C7.20466 7.72981 7.12732 7.46551 7.21884 7.13673C7.28928 7.0349 7.36662 6.94379 7.45088 6.86329Z" fill="#535050"/>
<path opacity="0.985" fill-rule="evenodd" clip-rule="evenodd" d="M9.51338 9.05079C11.1635 9.04166 12.8135 9.05079 14.4634 9.07813C14.7096 9.27802 14.7869 9.54232 14.6954 9.8711C14.6352 9.97134 14.5579 10.0534 14.4634 10.1172C12.8134 10.1537 11.1634 10.1537 9.51338 10.1172C9.26716 9.91731 9.18982 9.65301 9.28134 9.32423C9.35178 9.2224 9.42912 9.13129 9.51338 9.05079Z" fill="#535050"/>
<path opacity="0.947" fill-rule="evenodd" clip-rule="evenodd" d="M5.80089 19.9883C6.83988 19.878 7.29533 20.3702 7.1673 21.4649C6.8918 22.0802 6.43635 22.3081 5.80089 22.1484C5.22071 21.8563 5.00586 21.3732 5.15636 20.6992C5.27769 20.361 5.49255 20.124 5.80089 19.9883Z" fill="#535050"/>
<path opacity="0.946" fill-rule="evenodd" clip-rule="evenodd" d="M21.8885 19.9883C22.9274 19.878 23.3829 20.3702 23.2549 21.4649C22.9794 22.0802 22.5239 22.3081 21.8885 22.1484C21.305 21.8495 21.0901 21.3665 21.2439 20.6992C21.3653 20.361 21.5801 20.124 21.8885 19.9883Z" fill="#535050"/>
</g>
<defs>
<clipPath id="clip0_122_1156">
<rect width="26.4" height="28" fill="white"/>
</clipPath>
</defs>
</svg>
