<svg width="22" height="21" viewBox="0 0 22 21" fill="none" xmlns="http://www.w3.org/2000/svg">
<path opacity="0.981" fill-rule="evenodd" clip-rule="evenodd" d="M9.81619 2.19507C12.1034 3.4631 13.5184 5.33812 14.0613 7.82007C14.3017 7.53147 14.4657 7.20597 14.5535 6.84351C14.5974 6.32394 14.6316 5.80312 14.656 5.28101C17.0614 7.92155 17.7655 10.9294 16.7683 14.3044C15.9096 16.3268 14.4262 17.733 12.3181 18.5232C12.7204 17.9002 13.0691 17.2492 13.364 16.5701C14.3702 13.5017 13.6456 10.8715 11.1902 8.67944C11.6237 9.94897 11.5964 11.212 11.1082 12.4685C10.9006 12.903 10.6819 13.3326 10.4519 13.7576C10.3589 13.3071 10.2768 12.8514 10.2058 12.3904C10.0887 11.8864 9.88362 11.4176 9.5906 10.9841C9.55336 10.9084 9.49184 10.8693 9.40603 10.8669C9.40948 11.5796 9.30013 12.2762 9.07791 12.9568C8.89334 13.4321 8.70877 13.9073 8.52419 14.3826C8.19447 15.5796 8.35853 16.7124 9.01638 17.781C9.17359 18.0284 9.33085 18.2758 9.48806 18.5232C6.79104 17.7527 5.22564 16.034 4.79177 13.3669C4.70006 12.3989 4.83681 11.4614 5.20193 10.5544C5.62878 9.81675 5.98426 9.04851 6.26834 8.24976C6.41829 7.69202 6.55503 7.13214 6.67849 6.57007C7.09669 7.15839 7.4043 7.79644 7.60134 8.48413C8.765 7.0164 9.46911 5.36276 9.71365 3.52319C9.76533 3.08159 9.79949 2.63888 9.81619 2.19507Z" fill="white"/>
</svg>
