<svg width="28" height="28" viewBox="0 0 28 28" fill="none" xmlns="http://www.w3.org/2000/svg">
<path d="M2.3335 14C2.3335 9.60018 2.3335 7.4003 3.70033 6.03346C5.06717 4.66663 7.26705 4.66663 11.6668 4.66663H16.3335C20.7332 4.66663 22.9332 4.66663 24.3 6.03346C25.6668 7.4003 25.6668 9.60018 25.6668 14C25.6668 18.3997 25.6668 20.5997 24.3 21.9664C22.9332 23.3333 20.7332 23.3333 16.3335 23.3333H11.6668C7.26705 23.3333 5.06717 23.3333 3.70033 21.9664C2.3335 20.5997 2.3335 18.3997 2.3335 14Z" stroke="#535050" stroke-width="1.5"/>
<path d="M11.6667 18.6666H7" stroke="#535050" stroke-width="1.5" stroke-linecap="round"/>
<path d="M16.3335 18.6666H14.5835" stroke="#535050" stroke-width="1.5" stroke-linecap="round"/>
<path d="M2.3335 14.0001H25.6668" stroke="#535050" stroke-width="1.5" stroke-linecap="round"/>
</svg>
