<svg width="22" height="22" viewBox="0 0 22 22" fill="none" xmlns="http://www.w3.org/2000/svg">
<path d="M5.5 7.33337H9.16667" stroke="#747474" stroke-width="1.5" stroke-linecap="round" stroke-linejoin="round"/>
<path d="M20.1667 9.625C20.1667 9.55405 20.1667 9.13665 20.1646 9.10672C20.1321 8.64769 19.7384 8.28205 19.244 8.25196C19.2118 8.25 19.1736 8.25 19.0972 8.25H16.7116C15.076 8.25 13.75 9.48117 13.75 11C13.75 12.5188 15.076 13.75 16.7116 13.75H19.0972C19.1736 13.75 19.2118 13.75 19.244 13.7481C19.7384 13.7179 20.1321 13.3524 20.1646 12.8933C20.1667 12.8633 20.1667 12.446 20.1667 12.375" stroke="#747474" stroke-width="1.5" stroke-linecap="round"/>
<path d="M16.5002 11.9167C17.0064 11.9167 17.4168 11.5063 17.4168 11C17.4168 10.4938 17.0064 10.0834 16.5002 10.0834C15.9939 10.0834 15.5835 10.4938 15.5835 11C15.5835 11.5063 15.9939 11.9167 16.5002 11.9167Z" fill="#747474"/>
<path d="M11.9168 3.66663C15.3738 3.66663 17.1023 3.66663 18.1762 4.74056C18.917 5.4814 19.1469 6.53368 19.2181 8.24996M9.16683 18.3333H11.9168C15.3738 18.3333 17.1023 18.3333 18.1762 17.2593C18.917 16.5186 19.1469 15.4662 19.2181 13.75M8.25016 3.66748C5.39539 3.67583 3.88194 3.76607 2.90744 4.74056C1.8335 5.81451 1.8335 7.54299 1.8335 11C1.8335 14.4569 1.8335 16.1855 2.90744 17.2593C3.50618 17.8581 4.3084 18.123 5.50016 18.2403" stroke="#747474" stroke-width="1.5" stroke-linecap="round"/>
</svg>
